<mxfile host="app.diagrams.net" modified="2022-03-05T12:19:00.294Z" agent="5.0 (Windows NT 10.0; Win64; x64) AppleWebKit/537.36 (KHTML, like Gecko) Chrome/98.0.4758.102 Safari/537.36" etag="2pfdk1XxYz4sStFqp7hM" version="16.6.6" type="github">
  <diagram id="Z1-f5TAoEP9OV7cDx4_v" name="RAM类关系图">
    <mxGraphModel dx="2198" dy="667" grid="1" gridSize="10" guides="1" tooltips="1" connect="1" arrows="1" fold="1" page="1" pageScale="1" pageWidth="827" pageHeight="1169" math="0" shadow="0">
      <root>
        <mxCell id="0" />
        <mxCell id="1" parent="0" />
        <mxCell id="lHg3y_46yC8aJabjndZl-2" value="static MemoryRegion *system_memory" style="html=1;" parent="1" vertex="1">
          <mxGeometry x="50" y="160" width="220" height="30" as="geometry" />
        </mxCell>
        <mxCell id="lHg3y_46yC8aJabjndZl-3" value="static MemoryRegion *system_io" style="html=1;" parent="1" vertex="1">
          <mxGeometry x="280" y="160" width="190" height="30" as="geometry" />
        </mxCell>
        <mxCell id="lHg3y_46yC8aJabjndZl-6" value="static MemoryRegion io_mem_unassigned" style="html=1;" parent="1" vertex="1">
          <mxGeometry x="490" y="160" width="231" height="30" as="geometry" />
        </mxCell>
        <mxCell id="lHg3y_46yC8aJabjndZl-7" value="Memory根初始化：&lt;br&gt;1 +-qemu_init: void (int argc, char **argv, char **envp), &amp;lt;./softmmu/vl.c 2866&amp;gt;&lt;br&gt;&amp;nbsp; &amp;nbsp; 2&amp;nbsp; &amp;nbsp;\-cpu_exec_init_all: void (void), &amp;lt;./softmmu/physmem.c 3035&amp;gt;&lt;br&gt;&amp;nbsp; &amp;nbsp; 3&amp;nbsp; &amp;nbsp; &amp;nbsp;\-memory_map_init: void (void),&lt;br&gt;&amp;nbsp; &amp;nbsp; &amp;nbsp; &amp;nbsp; &amp;nbsp; &amp;nbsp; &amp;nbsp;\-&amp;nbsp;&lt;b&gt;memory_region_init(system_memory|system_io)&lt;/b&gt;&lt;br&gt;&amp;nbsp; &amp;nbsp; &amp;nbsp; &amp;nbsp; &amp;nbsp; &amp;nbsp; &amp;nbsp;+-&lt;b&gt;address_space_init(address_space_memory|io)&lt;/b&gt;&lt;br&gt;&amp;nbsp; &amp;nbsp; &amp;nbsp; &amp;nbsp; &amp;nbsp; &amp;nbsp;\-io_mem_init&lt;br&gt;&amp;nbsp; &amp;nbsp; &amp;nbsp; &amp;nbsp; &amp;nbsp; &amp;nbsp; \-&lt;b&gt;memory_region_init_io(io_mem_unassigned)&lt;/b&gt;" style="text;whiteSpace=wrap;html=1;" parent="1" vertex="1">
          <mxGeometry x="100" y="20" width="440" height="120" as="geometry" />
        </mxCell>
        <mxCell id="lHg3y_46yC8aJabjndZl-8" value="AddressSpace address_space_io;&#xa;AddressSpace address_space_memory;" style="text;whiteSpace=wrap;html=1;" parent="1" vertex="1">
          <mxGeometry x="1190" y="100" width="240" height="40" as="geometry" />
        </mxCell>
        <mxCell id="lHg3y_46yC8aJabjndZl-10" value="&lt;div style=&quot;color: rgb(187 , 187 , 187) ; background-color: rgb(40 , 44 , 52) ; font-family: &amp;#34;consolas&amp;#34; , &amp;#34;courier new&amp;#34; , monospace ; font-size: 16px ; line-height: 22px&quot;&gt;&lt;span style=&quot;color: #61afef&quot;&gt;get_system_memory&lt;/span&gt;&lt;/div&gt;" style="text;html=1;align=center;verticalAlign=middle;resizable=0;points=[];autosize=1;strokeColor=none;fillColor=none;" parent="1" vertex="1">
          <mxGeometry x="55" y="195" width="170" height="30" as="geometry" />
        </mxCell>
        <mxCell id="lHg3y_46yC8aJabjndZl-11" value="&lt;div style=&quot;color: rgb(187 , 187 , 187) ; background-color: rgb(40 , 44 , 52) ; font-family: &amp;#34;consolas&amp;#34; , &amp;#34;courier new&amp;#34; , monospace ; font-size: 16px ; line-height: 22px&quot;&gt;&lt;span style=&quot;color: #61afef&quot;&gt;get_system_io&lt;/span&gt;&lt;/div&gt;" style="text;html=1;align=center;verticalAlign=middle;resizable=0;points=[];autosize=1;strokeColor=none;fillColor=none;" parent="1" vertex="1">
          <mxGeometry x="285" y="195" width="130" height="30" as="geometry" />
        </mxCell>
        <mxCell id="lHg3y_46yC8aJabjndZl-12" value="softmmu\physmem.c" style="text;whiteSpace=wrap;html=1;" parent="1" vertex="1">
          <mxGeometry x="50" y="140" width="140" height="30" as="geometry" />
        </mxCell>
        <UserObject label="qemu-internals&lt;br&gt;https://github.com/airbus-seclab/qemu_blog" link="https://github.com/airbus-seclab/qemu_blog" id="lHg3y_46yC8aJabjndZl-13">
          <mxCell style="text;whiteSpace=wrap;html=1;" parent="1" vertex="1">
            <mxGeometry x="610" y="30" width="260" height="30" as="geometry" />
          </mxCell>
        </UserObject>
        <mxCell id="lHg3y_46yC8aJabjndZl-14" value="softmmu\memory.c" style="text;whiteSpace=wrap;html=1;" parent="1" vertex="1">
          <mxGeometry x="30" y="330" width="130" height="30" as="geometry" />
        </mxCell>
        <mxCell id="lHg3y_46yC8aJabjndZl-15" value="static QLIST&amp;lt;AddressSpace&amp;gt; address_spaces;" style="html=1;" parent="1" vertex="1">
          <mxGeometry x="20" y="360" width="270" height="30" as="geometry" />
        </mxCell>
        <mxCell id="lHg3y_46yC8aJabjndZl-17" style="edgeStyle=orthogonalEdgeStyle;rounded=0;orthogonalLoop=1;jettySize=auto;html=1;entryX=0.659;entryY=0.067;entryDx=0;entryDy=0;entryPerimeter=0;" parent="1" source="lHg3y_46yC8aJabjndZl-16" target="lHg3y_46yC8aJabjndZl-15" edge="1">
          <mxGeometry relative="1" as="geometry" />
        </mxCell>
        <mxCell id="lHg3y_46yC8aJabjndZl-16" value="info mtree" style="text;html=1;align=center;verticalAlign=middle;resizable=0;points=[];autosize=1;strokeColor=none;fillColor=none;" parent="1" vertex="1">
          <mxGeometry x="160" y="310" width="70" height="20" as="geometry" />
        </mxCell>
        <mxCell id="lHg3y_46yC8aJabjndZl-18" value="SysBusDevice" style="swimlane;fontStyle=1;align=center;verticalAlign=top;childLayout=stackLayout;horizontal=1;startSize=26;horizontalStack=0;resizeParent=1;resizeParentMax=0;resizeLast=0;collapsible=1;marginBottom=0;rounded=0;fontColor=#000000;strokeColor=default;fillColor=none;gradientColor=#ffffff;" parent="1" vertex="1">
          <mxGeometry x="500" y="260" width="370" height="138" as="geometry" />
        </mxCell>
        <mxCell id="lHg3y_46yC8aJabjndZl-19" value="+ field: type" style="text;strokeColor=none;fillColor=none;align=left;verticalAlign=top;spacingLeft=4;spacingRight=4;overflow=hidden;rotatable=0;points=[[0,0.5],[1,0.5]];portConstraint=eastwest;rounded=0;fontColor=#000000;" parent="lHg3y_46yC8aJabjndZl-18" vertex="1">
          <mxGeometry y="26" width="370" height="26" as="geometry" />
        </mxCell>
        <mxCell id="lHg3y_46yC8aJabjndZl-20" value="" style="line;strokeWidth=1;fillColor=none;align=left;verticalAlign=middle;spacingTop=-1;spacingLeft=3;spacingRight=3;rotatable=0;labelPosition=right;points=[];portConstraint=eastwest;rounded=0;fontColor=#000000;" parent="lHg3y_46yC8aJabjndZl-18" vertex="1">
          <mxGeometry y="52" width="370" height="8" as="geometry" />
        </mxCell>
        <mxCell id="lHg3y_46yC8aJabjndZl-21" value="+ sysbus_init_irq" style="text;strokeColor=none;fillColor=none;align=left;verticalAlign=top;spacingLeft=4;spacingRight=4;overflow=hidden;rotatable=0;points=[[0,0.5],[1,0.5]];portConstraint=eastwest;rounded=0;fontColor=#000000;" parent="lHg3y_46yC8aJabjndZl-18" vertex="1">
          <mxGeometry y="60" width="370" height="26" as="geometry" />
        </mxCell>
        <mxCell id="lHg3y_46yC8aJabjndZl-22" value="+ sysbus_init_mmio" style="text;strokeColor=none;fillColor=none;align=left;verticalAlign=top;spacingLeft=4;spacingRight=4;overflow=hidden;rotatable=0;points=[[0,0.5],[1,0.5]];portConstraint=eastwest;rounded=0;fontColor=#000000;" parent="lHg3y_46yC8aJabjndZl-18" vertex="1">
          <mxGeometry y="86" width="370" height="26" as="geometry" />
        </mxCell>
        <mxCell id="lHg3y_46yC8aJabjndZl-23" value="+ void sysbus_mmio_map(SysBusDevice *dev, int n, hwaddr addr)" style="text;strokeColor=none;fillColor=none;align=left;verticalAlign=top;spacingLeft=4;spacingRight=4;overflow=hidden;rotatable=0;points=[[0,0.5],[1,0.5]];portConstraint=eastwest;rounded=0;fontColor=#000000;" parent="lHg3y_46yC8aJabjndZl-18" vertex="1">
          <mxGeometry y="112" width="370" height="26" as="geometry" />
        </mxCell>
        <mxCell id="lHg3y_46yC8aJabjndZl-25" value="insert" style="edgeStyle=orthogonalEdgeStyle;rounded=0;orthogonalLoop=1;jettySize=auto;html=1;" parent="1" source="lHg3y_46yC8aJabjndZl-24" target="lHg3y_46yC8aJabjndZl-15" edge="1">
          <mxGeometry relative="1" as="geometry" />
        </mxCell>
        <mxCell id="lHg3y_46yC8aJabjndZl-24" value="&lt;div style=&quot;color: rgb(187 , 187 , 187) ; background-color: rgb(40 , 44 , 52) ; font-family: &amp;#34;consolas&amp;#34; , &amp;#34;courier new&amp;#34; , monospace ; font-weight: normal ; font-size: 16px ; line-height: 22px&quot;&gt;&lt;div style=&quot;font-family: &amp;#34;consolas&amp;#34; , &amp;#34;courier new&amp;#34; , monospace ; line-height: 22px&quot;&gt;&lt;span style=&quot;color: #61afef&quot;&gt;address_space_init&lt;/span&gt;(AddressSpace&amp;nbsp;&lt;span style=&quot;color: #c678dd&quot;&gt;*&lt;/span&gt;&lt;span style=&quot;color: #abb2bf&quot;&gt;as&lt;/span&gt;,&amp;nbsp;MemoryRegion&amp;nbsp;&lt;span style=&quot;color: #c678dd&quot;&gt;*&lt;/span&gt;&lt;span style=&quot;color: #abb2bf&quot;&gt;root&lt;/span&gt;,&amp;nbsp;&lt;span style=&quot;color: #c678dd&quot;&gt;const&lt;/span&gt;&amp;nbsp;&lt;span style=&quot;color: #c678dd&quot;&gt;char&lt;/span&gt;&amp;nbsp;&lt;span style=&quot;color: #c678dd&quot;&gt;*&lt;/span&gt;&lt;span style=&quot;color: #abb2bf&quot;&gt;name&lt;/span&gt;)&lt;/div&gt;&lt;/div&gt;" style="text;whiteSpace=wrap;html=1;" parent="1" vertex="1">
          <mxGeometry x="65" y="450" width="180" height="40" as="geometry" />
        </mxCell>
        <mxCell id="lHg3y_46yC8aJabjndZl-26" value="" style="shape=image;verticalLabelPosition=bottom;labelBackgroundColor=default;verticalAlign=top;aspect=fixed;imageAspect=0;image=data:image/png,iVBORw0KGgoAAAANSUhEUgAAAtMAAACICAYAAAAlImcsAAAgAElEQVR4Ae1d65mDIBBMP7ZiKTZiIfaRzrxveLkg6GLUw2R+3BcvWWEfAwy4wuv1es38ow+IAWKAGCAGiAFigBggBoiBQxg4dBMJOCchxAAxQAwQA8QAMUAMEAPEAGcgnEwQA8QAMUAMEAPEADFADBADhzFw+MbvmIn04/x+j3PPmeV3xJNxZByJAWKAGCAGiAFi4F4MCDLdDfP0HufuXgUqA97NwzTNQyf0/kTf08h0P4/Te36/3d+ZOn5iH++txNdJuKLf6XdigBggBogBYuBXMLCQh358z9PQtW84CPDYN6Wn9V0bOnXD9Iw4spNpCsN8vLf0hfQFfUEMEAPEADFQgQHnLLcq/Yx0h24e3yeuTp9A6kCmx74N4JFMtxGHikZIUn1CG6S/iXtigBggBoiBf8KAdTwIWH61t5v7cZqnkL4wzr1JjXjP72lwJCBJcXhP8+hXuIPs6NIgpnnsF/nJrTCb+t9iZdyQe5sykSOpH6+ii/KzOdNC72GcQvqG1zcEy8t5/7jPdIW/H8Z5Cmkg04xy1Ok0vo5p24evyCaRcpJMPLyvjd3dEov3NM59SJ8R3xubREwD8dHIsGEHrAS/0Sf0CTFADBADxAAx8EUYsMEskVMQ6Sg/2ZMvkWYxjJKE2fK6flwItSF5INHd7Amfvx7Fy3+5FdXSiq8hhIHMfwLIfpY6RIH1evuJQYd87fwKdElPlAcfGnsFmYJ/VsRc/B7pge+9Ljs+xH05P67Ke8FuTIimeUCZSd27MX29Zo1MWi7//wSrvJf4IQaIAWKAGCAGGsSADQpIYrqaaghcjrBipdST6eJqqFi5hkwoR5JXeZ0ngSWSehuZDnpbP5X0KX3/AmmdhuwqdNWLlEofAmB6Ml3YxUQb02Q1fnn50j+xYINvsMGvJk7UkTglBogBYoAYIAY+woC9GWTwMJkukMUQGCURzJHAEkklmfZEOJ6QwOc5P4ZYhBXo9X1BxsVrMw1FIxPq+gigJH/0IzFADBADxAAxQAy0jAFLdAw59avNImCaNA+TU53kACONIeRUK8n0y91jSVw3mzzjdzmtYkX+hd6BGO5+t08qZVklcl/6HveeluYRVsmlzvJ6ieWSQgI/Iuc73fJwfV9s5zqvO4qpsyvN/U5lZJm85qSCGCAGiAFigBggBr4QAy6oILwif3kxtPACYkK8PfH1j/qn0aU2+JfnTH4uvgOJw8txWFn11z4v2+YkL2X08zDaF+li4vz5bh5Ia/H1RJ+esK70Bile7vH6mElIJt0hfWky9s+aqC7+zjSylS7ebzkf4v74xUATi/BiYezjxXa/0r3UH+v8nkNMxQRFI7NpmyiLcovv6Qv6ghggBogBYoAYeAwGFkVBFj1J3AwgyF1CpjflzyZMqN+T3rPLZnktP0ahbsQnMUAMEAPEADFADLSGgYVM2x0j0nQA8bsP3r+S6ZNPQPQ28bM1YFIfYpIYIAaIAWKAGCAGnoCBDFkuBc6kgiypDlwdrvBdyaf8/gmNhDoSp8QAMUAMEAPEADFQwgAJ4a0pKgRiCYj8ntggBogBYoAYIAaIgSdigGSaZJoYIAaIAWKAGCAGiAFigBg4iAE67qDjnjhzos6c8RMDxAAxQAwQA8QAMXAuBkimSaaJAWKAGCAGiAFigBggBoiBgxig4w46jrO6c2d19Cf9SQwQA8QAMUAMEANPxEAlmfYHiGztM62RIVieCBbqTNwSA8QAMUAMEAPEADEQY6CSTONmzT7TGplYEQaG/iAGiAFigBggBogBYoAYeBoGSKaZ5nEAA2zoT2vo1JeYJQaIAWKAGCAGrsDAOE3z++0OYpnGeei7xNHdPIyxTD+kx4nvy3SDL2Oc+66fx2mps+88mRPfG52meRzW+vRSn/c0j+OUHIPezfsyvs6tz+1yBmfD2Md6T+MwdzJY3TDv+/k1d/04Tz4W7/c8jfh/nPtQVlzPG7av/GPtwdHwiKvqePhQvnvqAB2m0cVomqV9U5Tes6GPT/VRlfOaganJY+I9zahH+lCDHx8PHCZk7+3n0fsz0nsr5vyNk0tigBggBogBYoAYqMBAF4jsa8Zx4mNE3tzR3ZJgeyIcyIlGxivkyM00ZUj7ax5GEG0vaz9BMCPCCJIGshTkLOGNSKNCJhAvT7b85zQskwlFOYa0TtBbkH6cFBkIHezohL45P79mkMUVgeyHiEyr/OOI8WEyjfvNSZcg0Z27fodriY9dfZTlYOJj6hKk3kwsAsY8JrbxAz9L/UxHsIqFL4uf7CiJAWKAGCAGiAFi4AQMhBViTyYlmQYRWRGaJGdaIxNIEsiQXGkVBhjiJY4qD/pglVQQ3FeyCm5WMf1KpC9PI+Nltz73ywFpHft1GSCIgyf8ZmU6tS32w4AJhpcP/hLlqv0j7smVo/kOdQWfy5iJa40+mnJeWN1O42dtWPtE1F+ww0xKxGp9KT7sPE7ASSEG9C19SwwQA8QAMfBTGIjTOhKyAjJ0J5kukKqtgHSdS8XI6ekGe43MVh3+t1w5JbK2fA+fpivxiZ9fr3lNHJOG6IipTH3wep3+qSHBGn005ZxMpqPV6aj+xJ8kgssTGPqCviAGiAFigBggBo5jIKRVeFIarRxrUjg0Mp7IrEmkJIJYzV2nOti0Di8HkjoNMp+2m3ukSCSrkXsyvrytT21dyC8upnmA0MGnftU562eX5pFMJrre5lr7FWuNf7w90P1QzjQaU0RCZczk9cvkpW/Gq6IcfZpHvKLv7ZWfdnW635+gsOM43nHQd/QdMUAMEAPEADFgMbC88Ia8VeRMg4TJlIMk1QHEES8gQi6kAuzJgHCnaQ74f02MzItoIsUjfZnPrPiaF/OW8lJCp5GR5Kt0rSnHyPSx/anOHV6uCzaV/AxCLeXe82RIup+I2M89/3hboNchMu1fHHTx7bBybHRHrPz1go+iPh+Vk06q9Pix9iN3+j2/N55WeD/xM8YX/UF/EAPEADFADBAD1RiovoEzMTETs2SaPmyr4bmnJf5pgIhXW3oSN4wHMUAMEAPEADHwBRhgED8JIsl0g/jBFoNcleakl5MoYoAYIAaIAWLgHgw0SIbuMfxjgMWpK0vqwyfknPcexaNPQVnSf5jmcdSXvI/tkBggBogBYoAYqMAAnVXhrI8JOOsi3ogBYoAYIAaIAWKAGPgqDHyVMSS7D1nVZyfCdkcMEAPEADFADBADX4IBBvJLAsmJBCcSxAAxQAwQA8QAMUAM3I8BkmmSaWKAGCAGiAFigBggBogBYuAgBui4g47jzO/+mR99Tp9/FwbMfuzr/fZ/ok+qtB0vfI89x6ufwAb7ue/q534jnmd1TvbEOXuYyzj7U/vihk8Z+qeEDS0O+3mUBwBNuV1UKGNwZg7eoX/iPkiLM3cS6HucuysHgkpCedgWlQ04TRYHR+UwU+E3VV2v+VVjO2TDIWE1unDP+WsxUxMLyjIWX42BM4zDCYBDNOj0Y7raQhk5KNM/x3CHfb1xVPxWp0QZ+mcLH9rfLI66Taxpy2pdrsPe7NM4DzjNNTtBPdZez7L7o1VpEPEv3He+G6Z5Gn4Dn2fhiOX8bzv+cv+f4Fx0xEmjXjV0ykSDMv1zbBDQHJJDme02/cv+UXfm3TBP73RBYNuv6rK1K7f/JNccmT68Ku3j1c3jXavtN8ZsNYbcWPe3YJ12+DbCzxOw8LkTs406WQ2gTEIe6Z9ocrELZPgLaQvJXzSJowz9I/ARYaOSaKC/Slcz/SFNYx+nEU3JUzlzr9FjnPtOyE743/W3hqx7PJdJu0m7CGlNkznZUz7h2m03lXajvMvJtNJ2b9vWqrTWP5qnDJBB/3IcN93cj5Nog9M8jvHqsccQUlZsHMVhU2H1fKecyH8eQ/hM03ME9gwep3n0i16+r5xGlzY3zRLXPEH2c17k8cvPn/Hl54aSKJMohw7jwCQhDDCCCBnSnMmR/OVVVdq+3Vdp/BNwukMyUVaOVOH7tyHFos2D3ARy5HV0JAkpE72QXdULuTyZBjEbk3tNOkYgXb6u7c+a9gX/XE6mgw/Ktoc4oT9Z+dbaW+MfM8HJ9CehntdrNrH9hEx7Xf2E6WVJcYwjrJIn8U7xoyrnNWfH3eDb1zwg1TLoYn0G/ARCbUi5w5gj6AZv3bDWUZQrfcbr7bZH//yUfz43NtuoD5AqlpMMuj/iw5oOR0OYKLPdpn/ZP1qsgYDGJMj6tOQ7ELv4pWsFUTQEpSSHVUW/ehnH82qye3X5SwxKti/2Ig75HTzq/KMh04teS/113+G9oHhlOn1qgfLScW6NqWPlRLo6cpw+yYsWKRyJt/fJWMjro77gfVE8OBmpexL9TH+dAPqE9OU6DPPmdrKiknYqlIlfHPsZ/1Q0nPXAs8YvZdY+kR37L/tH+mHrGj6qI9Mp6dMSkpJcHVncsqX2t2bItF+hzfYPdf65h0zH7a7rXLpGMu69XmJ1OiK08f0+bqVyVuOD9JMrdzMlKKpb4lBe53XyuvGT/iEGAgbCxQczB7wBLh4pmTzB5FHWizLhkRv9M/ey46+4/mUiSNu3+yqNf7QdvyFfKxLkUgHUaR5pH5jTv0xcatIYtHZp5LbJNPTN5efmbNv7rmw79NyLZ41/UFZuciT9AZlPcqZtHb3Y1QpbDcY5074+S4TtVrHxEw1rN3YsWohwvhxTRsColXmLrRzhH+Q+L+W8ZqR5hC0GSaY/4Dx72ObvHus/9HlS0Esv2kiiRBn7coqceNA/qg7NkJs0p/odrwZSRr6MZK/lI/Jf9k91hw6ikea2BoIXP4aPH+Vj0WAdB5AcOYHMyyAfe4jag9332Ze3JkfVdsn+Rl6DZGXa14qAOrnV97KsnWuV7ZqVVcTD7Iu95x/dbh5nkOlxxD7dXp/3iswu8YJO79VLrvgdeujKweq8rGuYuyRHOvYP9HGpQzLeJp3IT5KAU3+dpi6dxBV28LH4iPXRF4/CwKOUjQYaAo2xIwaIgaswYFca4/cYDNH54VP4LOGMJwZX+P9UP8vV2GaIXJv7eV8RS5bJPvpHMMBA/0igORFpZiBlm3tEm3Or0/Ix+akk74F4xKryJ6vS98e9UdKKcxdCigb7g/txQZ/T56dj4PQCSdoeOEiyYbEdEAPbGIjTE/gInHjZxsvaPz59YknNSPcyX99TWwfl6UNi4J8wQMf/k+M56eCkgxggBogBYoAYIAaIgedjgGSaZJoYIAaIAWKAGCAGiAFigBg4iAE67qDjOJN8/kySMWQMiQFigBggBogBYuBTDJBMk0wTA8QAMUAMEAPEADFADBADBzFAxx103KezGN7PmTAxQAycgwGzb/D1W9axr+R4SQwQA8RAFgPZL8/p4A8NlPZUKHOAwDTO6elQNoiUoX9K2NDgmfi5Az9dP4hDJaZZHiATd8bx4RPvKbdTRmsyGpw5mcwWe7H9FWWV+tTbyLSm7ZxgT8nOS75vdPu8S2x9WmxK+uLERxyQk+srSvfw+9P7HWJUcuWWAIaTxdwJTS5I/ZiutlAm3veW/qnrIIifW/BjDsoY596dyAZiXRr4sHczjk/eimNrMlu6pr9Z3ePDX1KZZ/yvaTstjScVugCv3Pd5sw22glEciT5hoa3nJKiVmFAP09dUdDhXz0LQSIZ40MERyNF3lIk6PPonxstuoyZ+7sFPpq8oHXhS+l7GsjUZqdvmdeFY8s17Mr5rQl7TdlrVfVcv3ZHjTcRh15aGxvSLdR2yT7F+x37isalYt6PMihiiISYrBpRJyCP9E5HDvc6F+LkHP6s4dDiwInkkC+y+xQEW7jqdPDclU0kOgLd0xdMf/jL2cerKlDyVM/can2CFX8hOy4r/y5B178P0KdXSt5tH4pOXm8zpe/IJxSpeGTs1bUdTjkZGa/s4TQuG3GqlKd9jaxpdqhHSjBYf5k4f1DxBgAzwGGE046uVjUp9tNh4vbq5H4Xt72kex2ThSaOXqpz9uv4jXvAxyfTSxleYU8Wf95/ot3acqemsKXMPGXqin/1AtCJf0xAI9xPteqLOoYPyJAJEus/3Na2tOmv0CfbtDFglgmZImSHFoj2DGE9xmtvr5U7NwwpcL2RX9UIuT6ZBusbkXvOovDKtQYNDrV90cnu2d3Pn0ohMed0Q+8BMNJztbtJh/JDKOV/CvrfoK3I6mrgdIdOoQ6mPChtoV8BKsN8S3kMkf68cdV33xgvxIZnO96k57PK7y311eQWByOwFU9NZUyYZUNHRiUHxl/2zhy/8/sv+udP2VSzMymqyMu1IDMhD+eVE2z+1JrOyb0Vurd6Y4OUITskeEN/4pesySY51KMlhNTYl6F63tK7tsUCDn1in7fL2ZUs2uXJBisNqu191FxMKNzmx9ciy5PWiI+zbI9P7Oi/lrWSV+uiwgfz1eGU6fbKxqj+LUU05GhnYnfdr0OPkeKFckukNvGXjTfmAx/P905BzE2IIo1cdOGWiyQn9k0wu9hoI8XMPfnJxyPgebbxEHmSn15qM1G3rGnrXkel0YrFDUIKfS3Lnkek05Q52r/qfoM8Z40rJJpSN39LV+kReSV59/Non0yk2Fh93nUvFEAsr3q6aT005ZZnE/xEWzo8X7CKZXjBQE2fKXuK3SwqNBmx94PB2rswHxEAgVhpM46SM3yHhZVb76B89voB14ucO/BgSOfZzyMt1Ob81xFLG9alk2hC0DMGBPW91mkfaxnN9dpnInJXmoWs70A26YKW4buVbxttel22yKRNyrPB5vcJXlWS6NPGRepm4fZLmEdJIpG3y2k4u97BhdRXtC7nP6cv6jswuOq93zNGUo5H5j3ihTpLpXF/A72SbvfG6MceXXrSRs1zK2Jdu5MSD/tFP4IifW/Bj94H1j9+neczs1LPKb3/Hq2+GjGZeUpRpIXfKVHfMIHSZXGYQFOTvykf18WN6TPq87+SnIIuGTMjfxHUgbbZ/T2OBF/DCREf2HXvXmraDJxBHCaepX2d7Z/YZ9jYjNxo50/h/modBvNxq0lw8wYf//LUk+7rdPBZieuCJmMfxjj772HBPc0bss+ztfxdfKl10zpPpcacco8+mzM3xcvhK+47cRL26ve7hn7/rx9nf81VjZPr3AkBwMubEwBdjAGQkHegtYfrOvteSt5j0N09qQNCSCch/6fzN2Pgvn7Le7+xrGosrndxYQEisvphYEWs/2N+41Wm5EvzNhKn00mW72MfKqlyl/l+MfjM22sXA/8acfvkK/3+FESSgJKDEADHwCAzE6RvtkDgO6P8/FhIb/x8DtgPG4CAG6LiDjnvEwE3biG9igBggBogBYoAYIAYuxcClhZNwcrWQGCAGiAFigBggBogBYuCbMUAyzdkaMUAMEAPEADFADBADxAAxcBADdNxBx33zDIu2cQWBGCAGiAFigBggBogBHQZIpkmmiQFigBh4NAbM3rsP245ON0BxIN/yE+NOfGzhg7/diY/WBtHebFNkNmSfxnnocvpR5nP/OL+6DfDlIRgLqXiin3N4Sb97ol3P0tnuNbwcKOEPWCjhbJQHlGS3KcNpqKK8f5dJMbXxf2ZrvKWNbdxXMxDeRqo0ODzJphr7P5Jta2s8e7qjx/rOBOm2uD8tpk/VFydZ4jCeRnb5kYc0vXEw0lP9eovet1SinB3gRLAhOpmrH9POhDLxfrVH/ONibgb5aZ6m+NQ5O9A/0c8aLD/RrufpjCOs04lw7jtgDcR7Gtans0nC2ZqM1G3v2upeeWLeR+RQ0w6OyGhweKTcBu4BKc0c+74X22t/j48Zv7auBmLQJObv80vXj/OEBUScjJpdLLhPF4s1nApqT2rF/12fP82VuAxxCRdKwnuhPMCUOXI4+o4yUZxwlHK1f0ynZY+Axb0Y7Fczzif6WdMZP9GuJ+qcxgITN3OM8rr/yOIvub81GfUA4lal+8Qe9f0t3afBYUv6VumiO0783riRTN/r73Xf9F/1N0GmMxPMJvSqate3xvTWyiIimAJ1RQzhtCSglElWuA74B36HH/1KTI6oPNHPKZ5y/z/RrifqnPq+aMPbP85ePtPJoU8RkZ//JlPZkcNu3868T/zBHGMfp65MyVM5c6/xzzj38nHrhP9dv23Iuvdd+pRq6dvNo+OQJjPN09hHTwC9blufxRhesKKrtX2cpjngwq3qGRvQL8J30+jSg/CIevE37E9tRT8Y4SoTa8ig3D25tOzwfzfMRZ1X9W2QaU3cVXVhMUX4EI/yx2SBZqXXgiszPiv8rMX86/WhPkFXTTn7Mv+BQ2DlEGk9gPmAy+C3JbayvS8YcU8clXX9UtxfW868+zcZvFD3AbLIcrYJt+0Al4H3W8i0b7hhcPVEbRrCwElsbGPjLP+E9us66a3BIYe/9P7WZFL9Sv9D7xzxwvcgen0n4pFdvQehguxkHv+W6nm9ysQLA+HYi3rMI9vREOpyecug6mU02PCy53zu2d7NnZ9UAGcgj++lX7O5x852Rz6NH1I5h1HY9xZ9Rc4GE7dPyPRrR+eI1JRjuui2JaOoC+MrnhgFP1qCmcPsUmeCDePbfT+rMH+GPvChphyNjInHvTiEn7f6y2IcoKsyFptlOAyG9i78FOmlrOtn4q5x6l0yIXgumKZeBFKsIlAmHhSPrtyvCKfJjVo6ySf6WYPTJ9r1RJ2jWKDTLaR4QA6d7SrNSPYBDcpE9iW6yt8wwcsRk5LN67zyLbK0tNcymcZqbPweitcvGhg3bPDyGhx62XM+d2w3K69+Vd5/JmQ6kGNZlrxefAj79sj0x3bt6RzFIa9nrMOGjKou5MHHK9PpE5K4vsVf4XvXvu3/Uh95XW7nMeZP0Mf4UFOORgb2xnYEu32s9vys9I8st7ZthnsP1BXu9fa4T9/eTbtwHCzSS1mXrq/TxiKDv0hvTTkamfq4N7UynRJDBNkHNAQ8IdeUSR7JafwTga/QyWnKaU0msStgRn7fms7fqo/w+aoNi98Qo1JnK+PXmozUbesaeteR6XRisTOQB1+W5M4j06r+OeizN+hpfi/Z5Ae6dLU+kVcO9j5+hjQE8q3Rr1YG+u3oHPkvsSf6zdddkqmty5bXdS71QSxgef8UP5V+LrXh0veo75A+GT9pyinLlHwMnyn8rPSP9G9EWjP2SNno+kBd0f2irqXfjsln6M+UdZXiW/oe+pRj4XGv+9SUU5apjbtwXsmp932Pl+JkPiAGArHSYHSlzJIvedQ/MRDzoH6in2O78rh9ol1P1HmJxd7AkMffcj/i2JpMHluxzpAxBC1DTGCPPs0j7QPX9Wytnp2V5oF81v3+GbphEMJK8XpHF63frNzGYIaBHCkdPj3Bk8A0zSOQY1mWvF58iZgEolAYF03cjqZ5aHSO6s3rGfuwIKOsy9os8+exNVuyQBPptPgr6FFBqvYwX6PPEotS/vu2Xfq6Cj6GXzR+Vvon+PPTNI8KzMs6V9eZhZ5IRmmXidNOSps+FnYssO8ttBX3tlamDThBEN0jO0msZYMuvYxDGZsbrPFP6Aj849F0RQwdxQNjITFQun6iXU/U2WOskGZgiKbPaxefMuWjNZloMCnhS37vB1v5XZgcJCs+0QuIIK5L21zSsmJinZcBUV/eE4DOdu9aX96xFxCN7RocYhA+SjiNn3S2d2Y/3sWmsUfONP6f5mFwLyDif4M/ECL8Bv/5a0n2dbt5LAQuSbdL4lvCyabObmKgialGRlMX7BlH7Gvs/fiueznVxdrgc8fPpi5s+ybSStKUkhp9lljkSdWeXft13YxD6UsZj2SHsxK2zJMjf99OLIplRDjObI3n+xWp605dvxL39sh0FMzMLJi/h5fpdA2CPqSfiIH/xAAGk3TF0w4w3xkX2GZJ64PsAznwRIFjzCVjzDdj/j/7l0vrjvLB5eRT37Z/KO56p1waNHZgl3RgjBnxTQz8Mwbc6nR82FLmSdCX9IFYNU0nD21jECuQx4hC23b9M+4TPP8QqeJYLmL/Q3Fvq8Gxc2I8iAFi4JsxED+iJ4n75ljTNtuXEfO/2af/WNx/M8js5Bh3YoAYIAaIAWKAGGgeA+bp1pLXvrxDIb/jxPyf48iG9M8B4CMh8UiIsWB7JAaIAWKAGCAGiIGHYYABe1jASL5JvokBYoAYIAaIAWKAGGgHAyTTJNPEADFADBADxAAxQAwQA8TAQQzQcQcdxxlhOzNCxoKx+G0MmH1f4z2o2a9dMLZV+hkvYMl90xmTC2LypL6vEj/Ey6Pw0pqyvdmmyG4CP86DP+EqajCU+dw/Lu6mcZc6/Cf6WYPnJ9r1LJ2xHVLuJZk8sRCHA+HQgew2Za3JaHDmZDJb450+SDY1SOMUPRwEsvVC1J14rohVNM5k7qvxM2QP7V3dzlZ9vh3n223GP3v++/Xfa/Dz6756nv0tNQicjjTM8X6s6WoLZT73j4u5GeSnecqunjzRzxosP9Gu5+mMI6zTiXDuO5BKDNjTsD7FTBLO1mSkbnvXVvdjJ+btld3a710/ztM0zgNOustOitBG78Szpk+4RuajVWmQrswx9P8Rb+BXQ6ZxWumz9he/Ju7/ESPW2UQsm1DCPqJFR5wcnblqoJSJHmcf8o+Z8dmjUuHvbGf5RD9rZrJPtOuJOqexwMTNHDu77m+y+Evub01GPXi5Vek+sUd9/4PvK5LpO/H8X/47vCrt24fuePM7cKRpe9BjNRb9l+9Zb8QR7sAI6zDt1jfe///MNsZkhk6ZZIXrgH98x+dXPnKd5RP9rGnQT7TriTqnsSjagLSO5C+aUAPfye/4/99kKgdq2O3bmfeJP8hg7OPUlSl5KmfuNbaPc98J2Qn/u/7akHXvw/Qp3tKnm7SLyctN8zT20RNAr9uZnyUyXcSCWIk9S+Y0e5R+9vVtrUprY4F+OcJ5BnuQWbWHjJzXa/UZ2eXxEddrxwc8TZhCW4ywWijjvUrzwcLNUgZ+H0e3mu3b+TTOo8HpNMv2Aek/ibMAABM3SURBVLx63bXtYpxEXe5piSmjoi5fZ/azppzIR/l2qrFLIwNd9zCmLSdrdw2+fkt26XD/23EI8KrzAGCThkQZEbMD/nmZTmBp0N9Cpj1JWZEvkbdIjH0+GdP4MO1LSsTKdPyKx8g5jKZ13CmT1l36Hzqt+iuX2vI2pFjEAwPuavW+n0cQaqRM9EJ2NUhBbmnTUh8QmDG516RjiH5VypeuNe1L3luKuQY/Z8lIfc65Lvs5lI/+dRVH22fXxAI+2Mu5Br4+JtMCB77OOJUQdcT46/o1VrMxkzj1fvETwZcl16F9GMLpsOrIp8FtN2SwvdcuurkL9bzmV1pGVV1ivJX24Lq6nD387NkFXbZl9BjbLifgObWZ/4eJXeKjDaDc7LRsYzxAFllOMuhmfLginO84L+6JPkyAnQX8E+16os5RLDDgFMgF5O4kwWfVFdm30U+CgAayIORKemAgjHPN9wZf33+X5LCiHb+H4nUvkV3/+6efpfLvxPOnNqzvL/nZx+E1l1el62IBP+2R6bV+ix61vwF7uXZaxqpizBCYt7nyYrX4jSckApuun7B6Sz/La29f7jv/myPP4UmMX3EXk82qukS5kT2OTIfFGqmTvJb3l773Mnu/Q25LpgZjW+V4ffhZ0Y4aclZC+mDEquOlTEQSD/kn6RCyneUT/ZzYlW0ET7TriTqLWKwwKn5DjLL4a1wmi61EZ29bHZmOCcr2wCn77tLAWDO4yvI+vy6RafNkTKyGwk8rjJyF+UxMtLHLy5X87PwFvQuTFxPLwm85X8En95Bp+7KoTKWQtpfaZzrxW8Vwx/dd59I+PBaqCO5WHPBbvJK+akdVdW20hepytvRGPXu/78nUtHdNXRu278RXYuhHrltyFhq1zAcEMMRs0gSPMku+5FH/xDHPd5ZP9HNsV74BP9GuJ+q8xCJHFGRs8vhb7odsazJS/61rQ4g8WRCDD+zRp3mkfWDsG1t/eWDUP/bNlXv8u3Lc78Qz9IdvXKqCfPQv4rEVw/i3sp8ht4fTmligrNxETOpjcJS+Q1BlF2KR1JNMZGwdMTntsPVhMjEwZDpgHdsjYhV6DLn51h6Zq29lgo1VxHQjDigHKU8+1p60yzSoqro22kB1ORt6m7jt/e7xXO4T9BjT1LVhexXOfqKcxowsvWgjA0cZ+yKInHjU+gfyptPxj8DSFTH8DrLufv+krjvLkX4oXd+pzy/X5TGWDLqeDBiimXm5UG7D1ZqM11396Qf2BIsgFsgHLb7Uhe3jfNuLfBQPonkZEPUheoJl9332bf3CFxBBxCJ9bZ2BMHk/3NkunE4rHbwuik+Vnx2xkvnGOZzoYqHbzeNTMl1qX/49JW/3NlY9hxDjBQg+Ujg8ofUTjRH7j3scQsaRa4kb01+A6EEOePfXSIHStQtD9kM9yMNG3jXKm+ZhEBjdrMvbVfhU62xTf3LtYmmnGrs0MlbXbYzpy8nhl98V8EDHFB0TDUb0E/1EDBADRzBgV+Ti9xgsmaY/j/iz9h5LOONJSG0ZGvlTYwqilkyINDpQhm2KGPg3DPxbxSSrihURNgzikxh4OAbc6rRcsTyVeLEf2RxLsLr6yar0/e0PK4fpi6gPbwPE6CZG78cY8XSBz+nUC5zKhsPOkxggBrIY8I/O7WNfkib2vxyDiQFi4AswwCB+QRCzgzbtIraJAWKAGCAGiAFigBi4HAOXV0CixxU6YoAYIAaIAWKAGCAGiIFvxQDJNGdsxAAxQAwQA8QAMUAMEAPEwEEM0HEHHfetsyvaxZUDYoAYIAaIAWKAGCAG9BggmSaZJgaIAWLg0Rgwe95ev/3bo32kHxTLBKLSz3jZVO6b/vP+OyMGLKOMT/rmP33T2iDam22BzJvu0zgPYtP3pSOizMf+6cXm+V/lZw2eiZ+P8fPS+BCxiA9yeGe3/HqijAZnTiazNd7Sl1WUszVQVpK80+uPdMPJduhftnYq0eDnLJmTfAwba/wM2UN7RXNrvGvxeSIeAu41mL+iXpbZEFZaCgZOBBvC8aNwUj+mqy2UiferPeCf9KQunEYmj1o1HcQT/azB8hPteqLONhbYT3ka+s3VgifK1HTg1r740Jaa+58k22GSjsk5TnfMTpyAizvxrOkTrpH5aFUaRDwczX2NfnZisJxGaLdqtKcSBsyZycNaxk7G41M2V6cO4qRBb4OmnIIMTkn0+kTbSprTC5PT/DB5KZQT6WwmuGu7zKmNgSDr/K7DvK4sbyc/H+mvhpRGRzzEgw6OO42+o0zoWNDgzvLP6hCJJ/pZ0wk+0a4n6uxiscJVJkZPlFEPdm5Vus/YrS7jofcWyfSdeP4v34HQHVqV9uOx7jjxjzHkFlZCOe647mjMTWXg0/Q7xFSQ3pc/Lj76bpin1CdpOav/LVmW+qzGvNw4mJaT09kcUx4vRpnj1Q1J93Go+yxi/r9wyHojvhRwfo1f6sBypTK5RmJmmaJBUiaebBzxj330Lp8AoMMaoycCT/SzBptPtOuJOpdWh+Sg+EiZyk4YsQurc+5ev7o29nF6S7oqZu59Y/VsnHtPTvD/hP9dvw3SYGScXEE/k3Yx+ZW4yRAf+YRL03ZqZUrE4k481+pclFf62d+/tSqtjYXmiQZksOIatasCBrxu0WeOdGIiIMZcSZxD7JL7DFZBQj0uocOBcmRdQc+0HJM6th6/ogmr0K+ksxkHV09k8TT8eJ57CfPBlprYUPZOInxGXSTTAehJow2NUIL6C2Rgr3kkN00mr3GcxtVLMk+03ZMU/7gyfIrVkCfa9USdfZvSDExPlPH27X3CthzRwfeWFIvJsSMAMclFChZkJ5M6Ua4vl6pl+/Z+nOaxF/Wg/acribKPK1xr2pfUr0Qs7sSz1Oec67KfQ/kYIwqrmzWxgJ/2VrcNjs4k02bSBrwIXgBchglbHs+w3Y4py4RtHPpogcYQ5b1yBAk2/szpY9I/BeFNxmR7n0bnfCyz+Cy0iRBz93sJ86kc/xf4Uvr2AT5rx6gsiJOGQpl4UExn/xr/4J7okdzrtcpv1JTTmoymsbWm87fq42PxRKKs0dnbt/cJAloi0xFhcQMKyFb80nV+wF/XW5LD6rdcxVv6+6sH/lL5d2J+7afF/mO/lfy8lFtela6LBfy0R6aP2bDomhLcN14aTSZecrU4G7scGeo6s8K7u8Kd3psQ96w+uEfwgmx7FaS8rHM+lmV54bdUb/d/CfMfx6lQH8vdj8mNPmpIGdFAvANWwKZM9DjiiH9W96Qz/aSzekwsNB0O8fMxfuRAVsSGi0V2oEvi9EQZb/feJ2yrI9Nixc34KT/gr+stydURuHW5x8eHIrG4sw0mWPvcvpKfnZ9gW2Hysk6vW3yb8xX66VvItHhy1+MdpVR/QUxL/svpL0m4uU9RTnpPVh8TU5uaaNOfMpNFTV2ZnGnoqemPqvxwOgYX3JT04Pf/4qN/qTQa0JfA+wbidDKPeOIXBMyb4FHOIAYLylT50K1ML4+T8XZ9ug3hE2OhwfIT7XqizjYWmoHpiTJLe9vGnCFEMv/UDaywWZ/mkfZvuTrLJK8mtUBrl0YuS7AiIuTsuLSfRx3wDdIP0lX/nB/3viv7GT7Zw3JNLFBWbiImfW9wdGaah3uZr7SiLOuW8TUpQCDhImd6tWhTILiynJRMo75SGzLlI1Ux2bTA6KipK0Omu96+JLmMjXt4iH+PbCGJLvC82GcSUw+/bsww07G6vCtJmiUwKWNeOoleRKr0j8mZDPlrhUHmiX6WfihdP9Guh+lsBsCAL59HGa+6PlGmurPHoF58yQmT2Mm2ZRCiaFtQTKAWv4X8/6SsvAyIerxtmd332Zd34QuIWJnNxH1FeO7Es9NppUOpf8h8r/KzI3B7REwXC91uHh+R6SRWS9qRx94494lMHNtl3DAk0uwt7jFWscWen+QkdWX1kbExbWvRIbTNpJyszubeRVcvE7dBJTcq1PcJ3oIt0l5et07OlYBhIFsPJPUjRomBBjGQW2HEdwtZYB98JXmwhFOzuv9ZHE6NKQhaMiG60kcs+7PY03/034sgIAiIAWKAGLgQA251Wq5Ynkq8GpxAtIQnrCo/a5UQK8OZFVfGmYsFxEDLGLhwEGHgWw48dSM+iYF/wECcMkDS1BLxpi7kA8QAMXAQA3TcQceRiPwDEWGs2F6JAWKAGCAGiAFioDEMMCCNBYQknSSdGCAGiAFigBggBoiB52CAZJpkmhggBogBYoAYIAaIAWKAGDiIATruoOM4Y3zOjJGxYqyIAWKAGCAGiAFi4CoMkEyTTBMDxAAx8GgMmL1ur9/+7dE+OoNEVPoZL5tyC0T2LT/fbs5oe+2X0RrQe7MtkNlEfUpP5fO6UmbbP91sDwbY2ingW33oMbL1+a2232nXnRhDLHHSqThkIbt12J0yW/hKfstsjXf64FpJ8k6vPxro7sSGBvNJPCJdK3+r8TNkD+0V3djWeNEBJ9dO2Oye4E/byrASQ5/gj/detap8RrktAQEngg1zvB9r2ngps+Ufc7IhJiH9Vof8rT7UYPlbbb/PrnsxZmOKQXYa+s0O706ZGjJq9eo2da8pr2XZe7GhwbymT7hG5qNVaRDxzDH0p8beTAzEBNWfXIljwbOkbfso9bN0M8eE544Iz+qUiV3BrinxZ7xF5foJgv893aM8nNx6aKKU0VdrF+Va70MbCm4/rjbXXzUsykSAWvlHNLjixv/f6kNhe7Fj/1bb77RL+PlyjLm6QEj3HpffKVPEl/CNkXGr0n36/Q/8fzk2NJj/Lz8fXpX247HuOHE1Dkt+AD4TUtgPU4HIP4RMw9bUrs4ekZ4SY/jP4HRY+8E8DcMEYxrF5MKW836ni3w+bvz8GJMlrLb/fTvBzxLDZIZOmWSFK/GPBHJpMPtWH0rbS9ffavuddknfXo2xV2mVSa5c3SlT2aEjLukKo1/xGvs4LWVKnsqZe81q4Tj3nZCd8L/rt5WP4E3aV0iTmWas0uVXH88bD67GhgbzEqsfXSv97OvYWpXWxkLzRAMySPnLkUSvy+ZnSjpfSNGZCuVtk2mNXebJhV8Bh97jOE8JMbVxRfrOsmpebd/Krtds+pJkdVqS7jVerb2jnMhjAjeO85jovOnjyj6DZZ3XB93sy3YU13SOlCGZDg0kmUjIztfklPtOW6y8ED/b+NH4J/jfr+p4YicGDU05Ghlf152rzpq6vF57nyVCZEiQIcUiHo4AxCQXAzpWxyaTulWur0x0+nGax17U83rNhtSkxELEL1ePpn3J+9bkxI41mrifJSP1Oee67OdQPvqlQqpETSzgg72ca4OjT8m07yf9p5ysRZgo266xy8Q0mcR1/VAm02OJ1Cs4S0qmzWQU7SC+N2rryXhiV6YxcV1WrWHngLJIpqMn5AH7EV5iX/+ATDsGn9WB/nI5ErAtDGZ3xkLaXrq+U59vrUv69mqM+bqiQa/QYd8p4/Xa+wQBza2qlXS1g7Xsk7UDd0kOK9r5HNhS7PZs0v5eKv/OdqHVVS9X8vMSM8Q8JW22/LpYwE97ZFqv96JfdI8giv57n/e+Tk0q2a6zq4QHX6//NHYbYv9BKgXs8pMD85mbjKZ6I4VD1rnYa3QPqSDL915nfhbwVeirv9RfDTlhNTN8zauOlzLRjHDlHwHeYuf1rT4Uthcb67fafqddws+XY8zVVSKfMs53ysh6t66hUx2ZTomYduAuyaWEYenvi7ET8d2ybe+3Yvn/hNU9fXW/l/zs/ArbCpMXuyONfmLzX2Qafsi3pZLtOowV8ZDgzY9p3v74Sc2C3814JZMEk7qSxMWUHxHuNGVG2Iu4vn3bFN8num/qRNmIu3yhr5TgvAUIbmboHxubRzNypghdKbPkS6ITS/2zxLPceX2rDxfbyw31W22/067Fz9djzNaVH9wXPRDvO2XK+Ip1MgN2Jp0CuuLFpr4T6ReOAMTkQTtwl+U0j+C19tTIXY8NDeYRD/gGRGlrq9A4bmU7y37GPXsYrIkFyspNxKRuBkefpnmINDhTtlnVnZa8/DD2l23X2GVIckpo+2Eek20ujZx7J8JcZ9qP9EH2OiHTkInbYlcYO+XEoGRv6XsthiiXjVnA2WP905jipRdtpKMpY2bJdjBO4udm0FHOcK6z/VYfSpyUrr/V9rvsuhFjZgDMrB7Jx+h3ylQPAoaYrCe8lnRha7fJtmXzMpZctQRRXF7AWtpzXFZeBkR9iFaB7L7zvrwLX0C8ERsmFhrMO532iOlWbFV+zk6Gkv4ZhHvAS3d7sdDt5vERmS7ECpMOmWOvsl1pVxfZ/p6nJD87tUfWrY5fYtfSV+TbVPg9uW9pc8ukJu5rzpicrfGxhUP+1rS/mlYuGhAIJMaKGCAGnoYBEISUCFgyzVjeEUtL0OJJyBX1nhpTELtkQnSFziyTbZAYOA0DpxVE4ltaCeX3xAYx8LsYcKvTMn3jVOJFbG1iC6ub6WSmbQKBFVSuerYdI/ImxmeFgdUXmx0THUh/EQPEADFwHAPy0fU5ebzHdWEc6TtigBggBk7BwCmFkIBzdYgYIAaIAWKAGCAGiAFi4Ocw8AeO5J4OwrtPTgAAAABJRU5ErkJggg==;" parent="1" vertex="1">
          <mxGeometry x="65" y="500" width="723" height="136" as="geometry" />
        </mxCell>
        <mxCell id="lHg3y_46yC8aJabjndZl-27" value="" style="shape=image;verticalLabelPosition=bottom;labelBackgroundColor=default;verticalAlign=top;aspect=fixed;imageAspect=0;image=data:image/png,iVBORw0KGgoAAAANSUhEUgAAAqIAAACACAYAAADQ+gvnAAAgAElEQVR4Ae1d65mDIBBMP7ZiKWnEQuzjOvO+ARYXBF2MMZrMj/v0zAr7GGB4CI/H4zHxjz4gBogBYoAYIAaIAWKAGPgABuj0Dzid5J8dIGKAGCAGiAFigBggBkjCSMSJAWKAGCAGiAFigBggBj6EATr+Q45nL4g9YWKAGCAGiAFigBj4dQyQiJKIEgPEADFADBADxAAxQAx8BAONmfbD9Pf3N/0NfZ3BW2TYA6r7j76hbxYY6KfnOPqyNw7Ts2sst4v0+D4bHGKAGCAGiIFLYGCHEiCaa0QUjZ5Fho0jCRcxYMBANz2H59QpX/XDMPXqf1amO+ox+s+APfqVZYsYIAbejoEdGVhIpkWGDQEbAmJgGwP9MI3PLpHrnuPiGSvLHXUZ8ZfgihgihogBYuB0DAwy3Yfpdkz59WmD93hgNCZMCQaZ/pmPiG7LoOF0U/p/w9R3/TSMf3GasY/TjOo58vobpyFrgKFPr/WBzJA3yhYZC9jW03kGG4Y+1XvMRq8e3XPa9vNj6kA4nN3eN+OA//XIV5pP2T/ern4IaSz8Z7Hby6zpY7FdYh5JVPeM9g29UQ90aALuPGbGSft7TEbmV/zTlM5jAsZHwejfOCEfPSIptv2t4Fl89DfKaGY/DRLfRO91XxRJJzt6JFAk0cQAMUAMfAMGukgCH5MjTAnx6dy6tIScComMDalFRhra0BCPY4HwPqYnphu1Pg9PzhIyigYYDXuU82Qxkh0ExSATSYIQA7mOzxnYhnQc4RuhtyLwIFyRfMD2Tulb8vNjcmQjJzs9iNtMRE3+CaB8lYha9LHYXiJReE8T0c1YOAILAto5jIKsy/3Q4h9jOujouPRVAXekPGLehmfEXevnepkZNjZtRxkojX6SiM7lVMXp9J4882YciAFigBh4DQNxZFKImGrYQUzTEafQAOtG0CITgwQiOhOrpNFwJCGMkkZdwv+aHOYjtG60SkachCBkI7RFGZFdu26nk5MqsQlkJn5Q4kZEc9tSP+BDlCgf/aV0M/tHvVNKx/hsU5/HY7LYXiJRtffEd4srbI8Y0BhS9xb/WNJ5YFQ1x5P36dInKv+KX3P7m20nEX2tgqvEZYExytHPxAAxQAx8BgPJaCcaYU0U0XAvRoGyD5EsMjG4WfrxuR8lTEcRbYSq68L0eUnPkL5FxtIwldKpEYv5OWzOR4CXfliSnMz+QKL09LBF570ym/qsEtF5xDMnYtBn9k1mo8aDvrcQSIt/LOkcTESTUdEkf6Pt8IPu+AmmS6Ok2me8/0yFSr/T78QAMUAMtGEgToULodNEFKOP+TT6y1Pz6UigJkoYRVysxQvT4yIHEjM+9Xq9buqzRtkiI+mtXS3pQAZra6tT8yAf8KksJSj6OUy/ZiNxXe/XlspIqcU/Yo/T6w++UksGGgqHI5Cb+mzYjvxC/DyBRqz8Olg9NS86V68JgdMkXt+D4G7gpyEd+9R8Hc9ijyfjfvsliaX8ZruiHGoMYdR2O19b2g2EuAE/zJt+JQaIAWKAGDBhYP44BuvinuFjCj1NnE1PowHEx0qYPo/TpVsyaEjzqWn8v2xMhaj4D5v+pvzDHxCswX3EM6eXk1eLjMU5lnScTJ/an+vcBfLlbar5GWQ0+1hJk49AArb8I3ZBL+S3l4ginS19LLZjRFDHHrF6tugGIitLNRwxBvkU7Mj9jNeqf15KJye4qU1RvwKefTywVnRj790tkicdQFfuFCndeo+/t/XM6S/6ixggBoiBszFAxi7kbc/Vk7Hf9OEv296GFRDXmSy3vfub2KKPGHdigBggBn4GAz9j6FsY/i+TsV+2vamCxLZcK2uYm9JiT/0t5ZgxYDtADBADxMDHMPCxjG/foOgpZ+zpuW/93z39/8u22yorWTYwLyHZPI2MJPP2dYING/cs87SNcSMGiIE3YYCOfZNj2aiSWBEDxAAxQAwQA8QAMbCOARJRElFigBggBogBYoAYIAaIgY9g4COZsnew3jugf+gfYoAYIAaIAWKAGPgFDJCIsgdEDBADxAAxQAwQA8QAMfARDHwk019g+LSRPVligBhYx4Db33a5n/LtG8NGu/DxY9MhF8TVOq7oH++fRhzevtzdN+5HEVF/cozb3HscKl+QU4b+qWHDikOcKqS+RC/uz0mZuMk+/bO/wQ6nor31WN3TGkpL3Wstgwa5FrsgGw9HMaQdG9vf3Z8XW+fFMi4HfvyRzC+IZAsOI65aMEjZhc/3+fEIR+JkoeekK+x+yHv5lKF/PNaW2LBjEBUwjnhdAz9l6J81fFh/8zjad0SuNY9z5Cx1r70MHq3zS6OhIBo/uEcvjjPOtwssPTs6Vmek549E/oZy97kydUacDs7jAGdhw+7sTPMFmCiTkCf6Z19FA3KwNYVHmfUy/cv+MVeeYTS039e7T8q6Oc935WWpe9+V91a6u0dDBeM4PndJyj7u8y27j/4deHVHIItf7ntdtI1H+4rpXat+8vF4HbBF4GQ9VcpkxIv+aSsM8JeagpL7pANEmYWP6J999Rvqq3ykTQ5xGPp06ceYzQa5dx1Wh6nvlOyI/4M+jujK9Go+ezTr3D+HaYxLUUZ3QpeeWbEQLkvda0nHJGO0S9JaGw212m4ZuYYM6oykPLQQku45DeM4ly8sP+vTOn017s9Qf41DWFo0ThpH8eS1xH/odKcHY9Q64UmMpR7cyqvB/g6dGVX/jgP+T3G7Gi+l03OY/Rjthi6Z7VLHLw6LMcQiTSvV02HPoo/zjyq/zv5xGgqDbl7XlfLe4GspGz92nSu9vYYnhUAcjkCrKRPKpJXWg/6JRFQa+LniCQ10Yd3YL4/m0fb1usriH2sdh7RKpAXP/xyhVOUZDehiNCoQCKzRzQhLqgPkCg3l4zFhqnXI3nWEQNWraVpl/1jqXks6bTJ1u2I6qAMXfvM2tNgO+7bWmLq4vUJEH93USScikKZy3Fbi7ohWiGkgXS6+IFYJBrppAMakLX1sr4V95mvBjXlZ6l6Hn6FPlt51/TMhoqZ4iU5C5DrYtZzhKuI1+gL4sMYCsis4NOjzxBJDHffHY0IZzMmozwd1w1Z5L5fRWCYSO39K9nVji8Ah0YpEi/5RjTYKWoaNlkJoIRuUWS/Tv+wfK9bQQNaIaGlUark+b6UBTBqbmhxGYtJ196L7gnQk6S1jb6l/JO3jrjW7Zv1KJMTn32Y77Nsioi/b5UbhZARbrposil0rdoP4xM61ltP3Pp0kZhiNXOt8hHSTkfKGvLZ8s403Y7wSnbydpboosb2EbXMskMfSt9HeLX3wuxoFTgZKYhwNcS/ZwGeRH4V4iCNfuBaIxQJMlEkcT/9k5NRYMEsVV6xYQhqUWS/Lv+yfHCu1/+GjNiKaj+ysNIAJ1mtyxsY9SasSd0vda0mnSaZmV9AROlWItiMPld9KpAh16XuJKGzJR7pq9tWeh6nnSGC0nL6XGPpnIJclmzVuF20J4pSQLJ2+vpe81q9b+Zvjlejk8yzVRUV7IvagvzUWyGPF3i19wu8JwY965D5byaf6Tp7GT/9/hPEYYldD2G5dVN5bpEwc4qd/1LRTG/5KFZeulHFPmXWf/rJ/cqzU/nfkpjAKBd/Zp+bzOrAUl3oDZpruNDVylroXukEXjPYd8fFP3S5LGW2xHTEpdRp0bF3c9k7Ng5Bg6lymaLvOLZv4S6bTJbYrdifER8vpe0nnMTlChrWYBRxq24pEsTEvnV5+7/TIOgaYmseaWfly3xSvRCdvZ6ku8nbLzh/d1KOj8Tf4pQFNsRBMV8qhQR/YBf9rMoqp+WXHpxzD3Jf8f8Z35ovqD8kIXvbS8rfaonxdUVLGL3bXpJ3+WWJJ+yTcO2JQmCbR06SUkSnD+Ur/7KzfpMHLsOgbTmyHpD+40FPoft1bMo3ncJs2hpa1eahz3QcgEffLRnGzXhb9LXUvGti9ZC3kY7IrEADduJfssNlu+2r+JSKKdYH4aEzFYQARc/8LGduIe/Ctw4UjdSAuKKfAhdxLWgGzDoP5SHuG55Iv9+QlOKlcU/v/prHQhq3Ga6GTHzCQcpJ2JDAbMNdh7mNA6QSYYoFR5Pl9yUN877DWoE9q19+Ufpy4EfeKP0t4//FnGbDpOBMx+nHQ0EcsJ1+PAZCXtIG0jbbftW7wZC0lzO+wxZP5g9odEIo43X1QmizbX1+234FrpvlS+XvpZQKWlRYxQAx8JwbCqKgeuTuURF0MNxhFyon3tRtXjEZlo4gX8+m1/ce2n/G5DAYuo8h3NmasGBlXYuArMJBO95EAsRFn20kMEAMHYYCOPMiRX9HY0hcsD8QAMUAMEAPEADFwIgbo7BOdTbLK0UFigBggBogBYoAYIAZmDJCIkogSA8QAMUAMEAPEADFADHwEAx/JlD2BuSdAX9AXxAAxQAwQA8QAMfCrGCARZQ+IGCAGiIFbY8Dti/j+rZcu6aNG2/HRmd5f95I2kZD9KiH7Vbuv1gD1bksOv/nsEE9uSCsLytA/NWxY8ZxumvxX3AaGMnEzaPpnfwNR2AYqrc+smF2RayRjh+efECechoMN4E/aWaDFdsju2neUW0W9FzMr2E6wRbkvjcOVAosTS/QpJdhAOu/lUybd15D+2VMw/WblcoxcuQxQhv7Zg638HY+jbj+RvVFDjOMPcerOs78mcXtpNBQkduO4zTz2d/jfHan5/A183iEeP6pjuRH+iDNQiWUFYlFIKJM0aPTPvgrUsjE5Zdbrhl/2j7l+DKOh/Y3IpNm2DZsut9n87tFQKQe240SP8t9Z6SzakI24nqUX8xHc/cT1OkYWC0TWC6VMRrzon4SYb1Ze8Fc8M3o+jzjpAFFm4SP6Z189ifoqH0WTjfGHPl36kZ5hjfPN5Tz7YeprZ8U7ois4zmdHZp3dVHk8f/uFM+sbSMrbiajRdqkT1kZDrf6xjG5DBnVMUmYa/PZ4dFM/SOyR1jgNw5ikJxjCMgM/Qybn1f8pvG2kk/hPMOTze6qz3R+PFKdOHxkwkrpyHML58OOkcT1+4Qiy4InXuX45wBeHJtZGCrLCSZJJkhkBvYNgx8o5J5qFNWG/PJpH29frPIt/Ik6zOix/jrRKhATP/0YQTFXmQQwisRAdA8HAGt1eyS7yhVyZiILUDNm7bgq9kSS0lC/44e1ENPqgbnuMB+qThW+9j1v84zoHhfok5vPAcrIXiajoGsmgJ5QpjjA6m8U7x48pHd/hSdMW7PnrE8vjoi7+GfAzCBl1hDZgLJBbh7fuudQxxizNQ/uP9z/pm+sYTSKaNTQ7yNgv+7ClArOQDcqs1w2/7B8r1kDeSo18zXcgRYvRqJxwFBvzGhnDaJaMmqXxfDdRfHf6cwxqts/2Ig7lL+Xb/GMhorNec/5tz/AdRDoimo+WI728rl9ial86ia6BWJZmkeJHX4EA+/d0LPT9Xl/wvSQexbL/FT66kBEZ8SoVtgdlklHnvDL6af80FNJlpb0sB5RZ+kRXir/sH+2HtXv4qI2I5oTJ2pjX5NqI1potrb9dhojKyGCxfmjzzzlENC13XRem2Bcj2GpUNCGD6fsSt1o6izZE+ymkqz+QlfTiNclb41Dfl3WKaeg8eZ+08T/ioysBBF9aqmkAty4qm354UCZOk9A/096PQH6ZRNH29TrP4h9r4+CIy4JAhOlb89R8XgeW9K83+i1Tz1a7LHLrRBT6ltYjlmzbela3HXpuxbPFP0ir1LHQ/oDMK2tEfR59WPsJ27EdVrpGVPLzJNJvZ5iOpHu7x+d2Oi6NiFGf19/fEPOHf7DWU5NRTM1zRHQLl/xdcGq4XsxZtUX5updEGf8xiSbt9I+pF+mIQb6G9C8dhaKMb0j1dJye1vxl/xgq1BSHGC0qTK17cpROnabTr+hwL+MAgqA7X2UZrD99Jnr4fT0lvSWxaLZL1zf6HgSlUL4W5C3ILZ7rtDbuTbZbRvRAVt2+p1v+sX01fwQRHQbswyr6/C2I4Bwv6KQ/UJrbc4cxUzoYFdZ5PacuWxOa+gf6hOUeOt5uCYh0MIBTuc+Xm8w6znbw2Y/7ggD4cQAkDRZ9wfJADByLAT/Cla7/9kT02HzuFDdP1lJS/Q79D/WzHgXcIMnvsKWc5jX3ay3r+rt4pz82Y78pQKJymUqHsWKBJgZuh4EwKqqnNg8lSDesnzCa+cpo6PkYuCjhw77acVqddcP5uKDPD/I5HXmQI0nYb9ggMvYs/2djIJ1S5rTl2f6/f34y5T1Pp+d71d7fRtZLPxZDBvzHAk7CTMJMDBADxAAxQAwQA1fBAIkoiSgxQAwQA8QAMUAMEAPEwEcw8JFMr8LCqQd7hMQAMUAMEAPEADFADHwOAySi7AERA8QAMUAMEAPEADFADHwEAx/JlD2Pz/U86Hv6nhggBsoYcPtCvn9bJTb2bHeJAWJAYeBbneFPm3CbK49Ddn6z2EwZ+qeGDcHI2pX4OQM/Xf9UG26PlTPDEad0Y+6/sfRF+tVk1vCV/VbYBkpV5GVi2Uq4TyOilrKT2d9qy+nyF93i6XQ/3CluOEkKhweU6oo72XF7XW9vQKECxokl4eSHUAj7Ie/lUybd15D+aWvUiZ9T8OM2EZ+P/QUprTUa2JsTRxquxfFqMmu65r953dON8XOZe/xvKTs3bZeAV+7ruVoGr4JRHFM6YpCqZwfiAjG5aYFf6+UBYM+0wnbn6epnlEkqC/onxctmwSR+zsFPoZzXNoOvPdexvJqM1m31vnJU6Oo7Bd9dQt5Sdq6q+6ZetmNALxGHTVu+kBtUbH4WZ09+x/4L4PH7nL0gVQBf1lOlTEa86J+EWG0VTOLnHPws4tBhM+9sGg3YVedyy33SGb2aTKVBXNgb5IC3fKRNNsYf+nS5QTwHXL/r/IORZSU7ziPND0d0ZYP0fHZkbiPcNGY8l3zfmfWWslPzQ+tz5zeD7cM4zhgKo2QuL8HNOITlIVgaMvuwdKqRZeQaMsBpglELJoz6WLHxeHRTPyjb/8ZpGMZ2vUzpbOf1iXghziSicxlvLWMHyX9cgSYCYDHaUtFR5hwicUc/SyUuhCZex2fE6h3tuqPOsbxLAwwS2pfrrKuNdlr0ifZtkJAauXGExhFKVZ5BKsd0aZJbPwtChpGfXsku8gXRLxNREJYhe9dNbzZORVtwaPWLTS6cRFS1vZu6TmGqe6Y+cCQ92B4Iu/NDLqeJv6orSjq6uO0hosjDqI8JGyhXwEq035PFXQR5Kx1zXufGC/EhEVX4X9QJp/x2SiaxAS8VyqOfWSo6ymSNESoJ1aD8sn8sePxl/5xp+yIWbkQvGxENFSca3qFCUiWdq8mIXltXdI5K5KBmD0jjM5IL1PF1gpnmXZPDKGBObn3b0dqIW/CT6vRqG1WzKaQLQhlHeQujwoHYe510Wvp+1hH2gdwda8OcviOiMX2tg75/TDZsYL1uOiKaj6jb7LCkY5GBnakdi/wPjhfSb8XwQqfPkLf3Yex8exTAz8/8PY7MSBVAs6j8KJP4nv7JiPlWWSB+zsFPKQ4F36OM1xpe3WhcTUbrtnYPvduIaE7KNxr36Oea3HFENF8mBbsX9U/U54j2qWaTkJ58lDiT/zoimmNj9nHXhelzNSixhsvab5Z06jKZ/xMs4Ldj4wUbSERnDNRi+ubnH1cgadCOMRZfwen1T6hE8+kmyvQyYuJGmeifNuwRP2fgxxGwoZ/iF/phjWMLKdNxvSsRdaNsBXIAe/7MU/N5GS/V/XUScNTUPNYlbtfP0A26YIQyH90t6b32rG6Tn+bWbYWsY1S+aiSitU5DjsNda0RByoz6WLDhdVXlC2s9n+U1oi49t5xguTOFJR2LjPfRufFCniSia+XnlN9OyeQNZHND79qifN27ooxfoK9JO/1jxyrxcwp+/D5/MmU6ToPe/SKMpsV1vI64eFk9Te+InPpN5D8lo0mJ6R7ko7B2E4071ivq6dV0ahWkT3ynr4pouYZY/6bu4xSwr2/zWOBjndhJ0HXH1r2l7GDke+86Spe/zfbO7SMpNmMtKNaI4v9xej7Vh3BuaYKQY/hP7jVRtn01P5O6HTMxguMNfbaxEWYRBuyjKfb/TbWYzjqXieiwkY7TZ1Xm5HgFfEldINdSJ9dURrcwz9/X2tYNQkfnrTmPvxEfxAAxcAoG0JDnjaQnG99Zh3vikxLmyxMCkJuMvH9K52/Gxqd8ynzfVte8LeFTKmcCg/EjBoiBn8BAGBXVI5DfTDZqH2hdN9YY0dOjo58tl9+Mjeti4LMxv7Ff6LgbB49kn6NxxMCPYiCdcr8OAWJ9+vk2ldj4fAxYDppi0CTMRu9HGz0WKpYTYoAYIAaIAWKAGHgDBujUNziVhJ2EnRggBogBYoAYIAaIgW0MkIiSiBIDxAAxQAwQA8QAMUAMfAQDH8mUPYTtHgJ9RB8RA8QAMUAMEAPEwLdjgESUPSBigBggBoiBx+ROPSrsV0rffHn5cHtq3myrLJLTbyKn31rAereVhtukdhyyc5fFZsq87p/gy7A5sN4gfG687uhnwcja9Y523Utnv5fkvNm2bDpdw1lyZnhxKx2csqbS+7jMGr6y3wrbN81lLJPd20ifRkgsODzIpr2+aH7vWts3+VOjBOsbJPO0uN8tpnfVFydk4aCCi+ymoQ+w+MOhEQu/Lh58AcvGSSPP5MSPfsgLImXS/Qj3+CdgxzWQ4zSOpTOM7+hnS5m4o1330xnHSj7lKNpADErPQMhAWsfn8tQXTdauJqN127r3ujeexNNMpizYf1XGgsNX8/jQ+yB0haNYt2L73t9Xjsy8JD4+FLsv8UXXD9OIwTecuFbsaJ/tX5w25k+AA867vnhK3NlKnZAfAlE4BjB5Rpmkw4EjEJv94wquP5YN76KhXPR07uhnS4V0R7vuqHMeC3R63NGGy3qkiL/s/avJmAlIGA3tM3vM71/pPQsOr6Rvky62Iz7PjRuJ6Ln+XtZNn8r/EkS00Dkr6HUdpx0VrAWpQkWSOYMy2cjKDv8gXu4M7zACUGrk7+hnCw7vaNcddc5jUbVBnZUt0/d5x0qe6+vHZJrITVrOxCeyafnQp8sN0rPmw7vOP8PU6ymyEf+H+t8R3e1pXDfdF5c2jNVzyUXH0rUawzeMJCIvH+9124dR5P6mvzCa5HRHvQjfjUNY0oFpxdnfOJc9txH1YIKrQqwhg3S35PK04//dc6rqvMhvhYha4m7KCwMRyoeYfh2ywY2FXop7GP1sxfzj8aI+UVdLOtsyn8AhsFIgfAu8RkyJzcZYLN6T97OrLu8zRsJMV8jrYU3sTnLa8Kg3DFaVBmUOIKIORPOU/rcQUansNGHxjdEzFmLi53X8WHwYy2+o3NYq1hL+8vevJpPrV/sfepdIC56DJPWdikdx1BhkBLKjm7Kr5fN41EkLGpGhV/m4abbBkdF6eopshBjuiXtL+kvZLdu7qRNCDh1BvPQHW46sBdsDcXN+yOWUfVvnzbu4vUJEHxs6B128L+oxnX21JmPIC20BZiqiHz05K2F2zjPDhtHPJswfoQ98aEnHIuPicS4O4ee1+rIaB+hqjMVqGgGDsbwrPyV6da5dzcAQXrZkcFWZaLi2BU4gEXVE6kj/LMiaWwsyY+rIvBaV2ptiasH1He26o85JLFA5VqblIYcGarE0RNcBF5RJ7Mt01b+hc7TA/4o9y3W0a0RjLq91IopRwHTdveiXNCorNoi8BYcie8x1w3Y34iejwXKdO9iuUR6lE6rT0vezD2HfFhF92a4tnZM4lPVMdViRMeWFdb/piGg+Mp/mN/srPg/l2/+v9dH39XKeYv4AfZwPLelYZGBvake0W2K15Wejf3S6rWUzvrsjr/iu2BOuUt5duQgcLNHrW4loPg0PB4kzorMyEkOZbBrF4p8McEUiYEnnajKZXREz+vnVdP5WfZTPF2VY/YYYFfF3cZkitjKdxbY2IpqT8o1GMOZZkzuOiJrq56hPgbA0/1azSchBPkqcyTc2yq7BjcT1CP3zNKDfhs6JjzJ7kt8k7ZpMa14+va4L09Vq8GcT60Y/18p57Tny3aVPwU+WdOoyNR/DZwY/G/2j/ZwQvoI9Wja535FX8r7Ka663U8Ie67OvJaIPfECj1z+hElU9XOckyszrw/b6Ryoxfy1XBHf0c2pXuYDd0a476jzHYqtSLeNvfh9xvJpMGVupzpBx5KbQqMMe+9R8Xgcu81kbtTlqah7r97brZ+iGxhkjlMudE6x+83IrBAANLqbhZUpZCFQ+NR+JpU5L38++RExiI6saZK2zi9veqXmLzkm+ZT21PtW4G/PyNvdqpxpsH5QNbiQ6zf6KehjJjwXzLfrMsait9123y57XShwsfjb6J/rz1an5BszrPBf3hUGSROZ7iSjWOIBchWkWTUp1YaBMXIgfK+JW/0DeFSKZ0spHYm4aC+2H2j3x8zp+LD4UjFWmhh1Jc4RlxiCWjOhp+qvJJBVxDV/6uTRU+lkk1tlIQ7J1HUhf6he/nCYlpWUZkFyZkvbEwe9NKOnt+1jJ2W6JOxqwvWTN+clme+f2W5xtGnqsEcX/4/R8ho+V3PpaLE0AmcBv8J/ca6Js+2p+Jj/pmlsrLlZ1DqTaElOLjCUv2DMM2LdS/PjX9iFbiLXDpivn4tuln11e2JpILQXIlwG06DPHokxEt+zazutkHGpf6nhkOwlVsabf34hFNY2knips3yT1SsjrKz9Wsjmn0CNLnMff6UdigBi4DgbQ4OUjba4RXG4OHT+qu3P8PEFICfPl7UHDKo0s25O34PCbMX95fO/FdLL+VXfcYv0ab94Cmq917N6A8D3ijBggBvZgIIyKpgdRpCO/31TfYrQuJ97Xtg8jX8VGlnjfg/fKOySiX8nZvtIoFvxKIb52RU4sMj7EgBUD6bQqCZDVb5S7bxkj5u8bu41y97WGkYySjBIDxAAxQAwQA8QAMQAMZN9z+PXi87pe//9HOk5DyRcAABFPSURBVLUkohtMnQBmJUYMEAPEADFADBADxMB7MEAiSiJKDBADxAAxQAwQA8QAMfARDHwkU/Yq3tOroF/pV2KAGCAGiAFigBi4EwZIRNkDIgaIAWKAGAhna+vN3NmYv6cxd/sn2remwkc6el9cYvXH66tG/NwAL98a0N5tpeE3yB2mp5yckVSslHndPwE/YWPacmV5Rz9bysUd7bqXzn4vyXwxfa1RVodYuA3IS4vuryZjwVmQKWzfdHgDc6kGDqfzYJP0UhzFb2fiWfI84NriZ8ju2pv0OttJSTkutw8H+DNp138gvRb83MM33xg0nLqAUzBm2/oh731S5nX/BP+6BnKcxmKv/Y5+nnFTb+jvaNf9dMaxknknsvQMcUJjNz6Xp6PoGF5NRuu2de9133cSz1baV/u964dpHIfpiRN0qntznolnS53wHpmXRkNBWApHw34i3sCvhYjOZ5O/x5+fsJ15bsZyU+A9UxOKJB4eJFRi2XFWC3BTJonrLv+4GPrjy+DvYkVzRz9bsHlHu+6ocx4LdHoqR30W8Ze9fzUZc90XRkP7zB7z+zd+r0pEz8Tzp/y3ezRU2nXbkaNn4MhS9qDHoi36lO+Zb8IR3owRAez3XItAznqGlMlGVnb4RyoN6XGXKpo7+tlS4O5o1x11zmNRtUGdqSx74yWdUeD7SjKNjRzslnImPpHNvYc+XW6Qn7vt3nW2D1NfO+PdEV1ZApHPHs1tg5sqj2fXv3DWfIP9NSJaxYIaATxKRnz+8tXoZ8lnbTTUGgvUy0lZKPgeMigfW3Ki1+Ka2CU4StPz7QNGscdYFhOsVtL4WyzNwKDHnAZ+H4bR6y7lfBymweF0nHT5GDNs+DphvVwMo8orjNI7+xvyWvhLx6AlncRH5XJqKe8WGei8hTFrOqv2e1/MlYxB+EyGvDuvoyofprNOVh+uAM2F4VuIqDTwC+Ki1mkRG+vYOMo/eZ1UIyWu0jRM/ZUwmudxpkyed+1/6FQiCXj+N6IhVfFAY7UYNe6nQdbN9kpWN4juHnJzmdb6oPEfsnfdFLpq3LV87d5SvvS7tZgfhTFLOlqfY+7rfo7po35dxNG31y2xgH1ba0wdjl4logoHkme6/AsEdXTLLcTGrl9itRgPjVPxS/zuwxPTWD4cWQtYDcTN4RbnnS+wvVUuuqmL+fgN4ZM0mvJa4VrN6WzhZ8su6LIuY8fYejoS643rinN08G90XwQywJsVlAhcsY0ykfxbfbgga3/pOiBrOleKxUaBcT66o1131DmJBSrrSsMMuTMJ5FF5JfZJPVS4grwtysiKzWhE0rW1Ww2XtAM1OYy6puvuRfcaUZTfX73W0j8Tz6/asHy/5meJw2Oqj4a2xQJ+2iKiS/1mPVp/A/ZK5bRWZvLnxbgmZSIdVQW5XYysxkED7Wd9L/aVnslvgXjGGQAZ6VUdtVAneR/ptPS9Si+xQz1vTmcr/a3fkfeaTAvG1tJRNtZs98/NgpGktALzdPmMUCL/Bbgpk8Rzl38yYOUViov7Hf2c2VXE7x3tuqPOKhYLjKrfEKMi/i4uU8RWprPY1kZE0w7heqOj24Bao9LSMOn0Xr+vEVE3I6MGF+CnBUaOwnwhJtbYleVqfg7+gt4V4u9iWfmt5Cv45Bwi6j8s09Pf2vZa+cw7TYsYbvi+68JUvWChidStxQG/pSO4i3LUlNdKWWhOZ01v5LP1+5ZMS3m35LViu4/vpkBCWDSwrnuPAoHpqmCbWxelejHOcMq87p8UO+WK5o5+Tu0q4/yOdt1R5zkWpUZWx6aMv/l9yF5NRuu/du/IhDS0qmGGPfap+bwOTH3j8683KvapulK6+5/V434mnqE/fBOml6VtUbFYi9/yt7qfIbuF05ZYIK1SJ0br5HD0ytT8A7HI8sk6AT6PlNh12J4rI9WOiEasYwsvrNEc4i443p4+/v94eJloYxOpW4kD0sFUvsRaCK+e3m/Ka6UMNKezorfD5Nbvgud6nWDHmCWvFdt9GdoUuCERxZA6GH0YStekVFcclPGLxl/xD/zpCqxMW+QjMTeNhcZJ7Z74eR0/Fh8KxrIGSxpSR9IKHyLprWKuJiO6m6/SKGZYRKOM9W/VD0ACQVguoUkbIOu6Tb+vp5T1N36sBBJTiGkkG+IHC36Okgk6LXQQXQxXk58DKdHrK0s4scXC9tX8q0S0Vr5kOZzYvY5V4SKq7QY5xlaMQgaFpA/YX1ZwCJlATDVuXH0BkgQ54F3usWzFE+clxtJy4YhyzAfrTrHOFOmN0/OpMLqal9hVuZp19ss1ljqjM/oMPM1il0XG67qOMXs6JfxmzyrOMRSqLKF7ElbaybgRA8TADTDgR4LSD408EWUdfkZb5MlaSlTeke+hMQXJiSSFOHlHvJjmIbg6JBE2ZDdoyFhgiHVi4MYYCKOieqTsUNLCOmy1HVtMPV/eXxixyj9auzH+L+9v+vaF9oXOe8F5qxUX0yW2iAFi4F0YkOlOP1VHwvEuPzNdlmFi4O0YeHsGJGvsyREDxAAxQAwQA8QAMUAMlDBAIsreDjFADBADxAAxQAwQA8TARzDwkUxLjJjP2FMiBogBYoAYIAaIAWLgtzBAIsoeEDFADBADxAAxQAwQA8TARzDwkUzZ2/mt3g7jzXgTA3fAgNvT8P1bFP18Y9/oZ3yYpvfF/Xn/3aEsUceWOv9biWjvtq5wX5SOQ3busthMmZf906uNhb/Kz4KRtSvx8zJ+HhYfIgbpJtd/xW1p7iizhq/st8L2TYcTkkaCdHj+SeONE3NQv6ztCGDBz1EyWTwSXRt/a/EzZHftBcrtm96Lz8aYm/Biwfw78v14mh9XoIU1G2Vx0shTHQGGI9PyXj5l0v0Id/gnPwEEJ5jo489cwbujny1l4o523VFnHwvslzk++9Xyf0eZlobS25duaN/y/p1kO3Rw0bHFqVHFTgdwcSaeLXXCe2ReGg0FiY3HZb5Hv4cj1fMpR347MX/aUcRcRcZ3ZOVUIK/f4jQjnGAkNljSqcjg9CXRJ9n6zJ2KlJ0SBOJfSSfR2XUOS7an/EPyXbvaMP+mGJpI8lvzfmviMfBrATj8N1Riz7TCdufX6meUSWJzlH8WG2zf0c+WQnlHu+6oc4jFAleFGN1Rxlz3hdHQvmC3OY2bvlslomfi+VO+AxnaNRoq7brtiM+XMRQGJWI64QjNpB3OZeDT/BliqghjPKo7efZ059PHvErp5OkW9Fm0eY/HtHiWp1PKyx0dmg7kIB3ETQ/2JPpu4KmK+Y33WvK4mKwA9nuuCzAheCjQCsyUSYn6Hv/46VJd2NCrHJLCd0c/WwroHe26o861UYmkgauMXFxaprFBQex0/QWMyqjO0KdLEtzZ3Cp9966ct107dx0NbjxTO21UdXlwU+WjjAC98ax5pX+tUT4Tz9oHL90b/Sx5rI2GWmNhGUmHDEb6kjKjYiD6VK8lwpa1uZp0xthl7zmsgsCps+XztsmSjpaJOuf6uOU+y/Yr6ewp/Wo6u3ZwMROIWdj963prmI+2tMTmHrLfQ0AlSBEwOgAZCClzBBFFDxJTaKNbxzWMw2JB/R39LA28TDHFqxqZuKNdd9RZyrSlUr+jjNi3dYVtJZKA53/jMPWdKs+h8UxHY7BsBrKjm+6u51daXuPbiH4Yp6FX+WAEKR/B0nVu5d5SvrR+tUb5TDxrfY65r/s5po82qzKq1hIL+GlrVNXh6Egi6jo8wIviF8Bl7OyU8QzbfZsyd3aGZ58MbjiSuZWOIpDOnyV9HhlZzDiCf8+iczmWRXxWykSMefi9hvlc7ov+V0AxOunqxhcBkIGMMmmDkvc6Lf7BO8k0ihulST8ssKRzNRkLvq+m87fqI7G4I8m06Cz2bV1B3mpENGnsQx0OovLUo0qF6cNynuVGdTn7Mbcb7240a+mfifmyr2YftP9e8/OcZn00FCPgeiRPv5PH3U83bxHRdv3nPN27Gcn8wwdmWadFj1IWY1fiH13nRhaT2QBFMqvpWPRBfooXFMurJa9K2arqVrIze1bD/MtxyvK5UHoZoK6raLKmcdWBClwitwAFZRJ/7vHP4p28hwks3dHPljJwR7vuqHOIRbGRyOJ0Rxmpn7ausK2NiObTgtvEx+tQk2sjP1v2tPxebZTPxHOGtRb9y7I1P4f2GLZVyGZrpwD19ClEVM0Y9c/RreNMRuUVqSv7BMtNlkRaE1j3niGd/J2iPi6mfjlZ70ZMC+TekleFiFrqoyY/HI7BS3G/SymTkKNakLafC7iCbQ5k+bonyvQyYrLXP2FEdK5s8BVrvlXWHf1sKRN3tOuOOvtYWCr1O8ps12Xefkcm1Bp3eQ8226fm8zqwhPM6QWqZDhb9jrgWyUlCIoIde+sxfH3vljespYPf4BtMGRfIUjNJqPsZPtvCcksskFapE6Nj43B05NR8+PCnNpKp89bxdcs2sjWiiwGPCjnU6eREFPnVypBLH8vL9MfMEk9LXgUi2vX+g6q5bSyVtfqzxBbR5buvdWdosNzu3lVKYZ2JrmR0MCnjFqj7hqyAA4N/3BqxuF6nUkEb0olfRyKtK8RL46R2f0e7bqazazwivmTdWDrad0eZ5voUDWL1gwh0AEdflkEmkq3rQLJmv8X1zllaZRmUxXRrHb+vp6T3xo+VMCJYiPuCLJyJ56DTQoda/VB4bvJzID9bJMYWC9tX8y8R0SxW81IRwd4w9ZlMGtu53XAEzO0dKxhr2AZKOghZXkV9dGxc2Zp1iGUzS6eos3t31lVk0jJYaFt1/nJfye8VvEVbJI/rXo1Ouq4BB42i0g83Ai1jzvL4cxgojWzh2dzQsg57Zx3myZplVPm1OBwaU5CbrDPxTh8x7ddi/8P+o+N+OPg/15gz1izvt8VAGBXVI2WHkhZ2blbrQ4xm3mt0CiOShZE+xnk1zretH+4dVzZMBB4xQAwQA3fDQDrNS8Jxt/hRX9Y5xEDEQLxhL+HePQrGj/EjBogBYoAYIAaIgbthgESUvRJigBggBogBYoAYIAaIgY9g4COZ3o2tU1/2MIkBYoAYIAaIAWKAGDgeAySi7AERA8QAMUAMEAPEADFADHwEAx/JlD2K43sU9Cl9SgwQA69hwO1l+P4tin6+sW/0Mz5M4zZd5CpfXG6+Nbi927rCbTA75qf9iM2UWfdPN/lNk9e+yP1WHwpG1q7favuZdp2JMcQSR1WqDaiL29ucKbOGr+y3wvZNhzdMjQTp8PyTjsSZ2LBgPotHomvjby1+huyuvUAvtn1Tsvn7ezs7fs/Xu2231YihV/B3vXe/0XicNJKeG9sPOfApk+5HmPrHnZgEAt+vVWbf6kNLmfhW28+z61yM+ZiigRqf/eqo4ZkyLUTO69Wt6t6S3pVlz8WGBfOWOuE9Mi+NhoLEFo6GPTT2jlSrzp2ciIWjOouEZ/1406N0c0d3lo7tLOpUiF3FrjHzZ7qN2nLkWn7P96CNJ8Lt6mQU9LXadU25rzNoeuAM9AyAC1BSJmnQFv5RYK1uivytPlS2VyvFb7X9TLuUn9+OsZAXyNzWFOeZMlV8Kd84mTAa2ufPf+D/t2PDgvlP+Xn3aKi067YjPs04rPkB+MwIVf8cKyT4JkQUtuZ2df7Y0pxfwH8Op8+lH9wsTDi6eibmPp2/7Kjdl+NQi8/1nwtgv+daJFVZz5Ay2chK5h9dIGoNwbf6UNteu/9W28+0S/v23RhD51TOgdbXpEE5U6axYUBc8pEtGWkZ+nQpQX7OtXvXjVINU187m904beqW6sSlDW88a175593YsGBeY/Wle6OfJY+10VBrLCwj6ZBBuUjKg4qB6FO95oTtgWUVYyW9dSJqscuNmMvIK/QehmnMSJ2PK5ZczKO1zfYt7Hq4ga68LGrCusSrt3fQnWB0foZhGjKdq/5ticUNZf8BNjYg+JnNpQ4AAAAASUVORK5CYII=;" parent="1" vertex="1">
          <mxGeometry x="65" y="636" width="674" height="128" as="geometry" />
        </mxCell>
        <mxCell id="lHg3y_46yC8aJabjndZl-28" value="MemoryRegion(地址空间树形结构)" style="swimlane;fontStyle=1;align=center;verticalAlign=top;childLayout=stackLayout;horizontal=1;startSize=26;horizontalStack=0;resizeParent=1;resizeParentMax=0;resizeLast=0;collapsible=1;marginBottom=0;" parent="1" vertex="1">
          <mxGeometry x="-1075" y="390" width="350" height="384" as="geometry" />
        </mxCell>
        <mxCell id="lHg3y_46yC8aJabjndZl-72" value="+ Object *owner" style="text;strokeColor=none;fillColor=none;align=left;verticalAlign=top;spacingLeft=4;spacingRight=4;overflow=hidden;rotatable=0;points=[[0,0.5],[1,0.5]];portConstraint=eastwest;fontStyle=1" parent="lHg3y_46yC8aJabjndZl-28" vertex="1">
          <mxGeometry y="26" width="350" height="26" as="geometry" />
        </mxCell>
        <mxCell id="lHg3y_46yC8aJabjndZl-76" value="+ Int128 size" style="text;strokeColor=none;fillColor=none;align=left;verticalAlign=top;spacingLeft=4;spacingRight=4;overflow=hidden;rotatable=0;points=[[0,0.5],[1,0.5]];portConstraint=eastwest;fontStyle=1" parent="lHg3y_46yC8aJabjndZl-28" vertex="1">
          <mxGeometry y="52" width="350" height="26" as="geometry" />
        </mxCell>
        <mxCell id="lHg3y_46yC8aJabjndZl-77" value="+ hwaddr addr" style="text;strokeColor=none;fillColor=none;align=left;verticalAlign=top;spacingLeft=4;spacingRight=4;overflow=hidden;rotatable=0;points=[[0,0.5],[1,0.5]];portConstraint=eastwest;fontStyle=1" parent="lHg3y_46yC8aJabjndZl-28" vertex="1">
          <mxGeometry y="78" width="350" height="26" as="geometry" />
        </mxCell>
        <mxCell id="lHg3y_46yC8aJabjndZl-71" value="+ RAMBlock *ram_block" style="text;strokeColor=none;fillColor=none;align=left;verticalAlign=top;spacingLeft=4;spacingRight=4;overflow=hidden;rotatable=0;points=[[0,0.5],[1,0.5]];portConstraint=eastwest;" parent="lHg3y_46yC8aJabjndZl-28" vertex="1">
          <mxGeometry y="104" width="350" height="26" as="geometry" />
        </mxCell>
        <mxCell id="lHg3y_46yC8aJabjndZl-78" value="+ MemoryRegion *alias" style="text;strokeColor=none;fillColor=none;align=left;verticalAlign=top;spacingLeft=4;spacingRight=4;overflow=hidden;rotatable=0;points=[[0,0.5],[1,0.5]];portConstraint=eastwest;" parent="lHg3y_46yC8aJabjndZl-28" vertex="1">
          <mxGeometry y="130" width="350" height="26" as="geometry" />
        </mxCell>
        <mxCell id="lHg3y_46yC8aJabjndZl-75" value="+ MemoryRegion *container" style="text;strokeColor=none;fillColor=none;align=left;verticalAlign=top;spacingLeft=4;spacingRight=4;overflow=hidden;rotatable=0;points=[[0,0.5],[1,0.5]];portConstraint=eastwest;fontStyle=1" parent="lHg3y_46yC8aJabjndZl-28" vertex="1">
          <mxGeometry y="156" width="350" height="26" as="geometry" />
        </mxCell>
        <mxCell id="lHg3y_46yC8aJabjndZl-79" value="+ QTAILQ&lt;MemoryRegion&gt; subregions" style="text;strokeColor=none;fillColor=none;align=left;verticalAlign=top;spacingLeft=4;spacingRight=4;overflow=hidden;rotatable=0;points=[[0,0.5],[1,0.5]];portConstraint=eastwest;fontStyle=1" parent="lHg3y_46yC8aJabjndZl-28" vertex="1">
          <mxGeometry y="182" width="350" height="26" as="geometry" />
        </mxCell>
        <mxCell id="lHg3y_46yC8aJabjndZl-80" value="+ QTAILQ_ENTRY&lt;MemoryRegion&gt; subregions_link" style="text;strokeColor=none;fillColor=none;align=left;verticalAlign=top;spacingLeft=4;spacingRight=4;overflow=hidden;rotatable=0;points=[[0,0.5],[1,0.5]];portConstraint=eastwest;" parent="lHg3y_46yC8aJabjndZl-28" vertex="1">
          <mxGeometry y="208" width="350" height="26" as="geometry" />
        </mxCell>
        <mxCell id="lHg3y_46yC8aJabjndZl-30" value="" style="line;strokeWidth=1;fillColor=none;align=left;verticalAlign=middle;spacingTop=-1;spacingLeft=3;spacingRight=3;rotatable=0;labelPosition=right;points=[];portConstraint=eastwest;" parent="lHg3y_46yC8aJabjndZl-28" vertex="1">
          <mxGeometry y="234" width="350" height="8" as="geometry" />
        </mxCell>
        <mxCell id="lHg3y_46yC8aJabjndZl-73" value="+ const MemoryRegionOps *ops" style="text;strokeColor=none;fillColor=none;align=left;verticalAlign=top;spacingLeft=4;spacingRight=4;overflow=hidden;rotatable=0;points=[[0,0.5],[1,0.5]];portConstraint=eastwest;" parent="lHg3y_46yC8aJabjndZl-28" vertex="1">
          <mxGeometry y="242" width="350" height="26" as="geometry" />
        </mxCell>
        <mxCell id="lHg3y_46yC8aJabjndZl-31" value="+ memory_region_init(mr, owner, name,  size) &#xa;// mr通常作为container" style="text;strokeColor=none;fillColor=none;align=left;verticalAlign=top;spacingLeft=4;spacingRight=4;overflow=hidden;rotatable=0;points=[[0,0.5],[1,0.5]];portConstraint=eastwest;fontStyle=1;fontSize=11;" parent="lHg3y_46yC8aJabjndZl-28" vertex="1">
          <mxGeometry y="268" width="350" height="38" as="geometry" />
        </mxCell>
        <mxCell id="lHg3y_46yC8aJabjndZl-98" value="+ memory_region_init_io(*mr, *owner, *ops..)" style="text;strokeColor=none;fillColor=none;align=left;verticalAlign=top;spacingLeft=4;spacingRight=4;overflow=hidden;rotatable=0;points=[[0,0.5],[1,0.5]];portConstraint=eastwest;" parent="lHg3y_46yC8aJabjndZl-28" vertex="1">
          <mxGeometry y="306" width="350" height="26" as="geometry" />
        </mxCell>
        <mxCell id="lHg3y_46yC8aJabjndZl-96" value="+ memory_region_add_subregion(*mr, hwaddr offset, *subregion)" style="text;strokeColor=none;fillColor=none;align=left;verticalAlign=top;spacingLeft=4;spacingRight=4;overflow=hidden;rotatable=0;points=[[0,0.5],[1,0.5]];portConstraint=eastwest;" parent="lHg3y_46yC8aJabjndZl-28" vertex="1">
          <mxGeometry y="332" width="350" height="26" as="geometry" />
        </mxCell>
        <mxCell id="lHg3y_46yC8aJabjndZl-97" value="+ memory_region_del_subregion(*mr,  *subregion)" style="text;strokeColor=none;fillColor=none;align=left;verticalAlign=top;spacingLeft=4;spacingRight=4;overflow=hidden;rotatable=0;points=[[0,0.5],[1,0.5]];portConstraint=eastwest;" parent="lHg3y_46yC8aJabjndZl-28" vertex="1">
          <mxGeometry y="358" width="350" height="26" as="geometry" />
        </mxCell>
        <mxCell id="lHg3y_46yC8aJabjndZl-32" value="AddressSpace(地址空间管理)" style="swimlane;fontStyle=1;align=center;verticalAlign=top;childLayout=stackLayout;horizontal=1;startSize=26;horizontalStack=0;resizeParent=1;resizeParentMax=0;resizeLast=0;collapsible=1;marginBottom=0;" parent="1" vertex="1">
          <mxGeometry x="-713" y="60" width="320" height="300" as="geometry" />
        </mxCell>
        <mxCell id="lHg3y_46yC8aJabjndZl-38" value="+char *name" style="text;strokeColor=none;fillColor=none;align=left;verticalAlign=top;spacingLeft=4;spacingRight=4;overflow=hidden;rotatable=0;points=[[0,0.5],[1,0.5]];portConstraint=eastwest;" parent="lHg3y_46yC8aJabjndZl-32" vertex="1">
          <mxGeometry y="26" width="320" height="26" as="geometry" />
        </mxCell>
        <mxCell id="lHg3y_46yC8aJabjndZl-33" value="+ MemoryRegion *root" style="text;strokeColor=none;fillColor=none;align=left;verticalAlign=top;spacingLeft=4;spacingRight=4;overflow=hidden;rotatable=0;points=[[0,0.5],[1,0.5]];portConstraint=eastwest;" parent="lHg3y_46yC8aJabjndZl-32" vertex="1">
          <mxGeometry y="52" width="320" height="26" as="geometry" />
        </mxCell>
        <mxCell id="lHg3y_46yC8aJabjndZl-35" value="+ struct FlatView *current_map" style="text;strokeColor=none;fillColor=none;align=left;verticalAlign=top;spacingLeft=4;spacingRight=4;overflow=hidden;rotatable=0;points=[[0,0.5],[1,0.5]];portConstraint=eastwest;" parent="lHg3y_46yC8aJabjndZl-32" vertex="1">
          <mxGeometry y="78" width="320" height="26" as="geometry" />
        </mxCell>
        <mxCell id="lHg3y_46yC8aJabjndZl-39" value="+ QTAILQ&lt;MemoryListener&gt; listeners" style="text;strokeColor=none;fillColor=none;align=left;verticalAlign=top;spacingLeft=4;spacingRight=4;overflow=hidden;rotatable=0;points=[[0,0.5],[1,0.5]];portConstraint=eastwest;" parent="lHg3y_46yC8aJabjndZl-32" vertex="1">
          <mxGeometry y="104" width="320" height="26" as="geometry" />
        </mxCell>
        <mxCell id="lHg3y_46yC8aJabjndZl-65" value="+ QTAILQ_ENTRY&lt;AddressSpace&gt; address_spaces_link" style="text;strokeColor=none;fillColor=none;align=left;verticalAlign=top;spacingLeft=4;spacingRight=4;overflow=hidden;rotatable=0;points=[[0,0.5],[1,0.5]];portConstraint=eastwest;" parent="lHg3y_46yC8aJabjndZl-32" vertex="1">
          <mxGeometry y="130" width="320" height="26" as="geometry" />
        </mxCell>
        <mxCell id="lHg3y_46yC8aJabjndZl-34" value="" style="line;strokeWidth=1;fillColor=none;align=left;verticalAlign=middle;spacingTop=-1;spacingLeft=3;spacingRight=3;rotatable=0;labelPosition=right;points=[];portConstraint=eastwest;" parent="lHg3y_46yC8aJabjndZl-32" vertex="1">
          <mxGeometry y="156" width="320" height="8" as="geometry" />
        </mxCell>
        <mxCell id="lHg3y_46yC8aJabjndZl-66" value="+ address_space_init(AddressSpace *as, \&#xa;         MemoryRegion *root, const char *name)" style="text;strokeColor=none;fillColor=none;align=left;verticalAlign=top;spacingLeft=4;spacingRight=4;overflow=hidden;rotatable=0;points=[[0,0.5],[1,0.5]];portConstraint=eastwest;fontStyle=1" parent="lHg3y_46yC8aJabjndZl-32" vertex="1">
          <mxGeometry y="164" width="320" height="40" as="geometry" />
        </mxCell>
        <mxCell id="lHg3y_46yC8aJabjndZl-67" value="+ address_space_destroy" style="text;strokeColor=none;fillColor=none;align=left;verticalAlign=top;spacingLeft=4;spacingRight=4;overflow=hidden;rotatable=0;points=[[0,0.5],[1,0.5]];portConstraint=eastwest;" parent="lHg3y_46yC8aJabjndZl-32" vertex="1">
          <mxGeometry y="204" width="320" height="26" as="geometry" />
        </mxCell>
        <mxCell id="lHg3y_46yC8aJabjndZl-68" value="+ address_space_rw" style="text;strokeColor=none;fillColor=none;align=left;verticalAlign=top;spacingLeft=4;spacingRight=4;overflow=hidden;rotatable=0;points=[[0,0.5],[1,0.5]];portConstraint=eastwest;" parent="lHg3y_46yC8aJabjndZl-32" vertex="1">
          <mxGeometry y="230" width="320" height="26" as="geometry" />
        </mxCell>
        <mxCell id="lHg3y_46yC8aJabjndZl-99" value="+ void *address_space_map(AddressSpace *as,&#xa;  hwaddr addr, hwaddr *plen,..) //物理地址-&gt;host虚拟地址" style="text;strokeColor=none;fillColor=none;align=left;verticalAlign=top;spacingLeft=4;spacingRight=4;overflow=hidden;rotatable=0;points=[[0,0.5],[1,0.5]];portConstraint=eastwest;" parent="lHg3y_46yC8aJabjndZl-32" vertex="1">
          <mxGeometry y="256" width="320" height="44" as="geometry" />
        </mxCell>
        <mxCell id="lHg3y_46yC8aJabjndZl-40" value="FlatView(地址空间顺序结构)" style="swimlane;fontStyle=1;align=center;verticalAlign=top;childLayout=stackLayout;horizontal=1;startSize=26;horizontalStack=0;resizeParent=1;resizeParentMax=0;resizeLast=0;collapsible=1;marginBottom=0;" parent="1" vertex="1">
          <mxGeometry x="-380" y="397" width="160" height="138" as="geometry" />
        </mxCell>
        <mxCell id="lHg3y_46yC8aJabjndZl-41" value="+ FlatRange *ranges" style="text;strokeColor=none;fillColor=none;align=left;verticalAlign=top;spacingLeft=4;spacingRight=4;overflow=hidden;rotatable=0;points=[[0,0.5],[1,0.5]];portConstraint=eastwest;" parent="lHg3y_46yC8aJabjndZl-40" vertex="1">
          <mxGeometry y="26" width="160" height="26" as="geometry" />
        </mxCell>
        <mxCell id="lHg3y_46yC8aJabjndZl-57" value="+ unsigned nr // ranges数" style="text;strokeColor=none;fillColor=none;align=left;verticalAlign=top;spacingLeft=4;spacingRight=4;overflow=hidden;rotatable=0;points=[[0,0.5],[1,0.5]];portConstraint=eastwest;" parent="lHg3y_46yC8aJabjndZl-40" vertex="1">
          <mxGeometry y="52" width="160" height="26" as="geometry" />
        </mxCell>
        <mxCell id="lHg3y_46yC8aJabjndZl-44" value="+ MemoryRegion *root" style="text;strokeColor=none;fillColor=none;align=left;verticalAlign=top;spacingLeft=4;spacingRight=4;overflow=hidden;rotatable=0;points=[[0,0.5],[1,0.5]];portConstraint=eastwest;" parent="lHg3y_46yC8aJabjndZl-40" vertex="1">
          <mxGeometry y="78" width="160" height="26" as="geometry" />
        </mxCell>
        <mxCell id="lHg3y_46yC8aJabjndZl-42" value="" style="line;strokeWidth=1;fillColor=none;align=left;verticalAlign=middle;spacingTop=-1;spacingLeft=3;spacingRight=3;rotatable=0;labelPosition=right;points=[];portConstraint=eastwest;" parent="lHg3y_46yC8aJabjndZl-40" vertex="1">
          <mxGeometry y="104" width="160" height="8" as="geometry" />
        </mxCell>
        <mxCell id="lHg3y_46yC8aJabjndZl-43" value="+ flatview_for_each_range" style="text;strokeColor=none;fillColor=none;align=left;verticalAlign=top;spacingLeft=4;spacingRight=4;overflow=hidden;rotatable=0;points=[[0,0.5],[1,0.5]];portConstraint=eastwest;" parent="lHg3y_46yC8aJabjndZl-40" vertex="1">
          <mxGeometry y="112" width="160" height="26" as="geometry" />
        </mxCell>
        <mxCell id="lHg3y_46yC8aJabjndZl-45" value="FlatRange" style="swimlane;fontStyle=1;align=center;verticalAlign=top;childLayout=stackLayout;horizontal=1;startSize=26;horizontalStack=0;resizeParent=1;resizeParentMax=0;resizeLast=0;collapsible=1;marginBottom=0;" parent="1" vertex="1">
          <mxGeometry x="-190" y="480" width="160" height="104" as="geometry" />
        </mxCell>
        <mxCell id="lHg3y_46yC8aJabjndZl-46" value="+ MemoryRegion *mr" style="text;strokeColor=none;fillColor=none;align=left;verticalAlign=top;spacingLeft=4;spacingRight=4;overflow=hidden;rotatable=0;points=[[0,0.5],[1,0.5]];portConstraint=eastwest;" parent="lHg3y_46yC8aJabjndZl-45" vertex="1">
          <mxGeometry y="26" width="160" height="26" as="geometry" />
        </mxCell>
        <mxCell id="lHg3y_46yC8aJabjndZl-47" value="+ hwaddr offset_in_region" style="text;strokeColor=none;fillColor=none;align=left;verticalAlign=top;spacingLeft=4;spacingRight=4;overflow=hidden;rotatable=0;points=[[0,0.5],[1,0.5]];portConstraint=eastwest;" parent="lHg3y_46yC8aJabjndZl-45" vertex="1">
          <mxGeometry y="52" width="160" height="26" as="geometry" />
        </mxCell>
        <mxCell id="lHg3y_46yC8aJabjndZl-50" value="+ AddrRange addr" style="text;strokeColor=none;fillColor=none;align=left;verticalAlign=top;spacingLeft=4;spacingRight=4;overflow=hidden;rotatable=0;points=[[0,0.5],[1,0.5]];portConstraint=eastwest;" parent="lHg3y_46yC8aJabjndZl-45" vertex="1">
          <mxGeometry y="78" width="160" height="26" as="geometry" />
        </mxCell>
        <mxCell id="lHg3y_46yC8aJabjndZl-52" value="AddrRange" style="swimlane;fontStyle=0;childLayout=stackLayout;horizontal=1;startSize=26;fillColor=none;horizontalStack=0;resizeParent=1;resizeParentMax=0;resizeLast=0;collapsible=1;marginBottom=0;" parent="1" vertex="1">
          <mxGeometry x="-180" y="628" width="140" height="78" as="geometry" />
        </mxCell>
        <mxCell id="lHg3y_46yC8aJabjndZl-53" value="+ Int128 start" style="text;strokeColor=none;fillColor=none;align=left;verticalAlign=top;spacingLeft=4;spacingRight=4;overflow=hidden;rotatable=0;points=[[0,0.5],[1,0.5]];portConstraint=eastwest;" parent="lHg3y_46yC8aJabjndZl-52" vertex="1">
          <mxGeometry y="26" width="140" height="26" as="geometry" />
        </mxCell>
        <mxCell id="lHg3y_46yC8aJabjndZl-54" value="+ Int128 size" style="text;strokeColor=none;fillColor=none;align=left;verticalAlign=top;spacingLeft=4;spacingRight=4;overflow=hidden;rotatable=0;points=[[0,0.5],[1,0.5]];portConstraint=eastwest;" parent="lHg3y_46yC8aJabjndZl-52" vertex="1">
          <mxGeometry y="52" width="140" height="26" as="geometry" />
        </mxCell>
        <mxCell id="lHg3y_46yC8aJabjndZl-59" value="" style="endArrow=open;endFill=1;endSize=12;html=1;rounded=0;" parent="1" source="lHg3y_46yC8aJabjndZl-50" target="lHg3y_46yC8aJabjndZl-52" edge="1">
          <mxGeometry width="160" relative="1" as="geometry">
            <mxPoint x="-360" y="757" as="sourcePoint" />
            <mxPoint x="-240" y="646" as="targetPoint" />
          </mxGeometry>
        </mxCell>
        <mxCell id="lHg3y_46yC8aJabjndZl-60" value="" style="endArrow=open;html=1;endSize=12;startArrow=diamondThin;startSize=14;startFill=0;edgeStyle=orthogonalEdgeStyle;rounded=0;exitX=1;exitY=0.5;exitDx=0;exitDy=0;entryX=0.5;entryY=0;entryDx=0;entryDy=0;" parent="1" source="lHg3y_46yC8aJabjndZl-41" target="lHg3y_46yC8aJabjndZl-45" edge="1">
          <mxGeometry relative="1" as="geometry">
            <mxPoint x="-710" y="583" as="sourcePoint" />
            <mxPoint x="-550" y="583" as="targetPoint" />
          </mxGeometry>
        </mxCell>
        <mxCell id="lHg3y_46yC8aJabjndZl-61" value="0..n" style="edgeLabel;resizable=0;html=1;align=left;verticalAlign=top;" parent="lHg3y_46yC8aJabjndZl-60" connectable="0" vertex="1">
          <mxGeometry x="-1" relative="1" as="geometry" />
        </mxCell>
        <mxCell id="lHg3y_46yC8aJabjndZl-62" value="1" style="edgeLabel;resizable=0;html=1;align=right;verticalAlign=top;" parent="lHg3y_46yC8aJabjndZl-60" connectable="0" vertex="1">
          <mxGeometry x="1" relative="1" as="geometry">
            <mxPoint x="-10" y="-31" as="offset" />
          </mxGeometry>
        </mxCell>
        <mxCell id="lHg3y_46yC8aJabjndZl-63" value="" style="endArrow=open;endFill=1;endSize=12;html=1;rounded=0;entryX=0.5;entryY=0;entryDx=0;entryDy=0;exitX=1;exitY=0.5;exitDx=0;exitDy=0;edgeStyle=orthogonalEdgeStyle;" parent="1" source="lHg3y_46yC8aJabjndZl-35" target="lHg3y_46yC8aJabjndZl-40" edge="1">
          <mxGeometry width="160" relative="1" as="geometry">
            <mxPoint x="-560" y="313" as="sourcePoint" />
            <mxPoint x="-540" y="638" as="targetPoint" />
          </mxGeometry>
        </mxCell>
        <mxCell id="lHg3y_46yC8aJabjndZl-82" value="IOMMUMemoryRegion" style="swimlane;fontStyle=0;childLayout=stackLayout;horizontal=1;startSize=26;fillColor=none;horizontalStack=0;resizeParent=1;resizeParentMax=0;resizeLast=0;collapsible=1;marginBottom=0;" parent="1" vertex="1">
          <mxGeometry x="-1040" y="810" width="230" height="52" as="geometry" />
        </mxCell>
        <mxCell id="lHg3y_46yC8aJabjndZl-85" value="+ QLIST&lt;IOMMUNotifier&gt; iommu_notify" style="text;strokeColor=none;fillColor=none;align=left;verticalAlign=top;spacingLeft=4;spacingRight=4;overflow=hidden;rotatable=0;points=[[0,0.5],[1,0.5]];portConstraint=eastwest;" parent="lHg3y_46yC8aJabjndZl-82" vertex="1">
          <mxGeometry y="26" width="230" height="26" as="geometry" />
        </mxCell>
        <mxCell id="lHg3y_46yC8aJabjndZl-86" value="" style="endArrow=block;endSize=16;endFill=0;html=1;rounded=0;exitX=0.5;exitY=0;exitDx=0;exitDy=0;entryX=0.451;entryY=1;entryDx=0;entryDy=0;entryPerimeter=0;" parent="1" source="lHg3y_46yC8aJabjndZl-82" target="lHg3y_46yC8aJabjndZl-97" edge="1">
          <mxGeometry width="160" relative="1" as="geometry">
            <mxPoint x="-1180" y="1093" as="sourcePoint" />
            <mxPoint x="-1020" y="1093" as="targetPoint" />
          </mxGeometry>
        </mxCell>
        <mxCell id="lHg3y_46yC8aJabjndZl-87" value="MemoryRegionSection" style="swimlane;fontStyle=1;align=center;verticalAlign=top;childLayout=stackLayout;horizontal=1;startSize=26;horizontalStack=0;resizeParent=1;resizeParentMax=0;resizeLast=0;collapsible=1;marginBottom=0;" parent="1" vertex="1">
          <mxGeometry x="-670" y="636" width="220" height="190" as="geometry" />
        </mxCell>
        <mxCell id="lHg3y_46yC8aJabjndZl-88" value="+ Int128 size" style="text;strokeColor=none;fillColor=none;align=left;verticalAlign=top;spacingLeft=4;spacingRight=4;overflow=hidden;rotatable=0;points=[[0,0.5],[1,0.5]];portConstraint=eastwest;" parent="lHg3y_46yC8aJabjndZl-87" vertex="1">
          <mxGeometry y="26" width="220" height="26" as="geometry" />
        </mxCell>
        <mxCell id="lHg3y_46yC8aJabjndZl-91" value="+ MemoryRegion *mr" style="text;strokeColor=none;fillColor=none;align=left;verticalAlign=top;spacingLeft=4;spacingRight=4;overflow=hidden;rotatable=0;points=[[0,0.5],[1,0.5]];portConstraint=eastwest;" parent="lHg3y_46yC8aJabjndZl-87" vertex="1">
          <mxGeometry y="52" width="220" height="26" as="geometry" />
        </mxCell>
        <mxCell id="lHg3y_46yC8aJabjndZl-93" value="+ FlatView *fv" style="text;strokeColor=none;fillColor=none;align=left;verticalAlign=top;spacingLeft=4;spacingRight=4;overflow=hidden;rotatable=0;points=[[0,0.5],[1,0.5]];portConstraint=eastwest;" parent="lHg3y_46yC8aJabjndZl-87" vertex="1">
          <mxGeometry y="78" width="220" height="26" as="geometry" />
        </mxCell>
        <mxCell id="lHg3y_46yC8aJabjndZl-94" value="+ hwaddr offset_within_region" style="text;strokeColor=none;fillColor=none;align=left;verticalAlign=top;spacingLeft=4;spacingRight=4;overflow=hidden;rotatable=0;points=[[0,0.5],[1,0.5]];portConstraint=eastwest;" parent="lHg3y_46yC8aJabjndZl-87" vertex="1">
          <mxGeometry y="104" width="220" height="26" as="geometry" />
        </mxCell>
        <mxCell id="lHg3y_46yC8aJabjndZl-95" value="+ hwaddr offset_within_address_space" style="text;strokeColor=none;fillColor=none;align=left;verticalAlign=top;spacingLeft=4;spacingRight=4;overflow=hidden;rotatable=0;points=[[0,0.5],[1,0.5]];portConstraint=eastwest;" parent="lHg3y_46yC8aJabjndZl-87" vertex="1">
          <mxGeometry y="130" width="220" height="26" as="geometry" />
        </mxCell>
        <mxCell id="lHg3y_46yC8aJabjndZl-89" value="" style="line;strokeWidth=1;fillColor=none;align=left;verticalAlign=middle;spacingTop=-1;spacingLeft=3;spacingRight=3;rotatable=0;labelPosition=right;points=[];portConstraint=eastwest;" parent="lHg3y_46yC8aJabjndZl-87" vertex="1">
          <mxGeometry y="156" width="220" height="8" as="geometry" />
        </mxCell>
        <mxCell id="lHg3y_46yC8aJabjndZl-90" value="+ MemoryRegionSection_eq" style="text;strokeColor=none;fillColor=none;align=left;verticalAlign=top;spacingLeft=4;spacingRight=4;overflow=hidden;rotatable=0;points=[[0,0.5],[1,0.5]];portConstraint=eastwest;" parent="lHg3y_46yC8aJabjndZl-87" vertex="1">
          <mxGeometry y="164" width="220" height="26" as="geometry" />
        </mxCell>
        <mxCell id="lHg3y_46yC8aJabjndZl-100" value="属于" style="endArrow=open;endFill=1;endSize=12;html=1;rounded=0;entryX=0.994;entryY=0.082;entryDx=0;entryDy=0;exitX=0;exitY=0.5;exitDx=0;exitDy=0;entryPerimeter=0;" parent="1" source="lHg3y_46yC8aJabjndZl-91" target="lHg3y_46yC8aJabjndZl-78" edge="1">
          <mxGeometry width="160" relative="1" as="geometry">
            <mxPoint x="-605.1199999999999" y="344" as="sourcePoint" />
            <mxPoint x="-600" y="403" as="targetPoint" />
          </mxGeometry>
        </mxCell>
        <mxCell id="lHg3y_46yC8aJabjndZl-101" value="系统Memory总容器&lt;br&gt;static MemoryRegion *system_memory" style="html=1;" parent="1" vertex="1">
          <mxGeometry x="-1075" y="310" width="220" height="30" as="geometry" />
        </mxCell>
        <mxCell id="lHg3y_46yC8aJabjndZl-102" value="softmmu\physmem.c" style="text;whiteSpace=wrap;html=1;" parent="1" vertex="1">
          <mxGeometry x="-1075" y="290" width="140" height="30" as="geometry" />
        </mxCell>
        <mxCell id="lHg3y_46yC8aJabjndZl-104" value="static MemoryRegion *system_io" style="html=1;" parent="1" vertex="1">
          <mxGeometry x="-1075" y="350" width="190" height="30" as="geometry" />
        </mxCell>
        <mxCell id="lHg3y_46yC8aJabjndZl-108" value="" style="endArrow=open;endFill=1;endSize=12;html=1;rounded=0;entryX=0.5;entryY=0;entryDx=0;entryDy=0;exitX=0;exitY=0.5;exitDx=0;exitDy=0;edgeStyle=orthogonalEdgeStyle;" parent="1" source="lHg3y_46yC8aJabjndZl-33" target="lHg3y_46yC8aJabjndZl-28" edge="1">
          <mxGeometry width="160" relative="1" as="geometry">
            <mxPoint x="-760" y="135" as="sourcePoint" />
            <mxPoint x="-890" y="400" as="targetPoint" />
          </mxGeometry>
        </mxCell>
        <mxCell id="lHg3y_46yC8aJabjndZl-111" value="&lt;div style=&quot;color: rgb(187, 187, 187); font-family: consolas, &amp;quot;courier new&amp;quot;, monospace; font-size: 16px; font-style: normal; font-weight: 400; letter-spacing: normal; text-align: left; text-indent: 0px; text-transform: none; word-spacing: 0px;&quot;&gt;&lt;span style=&quot;color: rgb(198 , 120 , 221) ; font-style: italic&quot;&gt;@fv:&lt;/span&gt;&lt;span style=&quot;color: rgb(92 , 99 , 112) ; font-style: italic&quot;&gt;&amp;nbsp;the&amp;nbsp;flat&amp;nbsp;view&amp;nbsp;of&amp;nbsp;the&amp;nbsp;address&lt;/span&gt;&lt;/div&gt;&lt;div style=&quot;color: rgb(187, 187, 187); font-family: consolas, &amp;quot;courier new&amp;quot;, monospace; font-size: 16px; font-style: normal; font-weight: 400; letter-spacing: normal; text-align: left; text-indent: 0px; text-transform: none; word-spacing: 0px;&quot;&gt;&lt;span style=&quot;color: rgb(92 , 99 , 112) ; font-style: italic&quot;&gt;&amp;nbsp;space&amp;nbsp;the&amp;nbsp;region&amp;nbsp;is&amp;nbsp;mapped&amp;nbsp;in&lt;/span&gt;&lt;/div&gt;" style="text;whiteSpace=wrap;html=1;" parent="1" vertex="1">
          <mxGeometry x="-690" y="830" width="320" height="40" as="geometry" />
        </mxCell>
        <mxCell id="A8b28ugPqDq0Cs7UtEEN-3" value="属于" style="endArrow=open;endFill=1;endSize=12;html=1;rounded=0;entryX=0.482;entryY=0.993;entryDx=0;entryDy=0;exitX=1;exitY=0.5;exitDx=0;exitDy=0;entryPerimeter=0;" edge="1" parent="1" source="lHg3y_46yC8aJabjndZl-93" target="lHg3y_46yC8aJabjndZl-43">
          <mxGeometry width="160" relative="1" as="geometry">
            <mxPoint x="-380" y="717" as="sourcePoint" />
            <mxPoint x="-647.1000000000001" y="678.1319999999998" as="targetPoint" />
          </mxGeometry>
        </mxCell>
        <mxCell id="A8b28ugPqDq0Cs7UtEEN-4" value="static QLIST&amp;lt;AddressSpace&amp;gt; address_spaces;" style="html=1;" vertex="1" parent="1">
          <mxGeometry x="-413" y="110" width="270" height="30" as="geometry" />
        </mxCell>
        <mxCell id="A8b28ugPqDq0Cs7UtEEN-7" value="&lt;div&gt;address_space_io/&lt;span&gt;memory;&lt;/span&gt;&lt;/div&gt;" style="html=1;" vertex="1" parent="1">
          <mxGeometry x="-413" y="85" width="170" height="30" as="geometry" />
        </mxCell>
        <mxCell id="A8b28ugPqDq0Cs7UtEEN-8" value="RAMBlock(Host内存管理)" style="swimlane;fontStyle=1;align=center;verticalAlign=top;childLayout=stackLayout;horizontal=1;startSize=26;horizontalStack=0;resizeParent=1;resizeParentMax=0;resizeLast=0;collapsible=1;marginBottom=0;" vertex="1" parent="1">
          <mxGeometry x="-900" y="910" width="160" height="138" as="geometry" />
        </mxCell>
        <mxCell id="A8b28ugPqDq0Cs7UtEEN-9" value="struct MemoryRegion *mr" style="text;strokeColor=none;fillColor=none;align=left;verticalAlign=top;spacingLeft=4;spacingRight=4;overflow=hidden;rotatable=0;points=[[0,0.5],[1,0.5]];portConstraint=eastwest;" vertex="1" parent="A8b28ugPqDq0Cs7UtEEN-8">
          <mxGeometry y="26" width="160" height="26" as="geometry" />
        </mxCell>
        <mxCell id="A8b28ugPqDq0Cs7UtEEN-10" value="" style="line;strokeWidth=1;fillColor=none;align=left;verticalAlign=middle;spacingTop=-1;spacingLeft=3;spacingRight=3;rotatable=0;labelPosition=right;points=[];portConstraint=eastwest;" vertex="1" parent="A8b28ugPqDq0Cs7UtEEN-8">
          <mxGeometry y="52" width="160" height="8" as="geometry" />
        </mxCell>
        <mxCell id="A8b28ugPqDq0Cs7UtEEN-11" value="uint8_t *host" style="text;strokeColor=none;fillColor=none;align=left;verticalAlign=top;spacingLeft=4;spacingRight=4;overflow=hidden;rotatable=0;points=[[0,0.5],[1,0.5]];portConstraint=eastwest;" vertex="1" parent="A8b28ugPqDq0Cs7UtEEN-8">
          <mxGeometry y="60" width="160" height="26" as="geometry" />
        </mxCell>
        <mxCell id="A8b28ugPqDq0Cs7UtEEN-13" value="struct MemoryRegion *mr" style="text;strokeColor=none;fillColor=none;align=left;verticalAlign=top;spacingLeft=4;spacingRight=4;overflow=hidden;rotatable=0;points=[[0,0.5],[1,0.5]];portConstraint=eastwest;" vertex="1" parent="A8b28ugPqDq0Cs7UtEEN-8">
          <mxGeometry y="86" width="160" height="26" as="geometry" />
        </mxCell>
        <mxCell id="A8b28ugPqDq0Cs7UtEEN-14" value="struct MemoryRegion *mr" style="text;strokeColor=none;fillColor=none;align=left;verticalAlign=top;spacingLeft=4;spacingRight=4;overflow=hidden;rotatable=0;points=[[0,0.5],[1,0.5]];portConstraint=eastwest;" vertex="1" parent="A8b28ugPqDq0Cs7UtEEN-8">
          <mxGeometry y="112" width="160" height="26" as="geometry" />
        </mxCell>
        <mxCell id="A8b28ugPqDq0Cs7UtEEN-12" value="GHashTable&amp;lt;MR*, FV*&amp;gt; *flat_views" style="html=1;" vertex="1" parent="1">
          <mxGeometry x="-280" y="380" width="200" height="20" as="geometry" />
        </mxCell>
        <mxCell id="A8b28ugPqDq0Cs7UtEEN-15" value="MemoryListener" style="swimlane;fontStyle=1;align=center;verticalAlign=top;childLayout=stackLayout;horizontal=1;startSize=26;horizontalStack=0;resizeParent=1;resizeParentMax=0;resizeLast=0;collapsible=1;marginBottom=0;" vertex="1" parent="1">
          <mxGeometry x="-693" y="473" width="280" height="112" as="geometry" />
        </mxCell>
        <mxCell id="A8b28ugPqDq0Cs7UtEEN-16" value="AddressSpace *address_space" style="text;strokeColor=none;fillColor=none;align=left;verticalAlign=top;spacingLeft=4;spacingRight=4;overflow=hidden;rotatable=0;points=[[0,0.5],[1,0.5]];portConstraint=eastwest;" vertex="1" parent="A8b28ugPqDq0Cs7UtEEN-15">
          <mxGeometry y="26" width="280" height="26" as="geometry" />
        </mxCell>
        <mxCell id="A8b28ugPqDq0Cs7UtEEN-24" value="QTAILQ&lt;MemoryListener&gt; link" style="text;strokeColor=none;fillColor=none;align=left;verticalAlign=top;spacingLeft=4;spacingRight=4;overflow=hidden;rotatable=0;points=[[0,0.5],[1,0.5]];portConstraint=eastwest;" vertex="1" parent="A8b28ugPqDq0Cs7UtEEN-15">
          <mxGeometry y="52" width="280" height="26" as="geometry" />
        </mxCell>
        <mxCell id="A8b28ugPqDq0Cs7UtEEN-17" value="" style="line;strokeWidth=1;fillColor=none;align=left;verticalAlign=middle;spacingTop=-1;spacingLeft=3;spacingRight=3;rotatable=0;labelPosition=right;points=[];portConstraint=eastwest;" vertex="1" parent="A8b28ugPqDq0Cs7UtEEN-15">
          <mxGeometry y="78" width="280" height="8" as="geometry" />
        </mxCell>
        <mxCell id="A8b28ugPqDq0Cs7UtEEN-18" value="void region_add(MemoryRegionSection *section);" style="text;strokeColor=none;fillColor=none;align=left;verticalAlign=top;spacingLeft=4;spacingRight=4;overflow=hidden;rotatable=0;points=[[0,0.5],[1,0.5]];portConstraint=eastwest;" vertex="1" parent="A8b28ugPqDq0Cs7UtEEN-15">
          <mxGeometry y="86" width="280" height="26" as="geometry" />
        </mxCell>
        <mxCell id="A8b28ugPqDq0Cs7UtEEN-21" value="&lt;span style=&quot;color: rgb(0 , 0 , 0) ; font-family: &amp;#34;helvetica&amp;#34; ; font-size: 12px ; font-style: normal ; font-weight: 700 ; letter-spacing: normal ; text-align: center ; text-indent: 0px ; text-transform: none ; word-spacing: 0px ; background-color: rgb(248 , 249 , 250) ; display: inline ; float: none&quot;&gt;描述MR变化区间&lt;/span&gt;" style="endArrow=open;endFill=1;endSize=12;html=1;rounded=0;" edge="1" parent="1" source="A8b28ugPqDq0Cs7UtEEN-18" target="lHg3y_46yC8aJabjndZl-87">
          <mxGeometry width="160" relative="1" as="geometry">
            <mxPoint x="-660" y="711" as="sourcePoint" />
            <mxPoint x="-717.0999999999999" y="584.1319999999998" as="targetPoint" />
          </mxGeometry>
        </mxCell>
        <mxCell id="A8b28ugPqDq0Cs7UtEEN-23" value="" style="endArrow=open;endFill=1;endSize=12;html=1;fontFamily=Helvetica;fontSize=11;fontColor=rgb(0, 0, 0);align=center;strokeColor=rgb(0, 0, 0);" edge="1" parent="1" source="lHg3y_46yC8aJabjndZl-99" target="A8b28ugPqDq0Cs7UtEEN-15">
          <mxGeometry width="160" relative="1" as="geometry">
            <mxPoint x="-670" y="420" as="sourcePoint" />
            <mxPoint x="-510" y="420" as="targetPoint" />
          </mxGeometry>
        </mxCell>
        <mxCell id="A8b28ugPqDq0Cs7UtEEN-25" value="对应关系" style="endArrow=open;endFill=1;endSize=12;html=1;rounded=0;exitX=-0.004;exitY=0.179;exitDx=0;exitDy=0;exitPerimeter=0;" edge="1" parent="1" source="lHg3y_46yC8aJabjndZl-41" target="lHg3y_46yC8aJabjndZl-72">
          <mxGeometry x="0.3323" y="12" width="160" relative="1" as="geometry">
            <mxPoint x="-450" y="460" as="sourcePoint" />
            <mxPoint x="-360" y="430" as="targetPoint" />
            <mxPoint x="1" as="offset" />
          </mxGeometry>
        </mxCell>
        <mxCell id="A8b28ugPqDq0Cs7UtEEN-27" value="memory_listeners" style="html=1;" vertex="1" parent="1">
          <mxGeometry x="-540" y="457.5" width="110" height="17" as="geometry" />
        </mxCell>
        <mxCell id="A8b28ugPqDq0Cs7UtEEN-28" value="RAMList(所有Host RAM)" style="swimlane;fontStyle=0;childLayout=stackLayout;horizontal=1;startSize=26;fillColor=none;horizontalStack=0;resizeParent=1;resizeParentMax=0;resizeLast=0;collapsible=1;marginBottom=0;" vertex="1" parent="1">
          <mxGeometry x="-1130" y="910" width="160" height="52" as="geometry" />
        </mxCell>
        <mxCell id="A8b28ugPqDq0Cs7UtEEN-29" value="QLIST&lt;RAMBlock*&gt; blocks" style="text;strokeColor=none;fillColor=none;align=left;verticalAlign=top;spacingLeft=4;spacingRight=4;overflow=hidden;rotatable=0;points=[[0,0.5],[1,0.5]];portConstraint=eastwest;" vertex="1" parent="A8b28ugPqDq0Cs7UtEEN-28">
          <mxGeometry y="26" width="160" height="26" as="geometry" />
        </mxCell>
        <mxCell id="A8b28ugPqDq0Cs7UtEEN-33" value="" style="endArrow=open;endFill=1;endSize=12;html=1;rounded=0;entryX=0;entryY=0.5;entryDx=0;entryDy=0;exitX=1;exitY=0.5;exitDx=0;exitDy=0;" edge="1" parent="1" source="A8b28ugPqDq0Cs7UtEEN-29" target="A8b28ugPqDq0Cs7UtEEN-9">
          <mxGeometry width="160" relative="1" as="geometry">
            <mxPoint x="-980" y="960" as="sourcePoint" />
            <mxPoint x="-820" y="960" as="targetPoint" />
          </mxGeometry>
        </mxCell>
        <mxCell id="A8b28ugPqDq0Cs7UtEEN-34" value="ram_list" style="html=1;" vertex="1" parent="1">
          <mxGeometry x="-1030" y="893" width="60" height="17" as="geometry" />
        </mxCell>
        <mxCell id="A8b28ugPqDq0Cs7UtEEN-35" value="" style="shape=image;verticalLabelPosition=bottom;labelBackgroundColor=default;verticalAlign=top;aspect=fixed;imageAspect=0;image=data:image/png,iVBORw0KGgoAAAANSUhEUgAAAw8AAACPCAYAAAC8hOeTAAAgAElEQVR4nOzdeXhU1f348fedmcxkm0ASIIGQhNUkIgQQBVkU2aSlFbVaihRRUUStUv0WS8WlyE9qRUsVtCKiQHBlERBKICwiiwRkiQERAsgkbCGQbTKTzHp/f4y5MFnIBAJR+3k9zzxPuPfMuefemdH7uedzzlESEhJUhBC/WO26D0BvMJCzY22tZXJzc69ii4QQgUhISGjsJgghRDWGxm6AEOKnQW5UhPjpkIBeCPFTJcGDEAIAi2VeYzdBCAEkJt7f2E0QQoha6Rq7AUIIIYQQQoifBwkehBBCCCGEEAGR4EEIIYQQQggREBnzIISoUfneEqxfnau2Xan6b5MO0zXhmNqFYUwMuTqNE0IIIUSjkOBBCFEj+7clnHvPgr5JEOh9IUNl4KCq52d41oUbMA9oji5YhyHWiFruQTHq0IXKf16EaEgGPRgNCkEGUKpG8T9yucHh8uJ2U3shIYS4DPJ/dyFEjQxRRkJ7NCXqj60JahlcazlFr6AzG1A9Ko7vrdh2FBPcIZzwW5tdxdYKcXnKyx089dTbzJ79BQBbtrxJnz7XsXXrPvr2fRKARx75LTNmPEZIiOmqtUuvg7AQheREE80jdYQGg16nQ6klMPB4vDjdXoqsYDnt5sQZJy63BBFCiIYjwYMQokaKQUFvNmBqH46nxIltWyG6MAP6MANKuA5deBDGuBCC4ky4zzkp31OCLbOYoBgTSqgMpxKiIYSHKsTHmLi1ZwvaxwcTEaZH0V3kf92qB7fbTe5pB1v3luBweTlV4Ll6DRZC/OJJ8CCEqFPFQRtFi04S1DIYQzMjhuZGDM19vRH6pgYcB8uwby/CvquY5o+2xdi69p4KIUTgOncIZvBNLejWcyCxcUmEmptTfeTReQrgctmJtnyDMSSL1i2O8c7iwqvWXiHEL58ED0KIOgVfG070g4mEdDajb2JECQIMOrx2D+VZJZx7Lxd9dBDNH21L6PVNMUQbG7vJQvzsBRkgOkJHm7gwWiakEhmTQpDRXOf7PB4HimLEVlYKjryr0FIhxP8SCR6EELVTQXV6wK2i6EFvNmBoHoRi1OE+56RifyllX53D0NKEMTEUfZMgXKcrQFUJaiUzLwlxOYxBCiYjmIx6QszxBAXH+O33et04ywvRG4IJMkVo23VKMGFRyUQ03UPT8KvdaiHEL50kJgvxi+dLcQgxR9b6MgTV3lOgulW8FR48Ng8eqxuvzYPX5vGlKmUWUb6vlPB+0YSmRuAtcVGebcWZV16tHq/Xy7p1uxg06C8oygDatBnJc8+9z4wZi1GUASjKAKZOTTt/XFUlK+sIDz30Gm3ajERRBtC//1PMn7+G8nKHVm7q1DTt/fPnr2Hp0s3aMbp0eYhPPtmA0+nyO3Zy8hhmz/4Ct9uXC15e7mD8+BlaPVu37tPq37p1n7Z9/PgZfse+mHPnSnj33ZUMH/6c1v7u3R/hlVc+orCwtNb69+49zIMPvkp09B1ER9/BuHGvk5d3ptq1/Prr/X7Xpk2bkTz00GtkZR3xmw3rwuuTlraWL77Y5ncd3nxzacDnVLW+hQszWLNmJ126PKRdm9zcfF599ROGDv0r0dF3aJ/bO++s8DtO1fPevv07v/OePHkuhYWlHDt2mnHjXte2P/roDAoKigNur8PhJCPjGx544J907/6I37XKzj4acD01OXeuhFmzPqd//6e0c+nf/yn+858V2GzVfwM2WzkffbSeX/1qEhERv9E+g9df/wyn01WtvE5RURQFRacHnRF0Jr+X02Fj/+bXOZmzrto+dCZAf1nnJ4QQNZGeByF+4XQ6HYqiI/7anrWWOXPmTM07FFCCdYTER2BqF4YuTI+n1EVFlrVaqpK3zIPrjBOnxY4hKsivGrfbw4wZi5k6NQ2r1Q6AxZLPyy8vrPGwqqry6acbefzxN/1utDdtymLTpix27PieV18dR1iYf+/GSy8toKCgRDtGdvZRxo37F5999iXr1u3Wth88mMfEibOJjY1i+PA+F7+Alyg9fSePPPIvv2179uSwZ08Ou3fnMHv200RG+qegbNmSzYYNe8jJOa5tmzNnFS6Xm1mzniQsLKTGawm+6zl37n/57LMvmTZtLOPH347B4H/z+PbbK9i//5jfdZgwYRZhYcGMHfvrep/jt98eZe3ab8jOPkrv3p0AmD9/LS+88IFfucrP7fDhk7z88oOYTP7B6ooV21ixYhunTp1fV2TatA/ZseN7CgqKyco6om1/550vCAsLqbGemhw7ls/EibP96qi8VuvW7WLx4r/To0dSvc/94ME8xo6d7hdoXniuy5ZtYdasJ+nYsTUA+fmFPPHETBYt2lStnpycE3g83mrH8M2oVPkCtcoMS16vC1vxMcKjO/jt02JHmWRJCHEFSM+DEP8DVFUl77vMWl/W4uqLwVVSdDp04QYMzU3oQg04DtspWXmaoLhgwnpFEXp9U/TRQb5xECqoFV5Uh/+N0N69h3nrrWVYrXZ69kxhx4638XjWsWPH2/TsmVLtmN99Z+Gll9IoLCxl+PA+WCwf43JlMH/+JMzmUNLSMti+/UC193Xu3I4DBz6gtHQlDz3kuxm2Wu3s3p3DsmVTqahIZ9q0h7Tta9d+Q0WF8zKubO3CwoKZN++vnD37OV7veuz21bz88lgAFi3axDffHKz2nsJCK6+9Nh63O4O9e+eQmtoegK1b93PkyEkANmzYowUOw4b14siRhXi96zl0aAHDhvXCarXz2mufsXfv4Wr1N2kSxu7ds3G5Mvjgg2e07Zs2ZfkFIoGaPv1Tv5tygKgoMytXTqO4eAWquoHCwuU8+ujtgC9IOHiweg6+0Whg4cJncbszmDfvr9r2det2MWLErVRUpLN+/eskJvrSdr78ci95eQUBtVGv13H33Tdz+PBCXK4MPJ51ZGRMJzExBosln6VLN+Px1G82otJSG9OmfcjWrfswm0N5772/UFGRjt2+mnff/T/M5lDWrv2G2bNX4nA4KS938P/+30ItcPjLX37PyZOLUNUNnDy5iH79Ol/0eCoqKh5U1YXXU0FF2SnspXmUW0/h9bhwOUp9/y49jstRDHhQcYNaPSARQojLdVk9D7m5uQ3VDiH+ZyUkJFz5gyhQbi2qdbfbFfgNtPu0A8dhO80eaUNIl4gqa0CooKv+hHTz5mwslnwAHnhgKDfckAzADTck88ADQ8nM9A8E1q79hgMHLAA8/vhwEhJ8N4233NKFzp3bsm3bfjZvzmbAgG5+77vrrn7ExTUHoH//rrz33n+17X37XofRGMSwYT354IN0cnKOc+ZMMQ6HE6PRv6ekIdxxR1/t7/JyB6WlNmJiIrVt+/YdY/DgHn7vGTasJ4MGdUev15OUFE+fPteRlXWEnJzjWK3lOJ0u0tN3aDf6EybcRbt2rQDo2LE1I0cOYNWq7Vgs+aSn7+D666/xq//eewfSoUMcAH37dub6669h165DnDlTXGPaTF169kxh5swn6NEjCYfDhckUxOOP36HtLysrx2aroGXLaAByco5z7Fg+Xbq096tn8ODr6dUrBb1eT69e15Ka2p6srCP07t2Je+8dgMlk5IYbkrj55i6kpWVw8uQ5SkpsAbWxQ4c4nntuNODrASspsWEyBREbG4XFkk9OzgnKysrr9R3IyTlBRsYuAO64ow+//31/rRfkzjv7snTpZtLTd7Bu3S4efngYDoeTNWu+0fY/++wordepZctoRo0adPEDqiqq14nHXUaF9TQHt72FvSQPr8eFveQ4pw7+l8LjO9HpTcR3Gk5cym9QvQ5UZIpWIUTDu+y0JVXd0BDtEOJ/kqIMaOwm1Jt5QHOCu0T41nMIqdJ5qSi+1aWN54OHigonhw+f0P593XVt/d4SHu6felS1/JAhz1CT06cLq/Ua6PU1d6ZGRpq1m0OTyUhoqG+RL6vVjtvtuSLBQ17eGWbMWMzSpZu1wOlCZWXVc+L1er22+FdwsJHY2Ci//TZbBYcO+VKaUlPba0FVpTZtYrW/jx8/e9HrExkZTrNmTep5Vv4uDASDg303z9nZR5kxYzHLl2/zSzmrVFMPx4XnfSGzOVT7fhgMekJDfYHqqVPnAu4xKi93MH/+GubNW1MtSK1sT32/A4cPn9BSrDp2bI3ZHKrtCwsL1npIsrKOcPZsCcePF2ipaN26dayWrnZxKuBFVctBLUdngMhWKYRFxuB2lOEsLyS0aSui4lLR6QyERESjem14VTuozh/fL4QQDUfGPAgh6kUfFYQ+quYbLUUHOpMexXBh/rVaYz53bepb/qeooKCYCRNm8fnnWwDfDWNSUjxNm4bxzjtfXHK9Xq9XG+T9U1A18MvJOc7DD7+u3aT36nUtycnxuN1eFi7MuOrt83g8zJq1jGeemQ1AYmIMnTq1ITk5gdWrd2i9W/VV38/g8j8zL6rXjqqWE2QyEt9pKADl1nwKT3xLVKvOtO8xUiutestQPXZU1YUED0KIhibBgxCiRtosS4VO3GF1D4/yFLnx2j0oBgXFcL581Sfox46dpk+f63zHUFXy8/3TqUJCTNqTW4C1a1+tlt5zNdU3Hx7gwAGLFjjMnPkEjz02HJ1Ox1dfZV1W8BAWFkL79r40paNHT3H8eAFJSfHa/mPHTmt/JyXFExJiuuRjXYqvv/5OCxxWrpzGr3/dE0VRWLBgbaMED4WFVtau9aULjRw5gLfemkBkpJmCgmK+/fboJQcP7du3wmwOxWq1c/ToSWy2cm3wvs1WofU09e7didatm6HX67Tye/bkUFRkrV/vg+pF9dhQ3Vb/zR4b4PGlKF2wT1W9qJ5yVG/gs2gJIUSgJHgQQtTIU+zCvreEs3Mt6CPqnvJRdargAUOsCSXofPCgKArdu3fU/j1z5ud07tyWTp3asHHjXt58c2m1uvr06UTLltGcOnWON95YSkJCDB07+nL1jx07zbJlW3nggaH1TP+oXdUAZ/363XTv3pGKCieffLKx3vUVF5/Pxy8qKsPlclNaamfhwnWX3c4hQ3qQlpaB1Wpn5szP6dgxjvj4Fuzff4y5c31jPFJSEhk4sFsdtTW8c+fOpymdPVuCqqr88MMpPvvsy6veFgC7vQK7vQKA0lI7NlsFoaEmVqzYVmMKU6CSkuIZOvQGFi3axJIlm7n11m7ce+9AXC43aWkZpKfvAHzjbuLimhMREaaV//zzLXTp0p4JE+6iadNwLJZ81q79htGjB1cL9tweX2+TqrpQPVZUj/8UtQa9i7hrehLWtJXfPlX1orrLQXXilY4HIUQDk9mWhBA1Crkuguj7EgjvG01oj8g6X2G9owjvH01YnyiMbUL96ho4sBuPPTYcgMzMA6SmPozBMJjBgyfidLqrHbt37+uYMOEuAFat2k5y8hj0+kHo9YNo3/6PrF37DV5vw6U2KYrC4MHXaz0eL744j9DQXxEVNZxly7bWu74uXdppvSsvvPABwcFDadHiLvbvP3bZbR02rBeTJ48CYPnyrSQmjkSnG0jnzmPZuHEvUVERvPDCaDp3bnfZx6qvfv06a9fw/vv/iV4/iK5dx/kFFVdTbGwUN93km0J21artxMePIDh4KDNnfk5U1KUHnpGRZqZMuZ+ePVOwWu2MGfMKQUGDCQ39FU8//TYA99xzC08+eScGg96vPMCUKfOJihqOTjeQtm3vZffunBqP43J7cXtUPB4Xbsc5PM6zqO4i7aXXOYjr2J2mzWP9tquuIlwVBTgqynC6Zb5WIUTDkp4HIUSNQro2IaTr5Q2orRQWFsKrr47jmmta85//rODgwTx69kxhwoS7KC93MnbsdL/yBoOeiRNHcOONyfznPytYv34PhYWlJCbG0LNnCg8++CuaNGnYpXN79+7E++8/w7RpH7J+/W46d27HY4/dTocOcQwePLFedbVpE8usWU/y0ksL+PzzLZdVV1WV16ZXr2v54IN0vvxyLxZLPklJ8Qwb1ouHHvo1yckJNQ5AvtKuv/4a3n//Gf7+9/ls3vwt/fp14c9//h1Wq53t27+76u0xmYw8++y9mExBWrrY6NGDuf/+25g0aU6NA9kDlZKSyBdfvMyCBWv54ouv2bQpC7M5lD59rmP06MEMH97bbx2SyvK+tTg2sWdPDmZzKDfemMxNN12L0Vj9f8cuN5TaVM4UOonM2wfuYkLNUdXKVeVxuyg8ZeH0iRMcz68enAshxOVQEhISLrlTMzc3V2ZbEj87W7fuo2/fJwF45JHfMmPGYwA89dTbzJ7tu8HYsuVN7cnxlaQoA6pN1arXgSlIIcgAtd3/udzgcHlxu6m90I869BiMoteRk7mm1jKN+Vv+8MN1/PGP0wB46aUHeP750Y3SDiF+KhIT7yc3N5eEhATaxRno3CGYXt2bkRgfSVRk3UGz0+kmL+8ce/YXsf9wKV9ny9gHIUTDkZ4HIX4CdDqV8BAdyYkmopvoCA8FvU5X69Njj8eL0+2lyAqW025OnHHikvQEIX5x8vLdlNntNA0vAGcxtqZ1/86dLsjJdbP3ewe7v78yiyAKIf53SfAgxE9AaLCOhFgTt/ZsQds4E03NBhTdRX6eqge3203uaQdb95bgcHk5VfDTmcLzl+zgwTxGjHip2srKlVJT2/Pppy/4zYL0c3DuXAmjRk1jzZqdtZa5Wj1ygfi5tfdSudxwpsjL/FWBLYonhBBXmgQPQvwEJCea+G3/GLr1HEiLlh0JbxID1P6EUQFcLjvRlm8whmTRusUx3llcWGNZrxf0dU+WJAKUlBTP3r1zGrsZDS46ugnp6f9s7GYE7OfWXiGE+KWQ4EGIRhZkgKgIHW3iwmiZkErTFskYTRF1vs/jcaAoRmxlpeDI89un0xtokdgJc7NYFEXBKwtFCSGEEKIBXJHgoaCgmDfeWMrChRlYLPkMHNidhx8exnvv/Zd163ZV69a32cpZsCCDTz/dyKZNWSQmxnDbbTfw9NP3aGUuTBW47bYbeOWVh1mwYC1Ll26msNDK3XffzJQp9xMcbNSOXVhoZejQG3j55bF07NgaqHmwbEiIifJyxyUNmPV6vWRmHuCTTzayY8f3bN/+HVFREQwc2I3HH7+Dm2/ugqIo1epfv/51jh07zbvvriQz8wA9e6bw5z//jrvvvgWD4fxj4nPnSvj44w0sXvwVmzZlAXDLLamMGHEr9903WJvNo+r1ee218cyfv4ZFizZp1+HZZ0fRtWuHgD7DqvW9+eafmDVrGfPmrWH16lfo0eMavvrqWz76aD1ZWUfZsyeHxMQYBg26ngkT7tKmiax63hkZ0zl8+ATz5q0hM/MA/fp14e9/H0OfPp1YunQzb7yxVLsekyaNZPjwPgHPGpObm88nn2xkw4Y97Nx5kMLCUm65JZU//OFWxoy57ZIXzKr8jOfOXc26dbuwWPK1c33iiTvp0qWdXxtVVeX773N5773/smrVdg4ezNNmYfnXvx4lJSXRr35jkILJCCajnhBzPMaQ2IDapVOCCYtKJqLpHpr+OIayatBQ2R7Uuqc1VZQBAV6RK+eFFz7ghRc+aOxmCCGEEKIWDR48HDyYx9ix09m6dZ+2bf363axfv7vG8vn5hTzxxEwWLdqkbbNY8nn33ZWsWbOT+fMnccstqX7v2bnzILff/hx5eWe0bR98kM7Bg76nr9u27de2V9Y7e/bTDbag1IWKiqxMmbLAL++2sLCURYs2kZ6+k7S0vzF8eJ9q73v++ff92pmZeYBx4/5F8+ZNGTiwO1DztQTYtCmLTZuyWLZsC7NmPakFRpW+/z6XP/5xml9O9qJFmygqKmPBgkm0bBldr3N0OFzMnPk5s2Yt07YdO5bPxImz/Y5hseQzd64vQFy8+O/06JFUra7HHnuDnJzj2r83b/6WBx98ldTU9qxYsc3vevz5z2/RunXzGuupyfz5a6vdeFZeq8OHT/Lyyw9iMhkDPm8At9vDjBmLmTo1DavVXu1cP/vsS6ZNG8v48bdjMOhRVZVPP93I44+/SWHh+bntrVY76ek7eO65P1Y7hk7x9QooOj3ojKALMMhRvaBzAb5gs3nitTSNiUdRFFQVVPXHiZhUUHQXX9Kl6oxPQgghhBA1adBF4hwOJ3PmrNJudl98cQxlZasoK1vFiy+OqVbe4/Hw1lvLWbRoE2ZzKPPnT8LlysBi+Zjhw/tgseQzb146Nlu53/tcLjfTpo3F7c4gI2O6djO8bdt+UlPbU1q6kuzsudqCPOnpO7XAoqHpdDpuvDGZrKw5OBxr8HrXk5U1R1s8aMmSr/xuOitdc01rzpxZit2+milT7gd8N5jr1+/G4/FQWmpj2rQP2bp1H2ZzKO+99xcqKtKx21fz7rv/h9kcytq13zB79kocDv/ZNCyWfB57bDgVFekcO/YRw4b1AmDdul3s2/dDvc/xyy/3+gUOAHq9jrvvvpnDhxficmXg8awjI2M6iYkxWCz5LF26GY+n+gDeQYO6U1q6kry8T7V2WSz55OcXkZ09l9LSlTz66O3a9oyMXQG3MyrKzMqV0yguXoGqbqCwcLlW14oV2y7pO7Bhwx4tcBg2rBdHjizE613PoUMLGDasF1arndde+4y9ew8Dvu/gpElzKCwsJTW1PWvWvIrLlYHLlcGaNa8SFhZc7Rjney1+7ClQlMBenH+bTm8gMjYB8AUOKOoFgYPMwiSEEEKIhtGgwcPp04V8/bXvaXr//l0ZN24YYWEhhIWFMG7cMPr37+pX/vjxAq1H4o47+nDnnX0xGPQkJMRovQ27duWQl1fg976ePVO47bYb0Ov1dOvWgS5dfCkyLVtGM3bsrzGbQ0lJSWDAgG6A76b8zJnihjxVTWSkmZdeeoAuXdpjMOgpLi5DVdECmiNHTvo9ga70wANDad68KSEhJoYM6YHZ7FuRt7DQitPpJifnhHbjfMcdffj97/tjMhkJCTFx5519tZSqdet2ceyY/0JHgwZdz5139sVkMpKYGOuXfnWp16EyEHS5MrjxxmQ6dIjjuedG0759KwBKSmyYTEHExvoWMMrJOUFZWXm1ev7wh1sxm0Np3bq5FtwBjBhxK9dd1xazOZQ77+yrbS8oKMbpdAXUxscfv4Nhw3rRpEk4ZWXl2GwV2ueQk3O82nWqi9PpIj19hxb8TZhwF+3atUJRFDp2bM3Ikb40H4sln/T0Hbjdblat2q4tPPXCC/cxZEgPDAY9BoOeIUN6XDRtTEVFxYOquvB6KqgoO4W9NK/aq7z0OC5HMeBBxe2XkqQooKCCqpyvU73Y0GshhBBCiMA1aNrSqVOFZGf7nmwnJcX7pQmZTEGYTEG1lk9LyyAtLaNandnZRzl3rpRmzc6vdKvX69DV8DS1RYumhIeH/FhG75fjXtPT/4bgdntYsWIbb7+9vMbULJutgoqK6je/+gumv4mMNNOuXUu/FKDDh09w6tQ5ADp2bK0FFwBhYcEkJsYAkJV1hLNnSy56fRISWlzGGfoHgpXKyx3Mn79GG7tQldVqx+32YDT6f+b6Wqb9adGiqfZ3aOj5p/N2uwOPp+58ffB9V2bMWMzy5dtqDNjq+x2w2So4dMiXYpWa2p6EhBi//W3anB+bcPz4Wc6cKebbb49q5Tt1alOv46GqqF4nHncZFdbTHNz2FvaSqr0lCjq9ifhOw4lL+Q2q14GKB6/HjdvpwBBkAkVBwTfWQVEU3G4nXndgAZgQQlTKzc1t7CYIIRpRbSnNDRo8eDzeet2g1bf8T9HixZsYN+5fWK12oqIiSE1tR2pqe3buPFhtrEJ9uN0/nTn7qwZ+Ho+HWbOW8cwzswFITIyhU6c2JCcnsHr1Dg4csFz1NubkHOfhh1/XApleva4lOTket9vLwoXVg9JAeL3een0OXq96mZ+bF1UtB7UcnQEiW6UQFhlTpYyCTmcgJCIa1WvDq9pBdQIqR/dsxBgaQeukHhiCjFo6lMFgxK3KbEtCiPpLSEjAYpnX2M0QQlxFlavc16ZBg4fo6Ag6d25HdvZRLJZ8bLYK7el/aamd4uIyv/IxMZFcf/017Np1iNGjB/PWWxP8nrBf6EqNWaikqmqNOfoXY7dXsH79bqxWO/36dSEtbRKJibHY7RVMmDDrsoKH9u1bYTaHYrXaOXr0JDZbufbk32ar0FJjevfuROvWzWrs3bhSCgutrF37DQAjRw7grbcmEBlppqDA9+S9MYKHr7/+TgscVq6cxq9/3RNFUViwYO0lBw9hYSFaWtbRo6c4frzAb+GvY8dOa38nJcXTrFkTrXxW1hH27z9Wz4XCvKheO6paTpDJSHynoRctrXrLUD12VNUFP46AcNpLObpng18QgQI6Q9BF6xJCCCGECESDjnlo2TJKu1lKT9/Bu++upLzcQVGRlenTP62W3hIX10ybSWfZsq188slGbXC0zVbOqlXb/WbgaQiVAQ7A9u3fcejQcTweD9u27a/X4FzwDdwuLvat+llaaqO01I7X62Xjxr31rquqpKR4hg69AYAlSzazZMlm3G4P5eUO0tIySE/fAfhSiuLiml/WserLbq/Abq8AfEGhzVaBw+FkxYptNaYwXQ3nzp1PUzp7tgRVVTl69CSfffblJdcZHGzUxqNYrXZmzvyc3Nx8VFVl374fmDv3vwCkpCQycGA3v/IAr776CV9/vV/73JYu3cyuXYdqP6DqRfXYUN3WgF5etxXVU4bqdVSrqjKIOLQjneIzebgd1cefCCGEEELUV4P2PDRpEs6f/nQHO3d+j8WSz+TJc5k8eS4ALVpEajdhlUJCTEyYcBd79x7+carS1xk37nW/OhcufLYhm0hiYgy33NKF7OyjZGUdoWvXhwEwm0PrvQ5AREQYfftex+LFm8jKOkKXLg8BvjEKlWMvLlVkpJkpU+4nN/cMmZkHGDPmFcaMecWvzD333MKTT97pty7E1RAbG8VNN3Vi27b9rFq1nfj4EYAvzz8qytwoqWj9+nXWZnq6//5/cv/9/8RsDqh3SYoAACAASURBVK3/uIMqhg3rxeTJo5g0aQ7Ll29l+fKtfvujoiJ44YXRWkB6YfnMzAP07v2EX/ktW96sdgy3x9fzpaouVI8V1RPYoHZV9aK6y0F14pWsJCGEEEJcBQ3a8wBw881dWLp0CvfccwtmcyhRURE8/PAwVq2aRu/enaqVT0lJ5IsvXuYf/3iIbt06att79bqWqVMf4NZbu1Z7z+UICTExZcr9TJ78RxITYzCbQ7nvviGsXfuq3yw/gVAUhXHjfsO///24X10LFkyib9/Ol93Wymvz2mvjtdmnzOZQhg69kQ8/nMwHHzxDTEzUZR+nvkwmI88+ey/PPjuKqKgIoqIimDDhd8yb91eSkxtnvYDrr7+G999/hn79ugDQr18X5s37K+PH//ay6jUY9EycOIIvv5zBmDG3aQPVk5Liefrpe9iy5Q1GjLj1gvEFvvIbNrzOPffcQlRUhFb+oYd+TevWzaodw+X24nJ78XhcuB3n8DjOorqL6n65inBVFOCoKMPplvmUhBBCCHHlKQkJCZf8zDI3NxdV3RBQ2XPnShg1ahpr1uystsK0EP+rFGUACQnx9EkN5neDo0i6NplmMa0Ia1I9yKjK43Zx7pSFnINHOXbsFP+YV3OPRYu2nQiNiOJY1uaGbr4Q4hcsNze3xgHTB4sM7Dht4my5Hldgk+Fh0qukRLnoGOmmbYT7CrRWCNFQKgdMV51tyaAHo0Fp+BWmhRD1pZB32s2mnVYcnh9IKCwiOrru1dCdTjd5eefYs7+I/YdlTIMQ4uo4WBTEx9+HcbZch9Nbd6+nx6tg1KsMSijHoKuQ4OEXaurUNF544QPAl3I+atQgDh7MY8SIl8jKOsJtt93Ahx8+S3R0kzpqurIcDicrV27nP/9ZoU2xv2XLm35rYv3c1Pec6vNAX6+DsBCF5EQTzSN1hAY38JiHX5oLfwg1eemlB3j++dFXsUUN48MP1/HHP06rdf8jj/yWGTMeq/cYkCvl59beS3HyrIeKb+00DS/A6yjGXlT3/5CdLsjJdbP3ewe7v3fWWV4IIRpKsxAPT3W30jK87lkK80r15BQbcHgkvVI0Lrfbw7//vYRJk+Y0dlMazJU+p/BQhfgYE7f2bEH7+GAiwvQSPFzM88+P/lkGB3UZNWoQo0YNauxmBOzn1t5L4fbAmSIv81fZGrspQghRJ6MeOkS68HpVDhUbadfERV6pnt0F5x/iBOtVOjd3EhKk0ircw4myqzu5hxBVHTlyko8/9qXb9+yZwnvv/YXrrmvbyK26PFf6nDp3CGbwTS3o1nMgsXFJhJqbS/AghBBCiEtz0qZnx2kTRr3KN2eMfHIwTNvXxKTiVqF1uAeddDqIn4CzZ0vIyjoCQNeuHbS1mX7OruQ5BRkgOkJHm7gwWiakEhmTQpDRfPnBQ2Li/fUqn5CQQFGRiyFDnr/cQwshhBCiEXVt4aJdEytmo5eUKCe/aVeh7dMrKk1NHgrseg4Vy0KVQvzcGIMUTEYwGfWEmOMJCvbNOHnZwcPFlq8WQgghRHWKoiM4vHEHjtYlsrkLnf7itwmlDh0nyvS0DodzFTqOlpxPTQrSQVw42F0X73YoKCjmjTeWsnBhBhZLPgMHdufhh4fx3nv/Zd26XdUGdNps5SxYkMGnn25k06YsEhNjuO22G3j66Xu0MlUH6r7yysMsWLCWpUs3U1ho5e67b2bKlPsJDjZqxy4stDJ06A28/PJYOnZsDcDWrfvo2/dJwH98XXm5g6eeepvZs78AAh9wW7Vdb775J2bNWsa8eWtYvfoVevS4hq+++paPPlpPVtZR9uzJITExhkGDrmfChLu0NYWqHj8jYzqHD59g3rw1ZGYeoF+/Lvz972Po06cTS5du5o03lpKZeYCePVOYNGkkw4f30aYYvxiv10tm5gE++WQjO3Z8z/bt3xEVFcHAgd14/PE7uPnmLgHVc7G6585dzbp1u7BY8rVzfeKJO+nSpZ1f3Q6Hk40b9/L++6tZv34PhYWlJCbGcNdd/XjppQcuur7WhQOEK82e/QWzZ3+hDeR+++0V2jjXtLS/0bx5UyZOnE3v3p20z/3cuRI+/ngDixd/xaZNWQDccksqI0bcyn33DSYszNeGhvr+XUwg5xQd3aTW35fHU/dUaTpFRVEUFJ0edEbQ+dISLyt4qDqFkxBCCCHqZjCaiL+2Z2M346Lir4W87zIvWibfrmf3GRNBugqOlgSxMe/8mIcQA/SIdRBmqH1G+IMH8xg7djpbt+7Ttq1fv1ubMaba8fILeeKJmSxatEnbZrHk8+67K1mzZifz50/S1kWqtHPnQW6//Tny8s5o2z74IJ2DB/MA2LZtv7a9st7Zs58mMrLuWe8uh8PhYubMz5k1a5m27dixfCZOnK2loYDv/ObO9QVSixf/nR49kqrV9dhjb5CTc1z79+bN3/Lgg6+SmtqeFSu2adszMw/w5z+/RevWzWusp6qiIitTpizwu0EtLCxl0aJNpKfvJC3tbwwf3qfe5+52e5gxYzFTp6b5LSxbea6fffYl06aNZfz42zEY9Nhs5Uye/D5vvLHErx6LJZ/vvrPgcDgve3HeC3377VHWrv2G7Oyj2hplNX1XATZtymLTpiyWLdvCrFlPVrvxb8zvX31/X1X5grfKF6g/BnMNvkicEEIIIS5O/fF+uvDkUfK+y/zJvSo57NaLnkd4kJe4cDdx4R6uiXTRs6VTe/WIddChiZuo4JpnZHI4nMyZs0q7sXnxxTGUla2irGwVL744plp5j8fDW28tZ9GiTZjNocyfPwmXKwOL5WOGD++DxZLPvHnp2Gz+U1e7XG6mTRuL251BRsZ0WraMBnw3bamp7SktXUl29lx69kwBID19p3ZjdyV9+eVev8ABQK/XcffdN3P48EJcrgw8nnVkZEwnMTEGiyWfpUs34/FUv56DBnWntHQleXmfMmxYL8B3Y52fX0R29lxKS1fy6KO3a9szMnYF1EadTseNNyaTlTUHh2MNXu96srLm0LNnClarnSVLvvK7+Q/Uhg17tMBh2LBeHDmyEK93PYcOLWDYsF5YrXZee+0z9u49jMfj4e23V2iBw8iRA7TyJSVfMGrUQHS6i9/ORkc3IT39n2zZ8qa27ZFHfovdvpr09H9Wmz52+vRP/QK40lIb06Z9yNat+zCbQ3nvvb9QUZGO3b6ad9/9P8zmUNau/YbZs1ficPjPfnilvn91nVN4eEi9fl8Xo6Ki4kFVXXg9FRI8CCGEEFdbZTaGo7yMcmvRT+51KDOddYvexeu5+JoMekUlWK8SbFAJNXiJMJ5/mYNUjHoVfS1pLadPF/L1176nrv37d2XcuGGEhYUQFhbCuHHD6N+/q1/548cLtCemd9zRhzvv7IvBoCchIUbrbdi1K4e8vAK/9/XsmcJtt92AXq+nW7cOdOniS/1p2TKasWN/jdkcSkpKAgMGdAPAarVz5kzNi242tMobOpcrgxtvTKZDhziee260Nui1pMSGyRREbGwUADk5Jygrq76uzx/+cCtmcyitWzfXbkIBRoy4leuua4vZHMqdd/bVthcUFON0uupsX2SkmZdeeoAuXdpjMOgpLi5DVdFugI8cOUlhYWm9ztnpdJGevkMLOiZMuIt27VqhKAodO7Zm5MgBgC/ISU/fwenThfz3v76AtmfPFF5+eaxWPiIijNGjhzR4L1HPnins2PE2Xu96/v3vx8nLK9ACrjvu6MPvf98fk8lISIiJO+/sq6WsrVu3i2PH8qvV1Rjfv/r+vi5KVVG9TjzuMuwlP8hsS0IIIYS4NB5VweEBp0fB6dVhd59/JmnUqVS4lVpXoT51qpDs7B8ASEqK97sBNJmCMJmCai2flpZBWlpGtTqzs49y7lwpzZqdf5Ks1+vQ1TDdU4sWTbVUF71e77dW0KU8Ta+vC2/oKpWXO5g/f402dqEqq9WO2+3BaPS/Nnp9zdPgtmjRVPs7NDRY+9tudwSU8+52e1ixYhtvv728xlQXm62Cioq6g5Cq7zl0yJdilZranoSEGL/9bdrEan8fP36Ww4dPsGvXIcA3m1BlIHUlPfDAUG64IRmA4GAjR46c5NSpcwB07NgaszlUKxsWFkxiou8csrKOcPZsyU/i+1ff31ftVMCLqpaDWo7OIIvECSGEEOISlTh0HC4OolW4F0upgcxTRm1fqAG8KoQG1TzmwePx1usmqb7lf+qq3sB5PB5mzVrGM8/MBiAxMYZOndqQnJzA6tU7OHDActXbuHjxJsaN+xdWq52oqAhSU9uRmtqenTsPVsv9D5TX68XtrntxwUqN8blXHT9Rn/b+VDTsdfOieu2oajlBJqOkLQkhhBDi0sSGubk+xknzEDftm7q4Nb5Ce/WNq+CaSBdRpppvvKKjI7TZgyyWfGy289O8lpbaKS4u8ysfExPJ9ddfA8Do0YMpLV2Jqm6o9gpk1qPLpapqjWMPLkdhoZW1a78BfHn9e/a8y6pV/2DSpJHExTVr0GMFwm6vYP363Vitdvr168Lu3e+wYcO/ePnlsaSkXPqEOWFhIVpa1tGjpzh+3D/N7Nix09rfSUnxJCTEaJ/73r2HOX268JKPfanat2+l9TYcPXrSb1yNzVaBxeJLVerduxOtW1/9z6omF/t9nT1bWr/rqHpRPTZUtxXVbZXgQQghhBD14/bCaZsOUGgT4QYUIk1eurdwaq/OzZxEBXvxqApFDh3uKlkyLVtGaVOrpqfv4N13V1Je7qCoyMr06Z9WS9uJi2umzRC0bNlWPvlko3YTZ7OVs2rVdr+ZhRrChTdg27d/x6FDx/F4PGzbtj/gQceBstsrsNt9N3ilpXZstgocDicrVmyrMYXpSnO53BQX235sj43SUjter5eNG/de1rkHBxsZMqQHZnMoVqudmTM/Jzc3H1VV2bfvB+bO/S8AKSmJDBzYjfj45lp+fmbmAf7xj484caIAVVU5c6aId95ZQVHRxQf2X66kpHiGDr0BgCVLNrNkyWbcbg/l5Q7S0jJIT98B+FLR4uKaX9G2BKpVq2iuvTYR8P2+0tIytN/XG28s8RsQXhu3x9dTpKouVI8V1VOM6imWtCUhhBBC1M/Zch2Tt0YSQNo8To+CTgc3x1UA5/PjmzQJ509/uoOdO7/HYsln8uS5TJ48F4AWLSK1m8tKISEmJky4i717D5OZeYBx415n3LjX/Y61cOGzDXJ+lRITY7jlli5kZx8lK+sIXbs+DIDZHOqXo94QYmOjuOmmTmzbtp9Vq7YTHz8C8I0LiIoyX/XUnYiIMPr2vY7FizeRlXWELl0eAnw5/5c7LeqwYb2YPHkUkybNYfnyrSxfvtVvf1RUBC+8MJrOnX1rPUyc+HsOHz7B8uVbmTNnFXPmrNLK3nbbDdxzzy2X1Z66REaamTLlfnJzz5CZeYAxY15hzJhX/Mrcc88tPPnknRgMNY8/udoiIsJ49NHb2b79OyyWfJ5++m2efvptoObfV01cbi9uj4rH48LtOIfHGYROp5eeByGEEEIELinSxYgkO79tV86wAF53drTz+2ts3BpfQdsm/rM33XxzF5YuncI999yC2RxKVFQEDz88jFWrpmnz618oJSWRL754mX/84yG6deuobe/V61qmTn2AW2+txwwyAQgJMTFlyv1MnvxHEhNjMJtDue++Iaxd+6rf7EUNwWQy8uyz9/Lss6OIioogKiqCCRN+x7x5fyU5+eqvq6UoCuPG/YZ///txv3NfsGASfft2vqy6DQY9EyeO4MsvZzBmzG3agOOkpHiefvoetmx5gxEjbtUWiYuJifpxIbc/+63j0avXtQwefL3fYPArpfK799pr47U2mM2hDB16Ix9+OJkPPniGmJgrP5i7Pur7+6rK5YZSm8qZQicFefsoK/get/0USkJCQu2rtwghfvZatO1EaEQUx7I2N3ZThBA/CjKF0LbrLZw68i3Wsycbuzk1ys3NJSEhAYtl3lU/9oWr51ZdYVoIcWUlJt6v/f7bxRno3CGYXt2bkRgfSVRkuKQtCSGEEEIIIarLy3dTZrfTNLwAnMXYmiqStiSEEEIIcbmmTk1DUQbU+po6Na2xm+jnww/XXbS948fPoLzc0djNDMgv6Vwq/VTOyeWGM0Ve5q+y8be3inn45SLpeRBCCCGEuFzPPz+a558f3djNCNioUYMYNWpQYzejQfySzqXST/mcpOdBCCGEEEIIERDpeRBCCCFErRIT72+0YyckJFBU5GLIkOcbrQ1CCH8SPAghhBCiRrm5uY3dBCHET4wED0L8T1AauwFCiJ+ZhISrv7aAEOKnT8Y8CCGEEEIIIQIiwYMQ/xNkLUghhBBCXD4JHoQQQgghhBABkeBBCCGEEEIIERAJHoQQQgghhBABkeBBCCGEEEIIERAJHoQQQgghhBABkeBBCCGEEEIIERAJHoQQQoirTJXZk4UQP1MSPAghhBBXmSKLvgshfqYkeBBCCCGEEEIERIIHIYQQQgghREAkeBBCCCGEEEIERIIHIYQQQgghREAkeBBCCCGEEEIERIIHIYQQQgghREAkeBBCCCGEEEIExNDYDRBCNL7c3NzGboIQfhISEhq7CUIIIWogwYMQAgBV3dDYTRCCxMT7JZgVQoifMElbEkIIIYQQQgREggchhBBCCCFEQCR4EEIIIYQQQgREggchhBBCCCFEQGTAtBCiRgeLDOw4beJsuR6XN7D3mPQqKVEuOka6aRvhvrINFEIIIcRVJz0PQogaHSwK4uPvw/j4+1A++j6szlfad+Es+C6c9bnB/FDy834uUV7uYPz4GSjKABRlAFu37mvQ8pfj4ME8unZ9GEUZwNChf+XcuZIrdqxAnDtXwtChf0VRBtC168McPJhX53umTk3TrtWHH64L6DgGPYSaFJqEKTQNr/kVFqxg0Kugqpd7WkIIIWrx8/4/vBDiimoW4uGp7lZahnvqLJtXqien2IDDo1yFlon/BXodhIUoJCeaaB6pIzQY9DodilLzd8zj8eJ0eymyguW0mxNnnLjc8n0UQoiGJMGDEKJWRj10iHTh9aocKjbSromLvFI9uwtMWplgvUrn5k5CglRahXs4UaZvxBaLX5LwUIX4GBO39mxB+/hgIsL0KLqL/G9L9eB2u8k97WDr3hIcLi+nCuoOfIUQQgROggchRJ1O2vTsOG3CqFf55oyRTw6GafuamFTcKrQO96CTh7yiAXXuEMzgm1rQredAYuOSCDU3B2r/kimAy2Un2vINxpAsWrc4xjuLC2ssazCG4HaWX5mGCyHEL5gED0KIOnVt4aJdEytmo5eUKCe/aVeh7dMrKk1NHgrseg4VBzViK8UvSZABoiN0tIkLo2VCKpExKQQZzXW+z+NxoChGbGWl4PAff6HTG4hq2Y4msYno9Xoq7GXkZm+5UqcghBC/SDJgWghRp1KHjhNlesqcOs6V6zlSfP71Q4mBM3Y9NlftT4SrDvI9dCiPJ5+cSUTEb9i6dR8Oh5OMjG944IF/0r37IyjKANq0GclDD71GdvZRrZ6qA5PXrdvFO++soFevx1GUAdx885/ZsGEPDoeTjz9er23v1etxli3bgnqJA2nLyx1+x+nV63Hef381Doezzvd6vV6+/no/Dz30Gm3ajPQ7t6ysI9XapKoqBw5Y+L//+w/JyWNQlAFERPyGX/1qEgcOWGo9ztq13xAR8RutfRcrW7VtEybM4qab/oSiDCA6+g5+//spbNqUVa1tBQXFPPfc+9p5DBr0F9at243HU/N0XFU/h+TkMbz55lLKyup+4m8MUjAZwWTUE2KOJyg4BnShdb50hiaERSUT0TSGpuG+unR6A81aX0Pbbv2JimuHXu9LrSspOF5nO4QQQviTngch/gfodAZCzJG17jcEnb7o+/PtenafMRGkq+BoSRAb886PeQgxQI9YB2GGwG7MHQ4XM2d+zqxZy7Rtx47lM3HibLKyjmjbLJZ85s79L+vW7WLx4r/To0dStboee+wNcnLO3wBu3vwtDz74Kqmp7VmxYpu2PTPzAH/+81u0bt28xnrqct99r3Dq1Dm/+jIzD3DuXClPP313re9zuz3MmLGYqVPTsFrt1c7ts8++ZNq0sYwffzsGgx5VVfn00408/vibFBaWauWtVjvp6Tt47rk/0qxZk2rHOXGigFde+Qir1Y7ZHMrf/nYvKSmJdZ5XUZGVKVMWsGbNTm1bYWEpixZtIj19J2lpf2P48D6ALwAcO3a630xS69fvZv363TXWbbOVM3ny+7zxxhJt28GDeUyYMKvOdgHoFBVFUVB0etAZQWeq+00Aqhd0LsAXIES0aE3zhGT0egOgoqqgKFBWfI6S08cCq1MIIYRGggch/gcYjCbir+1Z6/4zBQUXfX94kJe4cDdx4R4MOrBfMIONUa/SoYkbhwdO2ur+T8qXX+7lyy/3+m3T63XcfffNLFkyhcTEGHQ6hQ0b9vDQQ69hseSzdOlmunXrUK2uQYO6s2vXO5SU2Bg/fgarVm3HYsknNjaK7Oy5JCbG8Ne/vst//rMCiyWfjIxdlxQ8dO/ekTfffIM2bWL92vXhh+u4/fbeJCS0qPF9Gzbs0QKHYcN68eabf6Jt25YcPnyCp556m1WrtvPaa5/Rq9e19OiRxLZt+5k0aQ6FhaWkprbn1VcfYcCAblpdYWHB1Y7hdnv44IN0Nm70XdPJk0cxbFivgM5Lp9Nx443JvPrqOJKTEwgKMpCdfZRx4/5FZuYBliz5igEDumE0GpgzZ5UWOLz44hgmTvw9ANOnf8aUKfOr1b1u3W7ef381gHbubdrEsnr1Dh5//A0slvyLts03o1LlC9RaZliqSussUXw9DrFtr/NtU1VUFBTF93d402iu6Tk0oDqvpGBzU6xnTzZ2M4QQImCStiTEL1zRqR/I+y6z1heAtejsRevQKyrBepVgg0qowUuE8fzLHKRi1KvoA7y5A9/NZ1nZKlyuDG68MZkOHeJ47rnRtG/fCoCSEhsmUxCxsVEA5OScqDHV5Q9/uBWzOZTWrZvTs2eKtn3EiFu57rq2mM2h3HlnX217QUExTqcr4HZWmjDhLtq1a4VOp+Pmm7tw1139AMjKOlLrugZOp4v09B1aj0NlHYqi0LFja0aOHAD4eiHS03fgdru14AfghRfuY8iQHhgMegwGPUOG9KBr1+oB1LZt+3nvvf8CcN99Q3j0UV8vRiAiI8289NIDdOnSHoNBT3FxGaoKLVtGA3DkyEkKC0s5fbqQr7/eD0D//l0ZN24YYWEhhIWFMG7cMPr371rt3Ddtyqp27jqdjqFDb+DeewcG1D4AFRUVD6rqwuupoKLsFPbSvGqv8tLjuBzFgAcVt68H4keKAqoCiqL+WKeC6lVBpdFeKr62KBcZAC6EED9F0vMgxC+cq8KOq8Je6/5Dmem4XRfP3feoCg4POD0KTq8Ou/v8cwejTqXCrQS8CvWFN5+VyssdzJ+/hnnz1pCZeaDae6xWO263B6PRf0B2Ze56VS1aNNX+Dg09/7TebnfUmp9fm86d2xEff75nwWgMIjLy/MDdC9ORLmSzVXDokC+lKjW1PQkJMX7727SJ1f4+fvwsZ84U8+23R7XynTq1qbNt33+fy5QpC7BY8uncuR0TJ44gIiKszvdVcrs9rFixjbffXl5j+pHNVkFFhYuiIivZ2T8AkJQU73f+JlMQJlNQtffVdu56vZ6QkABTkMDXY+B14nGXUWE9zcFtb2EvqRqwKej0JuI7DScu5TeoXgcqHrweN6d/2Efz1knogyrb6EuHspcVcfy7HYG3o4EFmUJo2/UWyq1FjdaGuljsExu7CUKIRpYYOr3aNgkehBB1KnHoOFwcRKtwL5ZSA5mnjNq+UAN4VQgNCmzMQ9WbTY/Hw6xZy3jmmdkAJCbG0KlTG5KTE1i9ekdAA3+vJJ1OqXVRsovxer243YGvMeD1qvUqD5CQEEO7di3JyjpCdvZRvv76Ozp1ahNwexcv3sS4cf/CarUTFRVBamo7UlPbs3PnQb+xDR6Pt9YgqeZzqd+5104FvKhqOajl6AwQ2SqFsMiYKuUU37ieiGhUrw2vagfVCaiUnjlO6ZnjRMa2Jbp1B3Q/Bpyh5iii4tpReOJo1YMKIYS4CAkehBB1ig1zc32MQvMQNwadik45HygE6SAu3I3dpXDCXf//pBQWWlm79hsARo4cwFtvTSAy0kxBge9JfGMHD1lZR8jPLyQpKR7wDQQ+etSXo242h2qpVlWFhYVo+44ePcXx4wVaHQDHjp0fpJ6UFE+zZk208llZR9i//5hf+ZqEhpr405/u4PDhE2zduo+XX17Itdcm0qfPdXWel91ewfr1u7Fa7fTr14W0tEkkJsZit1cwYcIsv+AhOjqCzp3bkZ19FIslH5utQus9OHvWl9Z0oZAQE/HxzbVzP3u2RDuX8nIHJ05cPE3OnxfVa0dVywkyGYnvdPFxCqq3DNVjR1VdwPnvadHpHygpyCOyZVsiY9ug0+sJj2opwYMQQtSTBA9CiFq5vXDapqN1uEqbCDegEGnyEtmiepqT1WmgyKHDXb+sIOz2Cux237oRpaV2bLYKQkNNrFixrcYUpsbwr38tpn37VsTERLFkyWaWLNkM+AZs13aDHxxsZMiQHqSlZWC12pk583M6dowjPr4F+/cfY+5c3ziFlJREBg7sVq38q69+QsuWUdxwQzIul5vVq3eQmBhDeHiI33Hato3lT3+6g2+/9d3YT5/+KR06+Np6MS6Xm+JiGwClpTZKS+14vV42btxLRsYuv7KtWkVz7bWJZGcfJT19B2lpGYwf/1sqKpy88cYSv1mywJcqlpraHvCldc2atYzExBhiY6NYtGgTH320PsArD6heVI8N1W0NrLjqRfWUo3od1fZ5PW7OHc/h3PEcdHoDXo878Hb8ryvo1NgtEEJcLc33X3S3BA9CiFqdLdcxeWskgQwTcHoUbCWvCAAAFBJJREFUdDq4Oa4CCHxQcmxsFDfd1Ilt2/azatV24uNHAL5c+agoc73SZa6U5cu3snz5Vr9tiYkxTJjwOyIjzZSXV79RBd8sQ5Mnj2LSpDk11hEVFcELL4ymc+d21cpnZh6gd+8n/Mpv2fJmteABYPjwPmzduo9Zs/5/e/ceFnWVP3D8PTPAMMCgSEqGXLwFppiXDH+oeUk2ilbSfcq19EnLMO1Z3dy13LbLphvbWi27aXlpt1Rwc7MUL22KaJLSmjcg8EJ4G6gQFUSGyzC37++PyZERlAFBrD6v5/k+j34v53vO94w+5/M953xPGhs3ZtG3bzivvjr1mhOn/f19GT68Hx9/nElu7gn6958OQO/e3Rrcw9/fl5kzx7F37xEMhlLmzn2XuXPfBaBLlwD0ep8G9fTwwyPJyDjExo1ZrF27k7VrdwKO3hqdTttkvVptjuFPimJBsRlRbBXXPP8SRbGjWGtBMWO/xkg6CRyEEKJlJHgQQjQqIsDCxIgaztdq3J4MrdUo9OlkoXsH9xtmWq0XL7zwKFqtJ8uWbQZgypRYpk69j/nz32vyk543QmrqC2Rm5vLJJ7uxWKzExQ1h/vxJDBzY+5rXeXhomDdvIkOH3sEHH2xl164cDIZSIiJCiI8fyvTpDxAZGeqco3Dp/LvvjmTp0k3s2JFNeXklEREhjBgRRbdut2AyNQzMdDots2YlsHt3Hrm5J1i8eANRUd359a/HXDVvKpWKxMQHAUhO/pjyciPjxw9n5sxxrFy5jcOHXddAuOee/qxf/yqvv/4hW7fux9PTg1/9agSJiQ/y4ovvu6wVARAU1In33vsd/fp1JzV1OwZDKffeO4j58yexZ09+o593rc9itWO1KdhsFqx1ZdjMnqjVTX9FSrHbsZiM1JmqMFvlS0ZCCNHaVKGhoS1bclUI8ZNRVFSEouxs72wIQVjYVIqKiggNDeHeITriRwYQcUcknbt2w0d/7aFYADarhbISA4UFJzl9uoS/rHSvx+JG8/DS0WPgSEpOfH3TrvPg8rUlGbYkxM9HvWFLV35tyUMjPQ9CCCFuSipOfW8lc7+ROtspwioq6BTg1+RVZrOV4uIysg9f4PDxhmuD3Cxa8AGvm0p+mRfZZz1b1DPZp5OFEH1rfI1LCHEjaNTgq1MRGaalc4BaggchxM/LmjUZTJ6cdNXjM2b8kuTkWc1bi+Am9FMoZ3GplaqaGjr6nQNzBdUdm25xmy1QWGQl51gdh45de/0S0XJ55z358Jgv52vVmO1N14vVrkKrURgbWouvpyLBgxA/In4+KkKCtIyO7kLPEG8JHoQQPy+PPTaWxx4b297ZaHM/hXJarHD2gp1Vn1a3d1ZEI27R2Xh2kJGufk0HAqcuajh10YM624+8y0VcU0FBMRMnLiA39wT33TeENWteIDCwAwsXpvDyyx8Ajjlk7fV/k6IopKXt4Q9/+Cf+/r68++4c7rorol3y0p6uVk9XE9XLm9j/68LA6Hu5NThCggchhBBCNJ+XBnoFWDDb4ORFT3p0sHCiwpP8ssuLQHprFKI6m/HzVLjNz8Z3VU1PeheirZhMZrZtO0BBgWOV+s8+2/ezDB6aw9MDAv3VhAf70jX0TgKC+kjwIIRwCAub2t5ZEEL8CBVVerDvjBYvjcJXZ7RsPHH5U78dtApWBUL0NqTPQbQ3nU7LAw9Es2tXDv7+vtx//90tTuvCBSNffnmYdesyiY+P5uGHR7ViTm8eXp4qtF6g9dKg04fg6R0kwYMQwqGoqKi9syCE+BGK7lrHHYEW9F52IgMsPHz75TU8NCqFjlobJdUaTl70vEYqQtwY48bFMG5czHWns2RJmnMoVmzs4OtO72alVimoVCpUag2ovUCtleBBCAGhoaHtnQUhxI9UhUnNmRoN3fzgbK2GosrLQ5M81RDsB7VWdTvmUAjRUo51iC5toKhUyL9mIYQQ4gZTflhhSavzQ6cPuCm33I5VVHs0PRn6uyoNh85qKa1Rc6TMk+0Gb+f2ebE3xy54cqHu2s0Nu91ORsZBxo79PSrVGMLDJ/Hii++TnPwxKtUYVKoxLFyYUu/5KeTmnmD69DcJD5+ESjWGUaOeZdWqbS4rvi9cmOK8ftWqbaxfv9t5j/79p7N27U7MZovLvSMjH2f58s1YrY6y19bW8fTTyc50srLynelnZeU79z/9dPJVV5u/Uv18paZuZ9u2/fTvP92ZRlFRKYsWrSUu7nkCAx9ylm/Zsk0u97jy/nv3HuGJJxYRGPgQgYEP8cc//ovy8kpOnz5DYuJbzv0zZyZz7pz7a6CUlV1kxYotJCS86HzegwbN4PXX/015eaXb6Vwt7SVLNjBq1LPOsowa9SxLl26iurrh55aLikr5859TGDRohsv5O3dmu3W/+s9+zZoMwDGBeMCAp1CpxhAX9zz5+aeYN28Z4eGT8Pd/kEceeZWcnOPA5Wd+qdcBYPLkpAa/0erqWpYu3eQsV3j4JGbM+JtzvkVj9/3mm2Jmz16Mv/+DZGXlN6jfnJzjLvWbmPgWxcVnXZ5lW9WTgoKCDUWxSM+DEEIIcaNdWueh02096HRbj/bNzFX8nlO8ld2d/hXXXl/DX2sn2M9KsJ8Nu2LGXm/pWS+NQq8OVmqsYLI23uSwWm0kJ3/MwoUpGI2OIU8GQymvvZba6PmKovCf/3zOM8+87dIgyszMJTMzl337jrFoUSK+vjqX6xYsWM25cxed98jLO0li4t/46KNdZGQccu4vKChm3rzl3HprJxIShl37IbWCr78+SXr6AfLyThIT41iMb9WqdJfGaf3yHT/+Pa+99gRarZfL8U2bvmTTpi8pKSlz7ktKWsO+fcc4d66C3NwTzv3Llm3G11fXaDqN2bp1PzNm/M1lX3Z2IdnZhRw6VMjy5XMJCNA3u+wFBcU8+eQbLgFZ/bKmpe1hyZLZ9O7dDYAvvsglMdG1AX7p/Prlvh7HjhUxeXKSy/Naty6TCxeqWL16vltplJaW85vfLGbdukznPoOhlBUrtrBt235WrZrPyJF3ulxTV2dh8eINLFmS1miae/bksXNnNoWF3zr3vffep1gsVpYsmY2vr67N6gkARUGxm7FZq6TnQQghhLjRrOY6io98dVNvb2Z3p2eVrsmyeKgdX1Xy9lDw81Lw97I7N72ngpdGQXON2dI5Ocd55500jMYaoqP7sG/fu9hsGezb9y7R0X0anH/kiIEFC1IoL68kIWEYBsOHWCzbWbVqPnq9Dykp29m792iD66KienD06AdUVm5h+vQHADAaazh0qJC0tIWYTFtJSpru3J+efgCTqe3XCnnjjf+4NFQBOnXSs2VLEhUVm1CUnZSXb2TmzHGAI0i4svEM4OXlQWrqC1it21m58nnn/oyMg0ycOBqTaSs7drxFWFgQALt25VBcfM6tPPr6erNy5fOcP78Bu30HNTWf8dprTwKOhvWBAwXNLndlZTVJSWvIyspHr/fhn//8PSbTVmpqPmPFit+h1/uQnn6A5cu3UFdnprDwW557bgUFBcWEhQWRkvIHamo+w2bLYP/+pXTp0rHZeWiMwVDKrFkJmExbOX3638THDwUczzE//xTDhvVDUXayYME05zWpqS+gKDt56aUp2Gw23nlnI+vWZaLX+7Bq1Xwslu0YDB/+8HstZeXKrQ16VXbtyrlq4ABQXm7kzTefxmrdTk7Oe9x5Z08AsrIOc+KEY5X6tqgnBwWwoyi1oNRK8CCEEELcaIpip9Z44abe7qzww9fa9KdVrXaos4HZpsJkVVFjVTu3Wqtjn1W5enNj9+48DIZSAKZNi2PIkEjUajVDhkQybVpcg/PT0w9w9KgBgGeeSSA0NAgPDw0jR/YnKqo7RmMNu3fnoSiKy3UTJowgOLgzer0Po0YNcNk/fHg/tFov4uOjnW+5z56toK6u7YOHSwGT3b6Dv//9Gby9vXjmmYeIjx9Khw5+VFXVUl1tomvXQAAKC7/l9OnSBunExg5m6NA+aDQahg69w9m4jInpy6OPjkGr9WLIkAjuuac/AN9/X8bFi+6tofLQQ8N5/PH7CAzsgMlkprKymqCgAOfx/PzTzS53YeF3bN9+8If0h/HII6PQar3Q6bSMHz+cYcP6AY5G++nTpezcmc1XXzmCwtmzJ/DYY2PR6bSo1WruuiuC2Ni7mp2HxowdO5jx44ej1XoRFnarMx/g+E005dtvz7FjxyFnucaPH46Hh4bQ0CBnb8PBg4WNBm6vvPI4VVWfYrFs5+67I12OxcdHM3bsIDQaDRERIc58FRZ+i9FY+8P9Wr+eLrOj2GtQlFoZtiSEEEKIliur1XC8wpPb/Ox8c8GTr0ouD4Px8QC7AjoPe6PXmkxmjh//zvn3fv26uxz389Nd8/xf/OK5RtM9c6a8Qa+BRtN4ABMQoMfLy/ElKK3WCx8fx6rrRmMNVqvNeaytXAqYALy9Hc8uL+8kyckfs3Hjl42OVb80xKo+jUbzw+RWV3q9j/M5enho8PHxBqCkpMztnpXi4rMkJ3/M+vW7nYFefVVVDecmNOX48e+cQ4169+6GXu/jPObr6+3sIcnNPcF3353n669POo9HR/dptKytQaNRo1ZfTjs0tEuzri8pKScv7xQAKSnbSUnZ3uCcvLyTlJVVcsstlxdmGzVqAImJ8Q2G213O1+X69fb24tZbOzU4py3qyUmxo9iqUaxGCR6EEEII0XIh/jZUKjOddVbANVBwfG3JSpVFTUkjL7kVRcFmazywaExzz/8xuDJAKiz8lqeeesv5ln3o0DuIjAzBarWTmtqwIdrWzp2rYM6cJWzYsAeAgQN7ExERQseOvixbtrnF6V6akO6eH0+922z2RoO7pmi1nmi1LQ9U26yebI4PGiiKBcVmRLFVSPAghBBCiOaz2uFMtZpufjbC/a2Ais46G511DRuF5SY1F+rUWK9o/135BvX06TPO4RiKolBaesHlfJ1O63wjDZCevqjVhqu0hM3WnAawe/73vyPOwGHLliQeeCAalUrF6tXp7RI8HD1qcDZIFy/+DbNmJaBWq/nii9zrapT27Hkber0PRmMNJ09+T3V1rfOte3W1yfnmPCamLz173uZS7199dZSYmL5t1vtwPYKCAhg8+HYOHvyGKVNieeedOS69KvU1NnelpdqqnixWO1abgs1mwVpXhs3sKcGDEEIIIZrvfK2aP2YF4M4L4TqbCo0a7gk2uexXqVQMGtTb+ffFizcQFdWdvn3D+fzzHN5+e32DtIYN60vXroGUlJTxj3+sJzQ0iN69gwFH8JGWlsW0aXEt/6rMFa4McHbsOMSgQb0xmcysXft5q9yjvrKyy8OUzp+/iKIonDpVwkcf7Wr1e7mjouJyl9GFC1VYLFYqK2tITc24rnQjIkKIixvCunWZfPLJbkaPHsijj96LxWIlJWU7W7fuAxzDeYKDOxMbO5jlyzdjMJTy9tvr6dUrmLi4IajVavbsyaO62uSc3Hwj1O8xOnz4NHV1ZrRaL4KDb+GuuyI4ePAb0tKyGDGiP48+OgZfXx3V1bXs2pWLzWZvlYXq6murerJYobJa4Wy5mYDifLBWyIRpIYQQQjRP1C0WJkbU8MsetcS7sU3oXcMjt1czOsREqN7qkta99w5k1qwEwPFG+c47n8LDI5bY2HmYzdYG946J6cecORMA+PTTvURGPo5GMxaNZiw9e04mPf0AdnvrDXFRqVTExg52vvl+5ZWV+PjcT6dOCaSlZbXafS4ZMSLKea+pU/+KRjOWAQMSXYKKG6l//x7O3qCXX/4Ab+84unSZwOHD1zP51jHX5NVXpxId3QejsYbHH38dT89YfHzuZ+7cdwF4+OGRzJ49Hg8PDYMH305S0nT0eh8MhlISEl5Eq70PT89YRo+eS0VF1XWXtTnq19Nf/vJvvL3jWLgwBZ1Oy5w5E5zlSkx8Cz+/eFSqMfj5xfPggy+0aFhTU9qqnkDFqe+tZO438nXeKY4fzZeeByGEEEI0T79AM/0CW+dLRL6+OhYtSuT227uxdOkmCgqKiY7uw5w5E6itNfPkk2+4nO/hoWHevIncfXckS5duYseObMrLKwkLCyI6ug9PPHE/HTpce22K5oqJ6cv77z9HUtIaduw4RFRUD2bNGkevXsHExs5r1XsNHnw777//HH/60yp27/6aESP689vf/gqjsYa9e4+06r3cER5+K0uWzGbBgtVs2LCnVcvep08Ymze/xurV6Wze/D8yM3PR630YNqwfU6bEkpAQ4xzKpFKpmDRpDH37hrN48QYyMg5iMJQ6671Pn9DWKK7bLtXTpd9EY+X617/+y0cfZZKdXQg45q/Ex0czevSAxpK8Lm1ZT8WlVqpqaujodw7MFahCQ0OVpi8TQgghxM+JoaZeg+Nc33bJw5o1GUyenATAggXTeOmlKe2SDyF+Vjofdv4xzOeNBodl2JIQQgghhBDCLRI8CCGEEEK0goKCYgYMeAqVakyj24ABT7XqF3auV1nZReLinr9qflWqMWRl5bd3Nt3yUyrLzU7mPAghhBBCtIKIiBByct5r72y4LTCwA1u3/rW9s9EqfkpludlJz4MQQgghhBDCLTJhWgghhBANuEyYFkL8LMmEaSGEEEIIIUSLSfAghBBCCCGEcIsMWxJCCCGEEEK4RXoehBBCCCGEEG6R4EEIIYQQQgjhFgkehBBCCCGEEG6R4EEIIYQQQgjhFgkehBBCCCGEEG6R4EEIIYQQQgjhFgkehBBCCCGEEG6R4EEIIYQQQgjhFgkehBBCCCGEEG6R4EEIIYQQQgjhFgkehBBCCCGEEG6R4EEIIYQQQgjhFgkehBBCCCGEEG6R4EEIIYQQQgjhFgkehBBCCCGEEG75f4VK8tPDrUrVAAAAAElFTkSuQmCC;" vertex="1" parent="1">
          <mxGeometry x="-610" y="950" width="783" height="143" as="geometry" />
        </mxCell>
        <mxCell id="A8b28ugPqDq0Cs7UtEEN-45" value="host" style="edgeStyle=orthogonalEdgeStyle;rounded=0;orthogonalLoop=1;jettySize=auto;html=1;entryX=0.5;entryY=0;entryDx=0;entryDy=0;" edge="1" parent="1" source="A8b28ugPqDq0Cs7UtEEN-36" target="A8b28ugPqDq0Cs7UtEEN-41">
          <mxGeometry relative="1" as="geometry" />
        </mxCell>
        <mxCell id="A8b28ugPqDq0Cs7UtEEN-36" value="RAMBlock内存分配" style="rounded=1;whiteSpace=wrap;html=1;arcSize=40;fontColor=#000000;fillColor=#ffffc0;strokeColor=#ff0000;" vertex="1" parent="1">
          <mxGeometry x="-700" y="1110" width="120" height="40" as="geometry" />
        </mxCell>
        <mxCell id="A8b28ugPqDq0Cs7UtEEN-37" value="host" style="edgeStyle=orthogonalEdgeStyle;html=1;verticalAlign=bottom;endArrow=open;endSize=8;strokeColor=#ff0000;rounded=0;" edge="1" source="A8b28ugPqDq0Cs7UtEEN-36" parent="1" target="A8b28ugPqDq0Cs7UtEEN-38">
          <mxGeometry relative="1" as="geometry">
            <mxPoint x="-640" y="1210" as="targetPoint" />
          </mxGeometry>
        </mxCell>
        <mxCell id="A8b28ugPqDq0Cs7UtEEN-53" style="edgeStyle=orthogonalEdgeStyle;rounded=0;orthogonalLoop=1;jettySize=auto;html=1;entryX=0.5;entryY=0;entryDx=0;entryDy=0;" edge="1" parent="1" source="A8b28ugPqDq0Cs7UtEEN-38" target="A8b28ugPqDq0Cs7UtEEN-49">
          <mxGeometry relative="1" as="geometry" />
        </mxCell>
        <mxCell id="A8b28ugPqDq0Cs7UtEEN-38" value="qemu_ram_alloc_internal" style="rounded=1;whiteSpace=wrap;html=1;arcSize=40;fontColor=#000000;fillColor=#ffffc0;strokeColor=#ff0000;" vertex="1" parent="1">
          <mxGeometry x="-820" y="1200" width="150" height="30" as="geometry" />
        </mxCell>
        <mxCell id="A8b28ugPqDq0Cs7UtEEN-46" value="" style="edgeStyle=orthogonalEdgeStyle;rounded=0;orthogonalLoop=1;jettySize=auto;html=1;entryX=0.5;entryY=0;entryDx=0;entryDy=0;" edge="1" parent="1" source="A8b28ugPqDq0Cs7UtEEN-41" target="A8b28ugPqDq0Cs7UtEEN-42">
          <mxGeometry relative="1" as="geometry">
            <mxPoint x="-515" y="1270" as="targetPoint" />
          </mxGeometry>
        </mxCell>
        <mxCell id="A8b28ugPqDq0Cs7UtEEN-41" value="qemu_ram_alloc_from_fd" style="rounded=1;whiteSpace=wrap;html=1;arcSize=40;fontColor=#000000;fillColor=#ffffc0;strokeColor=#ff0000;" vertex="1" parent="1">
          <mxGeometry x="-590" y="1200" width="150" height="30" as="geometry" />
        </mxCell>
        <mxCell id="A8b28ugPqDq0Cs7UtEEN-47" value="" style="edgeStyle=orthogonalEdgeStyle;rounded=0;orthogonalLoop=1;jettySize=auto;html=1;entryX=0.5;entryY=0;entryDx=0;entryDy=0;" edge="1" parent="1" source="A8b28ugPqDq0Cs7UtEEN-42" target="A8b28ugPqDq0Cs7UtEEN-43">
          <mxGeometry relative="1" as="geometry">
            <mxPoint x="-515" y="1330" as="targetPoint" />
          </mxGeometry>
        </mxCell>
        <mxCell id="A8b28ugPqDq0Cs7UtEEN-42" value="file_ram_alloc" style="rounded=1;whiteSpace=wrap;html=1;arcSize=40;fontColor=#000000;fillColor=#ffffc0;strokeColor=#ff0000;" vertex="1" parent="1">
          <mxGeometry x="-590" y="1320" width="150" height="30" as="geometry" />
        </mxCell>
        <mxCell id="A8b28ugPqDq0Cs7UtEEN-48" value="" style="edgeStyle=orthogonalEdgeStyle;rounded=0;orthogonalLoop=1;jettySize=auto;html=1;" edge="1" parent="1" source="A8b28ugPqDq0Cs7UtEEN-43" target="A8b28ugPqDq0Cs7UtEEN-44">
          <mxGeometry relative="1" as="geometry" />
        </mxCell>
        <mxCell id="A8b28ugPqDq0Cs7UtEEN-43" value="qemu_ram_mmap(fd)" style="rounded=1;whiteSpace=wrap;html=1;arcSize=40;fontColor=#000000;fillColor=#ffffc0;strokeColor=#ff0000;" vertex="1" parent="1">
          <mxGeometry x="-590" y="1370" width="150" height="30" as="geometry" />
        </mxCell>
        <mxCell id="A8b28ugPqDq0Cs7UtEEN-44" value="&lt;div&gt;mmap_reserve&lt;/div&gt;&lt;div&gt;mmap_activate&lt;/div&gt;" style="rounded=1;whiteSpace=wrap;html=1;arcSize=40;fontColor=#000000;fillColor=#ffffc0;strokeColor=#ff0000;" vertex="1" parent="1">
          <mxGeometry x="-670" y="1460" width="150" height="30" as="geometry" />
        </mxCell>
        <mxCell id="A8b28ugPqDq0Cs7UtEEN-54" style="edgeStyle=orthogonalEdgeStyle;rounded=0;orthogonalLoop=1;jettySize=auto;html=1;entryX=0.5;entryY=0;entryDx=0;entryDy=0;" edge="1" parent="1" source="A8b28ugPqDq0Cs7UtEEN-49" target="A8b28ugPqDq0Cs7UtEEN-50">
          <mxGeometry relative="1" as="geometry" />
        </mxCell>
        <mxCell id="A8b28ugPqDq0Cs7UtEEN-49" value="ram_block_add" style="rounded=1;whiteSpace=wrap;html=1;arcSize=40;fontColor=#000000;fillColor=#ffffc0;strokeColor=#ff0000;" vertex="1" parent="1">
          <mxGeometry x="-820" y="1260" width="150" height="30" as="geometry" />
        </mxCell>
        <mxCell id="A8b28ugPqDq0Cs7UtEEN-55" style="edgeStyle=orthogonalEdgeStyle;rounded=0;orthogonalLoop=1;jettySize=auto;html=1;entryX=0.5;entryY=0;entryDx=0;entryDy=0;" edge="1" parent="1" source="A8b28ugPqDq0Cs7UtEEN-50" target="A8b28ugPqDq0Cs7UtEEN-51">
          <mxGeometry relative="1" as="geometry" />
        </mxCell>
        <mxCell id="A8b28ugPqDq0Cs7UtEEN-50" value="qemu_anon_ram_alloc" style="rounded=1;whiteSpace=wrap;html=1;arcSize=40;fontColor=#000000;fillColor=#ffffc0;strokeColor=#ff0000;" vertex="1" parent="1">
          <mxGeometry x="-820" y="1320" width="150" height="30" as="geometry" />
        </mxCell>
        <mxCell id="A8b28ugPqDq0Cs7UtEEN-52" style="edgeStyle=orthogonalEdgeStyle;rounded=0;orthogonalLoop=1;jettySize=auto;html=1;entryX=0.25;entryY=0;entryDx=0;entryDy=0;" edge="1" parent="1" source="A8b28ugPqDq0Cs7UtEEN-51" target="A8b28ugPqDq0Cs7UtEEN-44">
          <mxGeometry relative="1" as="geometry" />
        </mxCell>
        <mxCell id="A8b28ugPqDq0Cs7UtEEN-51" value="qemu_ram_mmap(-1)" style="rounded=1;whiteSpace=wrap;html=1;arcSize=40;fontColor=#000000;fillColor=#ffffc0;strokeColor=#ff0000;" vertex="1" parent="1">
          <mxGeometry x="-820" y="1370" width="150" height="30" as="geometry" />
        </mxCell>
      </root>
    </mxGraphModel>
  </diagram>
</mxfile>
